G04 #@! TF.GenerationSoftware,KiCad,Pcbnew,(2017-11-06 revision 9df4ae65e)-makepkg*
G04 #@! TF.CreationDate,2019-02-04T19:17:37-08:00*
G04 #@! TF.ProjectId,Behavior rig board,4265686176696F722072696720626F61,rev?*
G04 #@! TF.SameCoordinates,Original*
G04 #@! TF.FileFunction,Copper,L2,Bot,Signal*
G04 #@! TF.FilePolarity,Positive*
%FSLAX46Y46*%
G04 Gerber Fmt 4.6, Leading zero omitted, Abs format (unit mm)*
G04 Created by KiCad (PCBNEW (2017-11-06 revision 9df4ae65e)-makepkg) date 02/04/19 19:17:37*
%MOMM*%
%LPD*%
G01*
G04 APERTURE LIST*
%ADD10R,2.400000X2.400000*%
%ADD11C,2.400000*%
%ADD12O,1.700000X1.700000*%
%ADD13R,1.700000X1.700000*%
%ADD14C,3.500120*%
%ADD15R,3.500120X3.500120*%
%ADD16C,0.800000*%
%ADD17C,0.200000*%
G04 APERTURE END LIST*
D10*
X163480000Y-57070000D03*
D11*
X163480000Y-60570000D03*
X163480000Y-64070000D03*
X163480000Y-67570000D03*
X163480000Y-71070000D03*
X163480000Y-74570000D03*
X163480000Y-78070000D03*
X163480000Y-81570000D03*
X163480000Y-85070000D03*
X163480000Y-88570000D03*
X163480000Y-92070000D03*
X156480000Y-57070000D03*
X156480000Y-60570000D03*
X156480000Y-64070000D03*
X156480000Y-67570000D03*
X156480000Y-71070000D03*
X156480000Y-74570000D03*
X156480000Y-78070000D03*
X156480000Y-81570000D03*
X156480000Y-85070000D03*
X156480000Y-88570000D03*
X156480000Y-92070000D03*
D12*
X202540000Y-101260000D03*
X200000000Y-101260000D03*
X202540000Y-98720000D03*
X200000000Y-98720000D03*
X202540000Y-96180000D03*
X200000000Y-96180000D03*
X202540000Y-93640000D03*
X200000000Y-93640000D03*
X202540000Y-91100000D03*
X200000000Y-91100000D03*
X202540000Y-88560000D03*
X200000000Y-88560000D03*
X202540000Y-86020000D03*
X200000000Y-86020000D03*
X202540000Y-83480000D03*
X200000000Y-83480000D03*
X202540000Y-80940000D03*
X200000000Y-80940000D03*
X202540000Y-78400000D03*
X200000000Y-78400000D03*
X202540000Y-75860000D03*
X200000000Y-75860000D03*
X202540000Y-73320000D03*
X200000000Y-73320000D03*
X202540000Y-70780000D03*
X200000000Y-70780000D03*
X202540000Y-68240000D03*
X200000000Y-68240000D03*
X202540000Y-65700000D03*
X200000000Y-65700000D03*
X202540000Y-63160000D03*
X200000000Y-63160000D03*
X202540000Y-60620000D03*
X200000000Y-60620000D03*
X202540000Y-58080000D03*
X200000000Y-58080000D03*
X202540000Y-55540000D03*
X200000000Y-55540000D03*
X202540000Y-53000000D03*
D13*
X200000000Y-53000000D03*
D14*
X195500000Y-56840000D03*
D15*
X195500000Y-51760000D03*
D16*
X171730000Y-82670000D03*
X187820000Y-57250000D03*
X182650000Y-56110000D03*
X198500000Y-96900000D03*
X196690000Y-95340000D03*
X196730000Y-93810000D03*
X198430000Y-92660000D03*
X197250000Y-91640000D03*
X198360000Y-90760000D03*
X198910000Y-79670000D03*
X198940000Y-74590000D03*
X198980000Y-69510000D03*
X171880000Y-92620000D03*
X171870000Y-87310000D03*
X171930000Y-98010000D03*
X170990000Y-56170000D03*
X166030000Y-60540000D03*
X185720000Y-49990000D03*
X174770000Y-56000000D03*
X179640000Y-56050000D03*
X178030000Y-57810000D03*
X176620000Y-49940000D03*
X179470000Y-50830000D03*
X178180000Y-52200000D03*
X195740000Y-73900000D03*
X174230000Y-59530000D03*
X180710000Y-98920000D03*
X175500000Y-98840000D03*
X169030000Y-96750000D03*
X169040000Y-91120000D03*
X167500000Y-79870000D03*
X168820000Y-83400000D03*
X160500000Y-55940000D03*
X157500000Y-52000000D03*
X162600000Y-51840000D03*
X168000000Y-52000000D03*
X166490000Y-57170000D03*
X170870000Y-53800000D03*
X170630000Y-59040000D03*
X165810000Y-69190000D03*
X168070000Y-73340000D03*
X167640000Y-65850000D03*
X169300000Y-69230000D03*
X169430000Y-76620000D03*
X169460000Y-62380000D03*
X165510000Y-94050000D03*
X175120000Y-94910000D03*
X176740000Y-90860000D03*
X175350000Y-89450000D03*
X176950000Y-96200000D03*
X168260000Y-99110000D03*
X159240000Y-99030000D03*
X163200000Y-98230000D03*
X176290000Y-92910000D03*
X176180000Y-87550000D03*
X175920000Y-85760000D03*
X203980000Y-54390000D03*
X203910000Y-51960000D03*
X198190000Y-52680000D03*
X189010000Y-50420000D03*
X191970000Y-53010000D03*
X191610000Y-55940000D03*
X189160000Y-53150000D03*
X203880000Y-97420000D03*
X204080000Y-102010000D03*
X203980000Y-72100000D03*
X189500000Y-99000000D03*
X196250000Y-98250000D03*
X184100000Y-98830000D03*
X193060000Y-96690000D03*
X193050000Y-88800000D03*
X191060000Y-92450000D03*
X188720000Y-96310000D03*
X188930000Y-89240000D03*
X192710000Y-84960000D03*
X195690000Y-80620000D03*
X195730000Y-67490000D03*
X195930000Y-60300000D03*
X176060000Y-82430000D03*
X183510000Y-82450000D03*
X188830000Y-82940000D03*
X189470000Y-60150000D03*
X186510000Y-60070000D03*
X183310000Y-60180000D03*
X179010000Y-59840000D03*
X176360000Y-60630000D03*
X184180000Y-93040000D03*
X180470000Y-93040000D03*
X182730000Y-87830000D03*
X180390000Y-87650000D03*
X177010000Y-84040000D03*
X186120000Y-54440000D03*
X183030000Y-54480000D03*
X178890000Y-54110000D03*
D17*
X153890000Y-91020000D02*
X153890000Y-92690000D01*
X154580000Y-90330000D02*
X153890000Y-91020000D01*
X157790000Y-90330000D02*
X154580000Y-90330000D01*
X158240000Y-89880000D02*
X157790000Y-90330000D01*
X158240000Y-89760000D02*
X158240000Y-89880000D01*
X158880000Y-89120000D02*
X158240000Y-89760000D01*
X158880000Y-87260000D02*
X158880000Y-89120000D01*
X158450000Y-86830000D02*
X158880000Y-87260000D01*
X154730000Y-86830000D02*
X158450000Y-86830000D01*
X153830000Y-85930000D02*
X154730000Y-86830000D01*
X153830000Y-83810000D02*
X153830000Y-85930000D01*
X154320000Y-83320000D02*
X153830000Y-83810000D01*
X158530000Y-83320000D02*
X154320000Y-83320000D01*
X159280000Y-82570000D02*
X158530000Y-83320000D01*
X159280000Y-80700000D02*
X159280000Y-82570000D01*
X158410000Y-79830000D02*
X159280000Y-80700000D01*
X154550000Y-79830000D02*
X158410000Y-79830000D01*
X153940000Y-79220000D02*
X154550000Y-79830000D01*
X153940000Y-76740000D02*
X153940000Y-79220000D01*
X154350000Y-76330000D02*
X153940000Y-76740000D01*
X155180000Y-76330000D02*
X154350000Y-76330000D01*
X157940000Y-76330000D02*
X155180000Y-76330000D01*
X158900000Y-75370000D02*
X157940000Y-76330000D01*
X158900000Y-73360000D02*
X158900000Y-75370000D01*
X158390000Y-72850000D02*
X158900000Y-73360000D01*
X155030000Y-72850000D02*
X158390000Y-72850000D01*
X154220000Y-72040000D02*
X155030000Y-72850000D01*
X154220000Y-70000000D02*
X154220000Y-72040000D01*
X154890000Y-69330000D02*
X154220000Y-70000000D01*
X158200000Y-69330000D02*
X154890000Y-69330000D01*
X159150000Y-68380000D02*
X158200000Y-69330000D01*
X159150000Y-66700000D02*
X159150000Y-68380000D01*
X158270000Y-65820000D02*
X159150000Y-66700000D01*
X155370000Y-65820000D02*
X158270000Y-65820000D01*
X154320000Y-64770000D02*
X155370000Y-65820000D01*
X154320000Y-63780000D02*
X154320000Y-64770000D01*
X154690000Y-63410000D02*
X154320000Y-63780000D01*
X154690000Y-62920000D02*
X154690000Y-63410000D01*
X155280000Y-62330000D02*
X154690000Y-62920000D01*
X157690000Y-62330000D02*
X155280000Y-62330000D01*
X158530000Y-61490000D02*
X157690000Y-62330000D01*
X158530000Y-59080000D02*
X158530000Y-61490000D01*
X158280000Y-58830000D02*
X158530000Y-59080000D01*
X155340000Y-58830000D02*
X158280000Y-58830000D01*
X155020000Y-58510000D02*
X155340000Y-58830000D01*
X154880000Y-58510000D02*
X155020000Y-58510000D01*
X155110001Y-58279999D02*
X154880000Y-58510000D01*
X156480000Y-57080000D02*
X155280001Y-58279999D01*
X155280001Y-58279999D02*
X155110001Y-58279999D01*
X201270000Y-55107998D02*
X201270000Y-54290000D01*
X201270000Y-102530000D02*
X201270000Y-57920000D01*
X201270000Y-57920000D02*
X201270000Y-56830000D01*
X201270000Y-57920000D02*
X201270000Y-55107998D01*
X201270000Y-56830000D02*
X201230000Y-56790000D01*
X198160000Y-54260000D02*
X198170000Y-54260000D01*
X198330000Y-54430000D02*
X198160000Y-54260000D01*
X199250000Y-54430000D02*
X198330000Y-54430000D01*
X199410000Y-54270000D02*
X199250000Y-54430000D01*
X203294315Y-54270000D02*
X199410000Y-54270000D01*
X203980000Y-54390000D02*
X203414315Y-54390000D01*
X203414315Y-54390000D02*
X203294315Y-54270000D01*
X203620000Y-56810000D02*
X203670000Y-56760000D01*
X201270000Y-56810000D02*
X199970000Y-56810000D01*
X199970000Y-56810000D02*
X198690000Y-56810000D01*
X199970000Y-56810000D02*
X203620000Y-56810000D01*
X201260000Y-59360000D02*
X199950000Y-59360000D01*
X199950000Y-59360000D02*
X196830000Y-59360000D01*
X199950000Y-59360000D02*
X203720000Y-59360000D01*
X198430000Y-61890000D02*
X198400000Y-61920000D01*
X201270000Y-61890000D02*
X198430000Y-61890000D01*
X198440000Y-64420000D02*
X198380000Y-64480000D01*
X201260000Y-64420000D02*
X201730000Y-64420000D01*
X201730000Y-64420000D02*
X203890000Y-64420000D01*
X201730000Y-64420000D02*
X198440000Y-64420000D01*
X203450000Y-66960000D02*
X203490000Y-66920000D01*
X201260000Y-66960000D02*
X199880000Y-66960000D01*
X199880000Y-66960000D02*
X196450000Y-66960000D01*
X199880000Y-66960000D02*
X203450000Y-66960000D01*
X203990000Y-69500000D02*
X204020000Y-69470000D01*
X201280000Y-69500000D02*
X200130000Y-69500000D01*
X200130000Y-69500000D02*
X197660000Y-69500000D01*
X200130000Y-69500000D02*
X203990000Y-69500000D01*
X198170000Y-72050000D02*
X197890000Y-72330000D01*
X203440000Y-72050000D02*
X198170000Y-72050000D01*
X203490000Y-72100000D02*
X203440000Y-72050000D01*
X203980000Y-72100000D02*
X203490000Y-72100000D01*
X203820000Y-74610000D02*
X203950000Y-74480000D01*
X201290000Y-74610000D02*
X199940000Y-74610000D01*
X199940000Y-74610000D02*
X198940000Y-74610000D01*
X199940000Y-74610000D02*
X203820000Y-74610000D01*
X203900000Y-77120000D02*
X203960000Y-77060000D01*
X201280000Y-77120000D02*
X199840000Y-77120000D01*
X199840000Y-77120000D02*
X198920000Y-77120000D01*
X199840000Y-77120000D02*
X203900000Y-77120000D01*
X203690000Y-79680000D02*
X203760000Y-79610000D01*
X199485685Y-79680000D02*
X203690000Y-79680000D01*
X198910000Y-79670000D02*
X199475685Y-79670000D01*
X199475685Y-79670000D02*
X199485685Y-79680000D01*
X198070000Y-82200000D02*
X198050000Y-82180000D01*
X201280000Y-82200000D02*
X203080000Y-82200000D01*
X203080000Y-82200000D02*
X204180000Y-82200000D01*
X203080000Y-82200000D02*
X198070000Y-82200000D01*
X198280000Y-84750000D02*
X198250000Y-84720000D01*
X201270000Y-84750000D02*
X198280000Y-84750000D01*
X203870000Y-87300000D02*
X203910000Y-87340000D01*
X201280000Y-87300000D02*
X200150000Y-87300000D01*
X200150000Y-87300000D02*
X194930000Y-87300000D01*
X200150000Y-87300000D02*
X203870000Y-87300000D01*
X203790000Y-89830000D02*
X203810000Y-89850000D01*
X201270000Y-89830000D02*
X199930000Y-89830000D01*
X199930000Y-89830000D02*
X193250000Y-89830000D01*
X199930000Y-89830000D02*
X203790000Y-89830000D01*
X203830000Y-92370000D02*
X203840000Y-92380000D01*
X201270000Y-92370000D02*
X199860000Y-92370000D01*
X199860000Y-92370000D02*
X191070000Y-92370000D01*
X199860000Y-92370000D02*
X203830000Y-92370000D01*
X203730000Y-94910000D02*
X203790000Y-94850000D01*
X199690000Y-94910000D02*
X200230000Y-94910000D01*
X200230000Y-94910000D02*
X201020000Y-94910000D01*
X200230000Y-94910000D02*
X203730000Y-94910000D01*
X201020000Y-94910000D02*
X201080000Y-94970000D01*
X201270000Y-94910000D02*
X199690000Y-94910000D01*
X199690000Y-94910000D02*
X192770000Y-94910000D01*
X198150000Y-97420000D02*
X198060000Y-97330000D01*
X203880000Y-97420000D02*
X198150000Y-97420000D01*
X203850000Y-99970000D02*
X203990000Y-99830000D01*
X201290000Y-99970000D02*
X203850000Y-99970000D01*
X200000000Y-101260000D02*
X201290000Y-99970000D01*
X204060000Y-84680000D02*
X204050000Y-84680000D01*
X203990000Y-84750000D02*
X204060000Y-84680000D01*
X201270000Y-84750000D02*
X203990000Y-84750000D01*
X200000000Y-83480000D02*
X201270000Y-84750000D01*
X200000000Y-83480000D02*
X201280000Y-82200000D01*
X203890000Y-64420000D02*
X204040000Y-64270000D01*
X200000000Y-63160000D02*
X201260000Y-64420000D01*
X204150000Y-61890000D02*
X204160000Y-61900000D01*
X201270000Y-61890000D02*
X204150000Y-61890000D01*
X200000000Y-63160000D02*
X201270000Y-61890000D01*
X197660000Y-69500000D02*
X195630000Y-67470000D01*
X202540000Y-68240000D02*
X201280000Y-69500000D01*
X196690000Y-95340000D02*
X198500000Y-96900000D01*
X196730000Y-93810000D02*
X198430000Y-92660000D01*
X197700000Y-93260000D02*
X196730000Y-93810000D01*
X198920000Y-82200000D02*
X198910000Y-82210000D01*
X198920000Y-77140000D02*
X198920000Y-77120000D01*
X198940000Y-74590000D02*
X198940000Y-74610000D01*
X198980000Y-69510000D02*
X198980000Y-69520000D01*
X170420000Y-87200000D02*
X171870000Y-87310000D01*
X171930000Y-98010000D02*
X171820000Y-97990000D01*
X185720000Y-49990000D02*
X183980000Y-50730000D01*
X174770000Y-56000000D02*
X178030000Y-57810000D01*
X176620000Y-49940000D02*
X178030000Y-52400000D01*
X196830000Y-59360000D02*
X195890000Y-60300000D01*
X202540000Y-58080000D02*
X201260000Y-59360000D01*
X198150000Y-56270000D02*
X198150000Y-54120000D01*
X198690000Y-56810000D02*
X198150000Y-56270000D01*
X202540000Y-58080000D02*
X201270000Y-56810000D01*
X196450000Y-66960000D02*
X195790000Y-67620000D01*
X202540000Y-68240000D02*
X201260000Y-66960000D01*
X195640000Y-67830000D02*
X195640000Y-67430000D01*
X197330000Y-69520000D02*
X195640000Y-67830000D01*
X198980000Y-69520000D02*
X197330000Y-69520000D01*
X196260000Y-74610000D02*
X195620000Y-73970000D01*
X198920000Y-77120000D02*
X197960000Y-77120000D01*
X195740000Y-74900000D02*
X195740000Y-73910000D01*
X197960000Y-77120000D02*
X195740000Y-74900000D01*
X195740000Y-73910000D02*
X195730000Y-73900000D01*
X198940000Y-74610000D02*
X196260000Y-74610000D01*
X202540000Y-75860000D02*
X201290000Y-74610000D01*
X202540000Y-75860000D02*
X201280000Y-77120000D01*
X193250000Y-89830000D02*
X191890000Y-88470000D01*
X202540000Y-88560000D02*
X201270000Y-89830000D01*
X194930000Y-87300000D02*
X192600000Y-84970000D01*
X202540000Y-88560000D02*
X201280000Y-87300000D01*
X192770000Y-94910000D02*
X190730000Y-92870000D01*
X202540000Y-93640000D02*
X201270000Y-94910000D01*
X191070000Y-92370000D02*
X190580000Y-92860000D01*
X202540000Y-93640000D02*
X201270000Y-92370000D01*
X158250000Y-90250000D02*
X156500000Y-88500000D01*
X165250000Y-90250000D02*
X158250000Y-90250000D01*
X166120000Y-91120000D02*
X165250000Y-90250000D01*
X169040000Y-91120000D02*
X166120000Y-91120000D01*
X172760000Y-59380000D02*
X174230000Y-59530000D01*
X203700000Y-102530000D02*
X204160000Y-102070000D01*
X201270000Y-102530000D02*
X203700000Y-102530000D01*
X201210000Y-102470000D02*
X201270000Y-102530000D01*
X200000000Y-101260000D02*
X201210000Y-102470000D01*
X198630000Y-101100000D02*
X198630000Y-100300000D01*
X198780000Y-101250000D02*
X198630000Y-101100000D01*
X199690000Y-101250000D02*
X198780000Y-101250000D01*
X199810000Y-101370000D02*
X199690000Y-101250000D01*
X200160000Y-101020000D02*
X199810000Y-101370000D01*
X200160000Y-100770000D02*
X200160000Y-101020000D01*
X198620000Y-99230000D02*
X200160000Y-100770000D01*
X197335685Y-99230000D02*
X198620000Y-99230000D01*
X196180000Y-98640000D02*
X196745685Y-98640000D01*
X196745685Y-98640000D02*
X197335685Y-99230000D01*
X169850000Y-87650000D02*
X169260000Y-86770000D01*
X168840000Y-85420000D02*
X168890000Y-85070000D01*
X169020000Y-86020000D02*
X168840000Y-85420000D01*
X169260000Y-86770000D02*
X169020000Y-86020000D01*
X170390000Y-98100000D02*
X168940000Y-96720000D01*
X170580000Y-87280000D02*
X171940000Y-87260000D01*
X169040000Y-91120000D02*
X169040000Y-91130000D01*
G36*
X193394676Y-49654676D02*
X193332194Y-49730811D01*
X193285765Y-49817673D01*
X193257175Y-49911923D01*
X193247521Y-50009940D01*
X193247521Y-53510060D01*
X193257175Y-53608077D01*
X193285765Y-53702327D01*
X193332194Y-53789189D01*
X193394676Y-53865324D01*
X193470811Y-53927806D01*
X193557673Y-53974235D01*
X193651923Y-54002825D01*
X193749940Y-54012479D01*
X197250060Y-54012479D01*
X197348077Y-54002825D01*
X197442327Y-53974235D01*
X197529189Y-53927806D01*
X197605324Y-53865324D01*
X197667806Y-53789189D01*
X197714235Y-53702327D01*
X197742825Y-53608077D01*
X197752479Y-53510060D01*
X197752479Y-51545348D01*
X197763635Y-51551481D01*
X197765639Y-51552117D01*
X197767491Y-51553118D01*
X197821413Y-51569809D01*
X197875253Y-51586889D01*
X197877346Y-51587124D01*
X197879353Y-51587745D01*
X197935413Y-51593637D01*
X197991623Y-51599942D01*
X197995668Y-51599970D01*
X197995811Y-51599985D01*
X197995954Y-51599972D01*
X198000000Y-51600000D01*
X204425000Y-51600000D01*
X204425000Y-102425000D01*
X203217336Y-102425000D01*
X203293611Y-102384444D01*
X203497788Y-102217920D01*
X203665733Y-102014910D01*
X203791047Y-101783146D01*
X203868959Y-101531455D01*
X203896499Y-101269425D01*
X203872620Y-101007035D01*
X203798230Y-100754281D01*
X203676164Y-100520790D01*
X203511070Y-100315454D01*
X203309237Y-100146097D01*
X203078354Y-100019167D01*
X202987458Y-99990333D01*
X203060977Y-99968137D01*
X203293611Y-99844444D01*
X203497788Y-99677920D01*
X203665733Y-99474910D01*
X203791047Y-99243146D01*
X203868959Y-98991455D01*
X203896499Y-98729425D01*
X203872620Y-98467035D01*
X203798230Y-98214281D01*
X203676164Y-97980790D01*
X203511070Y-97775454D01*
X203309237Y-97606097D01*
X203078354Y-97479167D01*
X202987458Y-97450333D01*
X203060977Y-97428137D01*
X203293611Y-97304444D01*
X203497788Y-97137920D01*
X203665733Y-96934910D01*
X203791047Y-96703146D01*
X203868959Y-96451455D01*
X203896499Y-96189425D01*
X203872620Y-95927035D01*
X203798230Y-95674281D01*
X203676164Y-95440790D01*
X203511070Y-95235454D01*
X203309237Y-95066097D01*
X203130685Y-94967937D01*
X203186300Y-94946935D01*
X203428852Y-94795736D01*
X203637246Y-94600122D01*
X203803473Y-94367611D01*
X203921146Y-94107139D01*
X203947903Y-94018910D01*
X203836889Y-93794000D01*
X202694000Y-93794000D01*
X202694000Y-93814000D01*
X202386000Y-93814000D01*
X202386000Y-93794000D01*
X202366000Y-93794000D01*
X202366000Y-93486000D01*
X202386000Y-93486000D01*
X202386000Y-93466000D01*
X202694000Y-93466000D01*
X202694000Y-93486000D01*
X203836889Y-93486000D01*
X203947903Y-93261090D01*
X203921146Y-93172861D01*
X203803473Y-92912389D01*
X203637246Y-92679878D01*
X203428852Y-92484264D01*
X203186300Y-92333065D01*
X203129596Y-92311652D01*
X203293611Y-92224444D01*
X203497788Y-92057920D01*
X203665733Y-91854910D01*
X203791047Y-91623146D01*
X203868959Y-91371455D01*
X203896499Y-91109425D01*
X203872620Y-90847035D01*
X203798230Y-90594281D01*
X203676164Y-90360790D01*
X203511070Y-90155454D01*
X203309237Y-89986097D01*
X203130685Y-89887937D01*
X203186300Y-89866935D01*
X203428852Y-89715736D01*
X203637246Y-89520122D01*
X203803473Y-89287611D01*
X203921146Y-89027139D01*
X203947903Y-88938910D01*
X203836889Y-88714000D01*
X202694000Y-88714000D01*
X202694000Y-88734000D01*
X202386000Y-88734000D01*
X202386000Y-88714000D01*
X202366000Y-88714000D01*
X202366000Y-88406000D01*
X202386000Y-88406000D01*
X202386000Y-88386000D01*
X202694000Y-88386000D01*
X202694000Y-88406000D01*
X203836889Y-88406000D01*
X203947903Y-88181090D01*
X203921146Y-88092861D01*
X203803473Y-87832389D01*
X203637246Y-87599878D01*
X203428852Y-87404264D01*
X203186300Y-87253065D01*
X203129596Y-87231652D01*
X203293611Y-87144444D01*
X203497788Y-86977920D01*
X203665733Y-86774910D01*
X203791047Y-86543146D01*
X203868959Y-86291455D01*
X203896499Y-86029425D01*
X203872620Y-85767035D01*
X203798230Y-85514281D01*
X203676164Y-85280790D01*
X203511070Y-85075454D01*
X203309237Y-84906097D01*
X203078354Y-84779167D01*
X202987458Y-84750333D01*
X203060977Y-84728137D01*
X203293611Y-84604444D01*
X203497788Y-84437920D01*
X203665733Y-84234910D01*
X203791047Y-84003146D01*
X203868959Y-83751455D01*
X203896499Y-83489425D01*
X203872620Y-83227035D01*
X203798230Y-82974281D01*
X203676164Y-82740790D01*
X203511070Y-82535454D01*
X203309237Y-82366097D01*
X203078354Y-82239167D01*
X202987458Y-82210333D01*
X203060977Y-82188137D01*
X203293611Y-82064444D01*
X203497788Y-81897920D01*
X203665733Y-81694910D01*
X203791047Y-81463146D01*
X203868959Y-81211455D01*
X203896499Y-80949425D01*
X203872620Y-80687035D01*
X203798230Y-80434281D01*
X203676164Y-80200790D01*
X203511070Y-79995454D01*
X203309237Y-79826097D01*
X203078354Y-79699167D01*
X202987458Y-79670333D01*
X203060977Y-79648137D01*
X203293611Y-79524444D01*
X203497788Y-79357920D01*
X203665733Y-79154910D01*
X203791047Y-78923146D01*
X203868959Y-78671455D01*
X203896499Y-78409425D01*
X203872620Y-78147035D01*
X203798230Y-77894281D01*
X203676164Y-77660790D01*
X203511070Y-77455454D01*
X203309237Y-77286097D01*
X203130685Y-77187937D01*
X203186300Y-77166935D01*
X203428852Y-77015736D01*
X203637246Y-76820122D01*
X203803473Y-76587611D01*
X203921146Y-76327139D01*
X203947903Y-76238910D01*
X203836889Y-76014000D01*
X202694000Y-76014000D01*
X202694000Y-76034000D01*
X202386000Y-76034000D01*
X202386000Y-76014000D01*
X202366000Y-76014000D01*
X202366000Y-75706000D01*
X202386000Y-75706000D01*
X202386000Y-75686000D01*
X202694000Y-75686000D01*
X202694000Y-75706000D01*
X203836889Y-75706000D01*
X203947903Y-75481090D01*
X203921146Y-75392861D01*
X203803473Y-75132389D01*
X203637246Y-74899878D01*
X203428852Y-74704264D01*
X203186300Y-74553065D01*
X203129596Y-74531652D01*
X203293611Y-74444444D01*
X203497788Y-74277920D01*
X203665733Y-74074910D01*
X203791047Y-73843146D01*
X203868959Y-73591455D01*
X203896499Y-73329425D01*
X203872620Y-73067035D01*
X203798230Y-72814281D01*
X203676164Y-72580790D01*
X203511070Y-72375454D01*
X203309237Y-72206097D01*
X203078354Y-72079167D01*
X202987458Y-72050333D01*
X203060977Y-72028137D01*
X203293611Y-71904444D01*
X203497788Y-71737920D01*
X203665733Y-71534910D01*
X203791047Y-71303146D01*
X203868959Y-71051455D01*
X203896499Y-70789425D01*
X203872620Y-70527035D01*
X203798230Y-70274281D01*
X203676164Y-70040790D01*
X203511070Y-69835454D01*
X203309237Y-69666097D01*
X203130685Y-69567937D01*
X203186300Y-69546935D01*
X203428852Y-69395736D01*
X203637246Y-69200122D01*
X203803473Y-68967611D01*
X203921146Y-68707139D01*
X203947903Y-68618910D01*
X203836889Y-68394000D01*
X202694000Y-68394000D01*
X202694000Y-68414000D01*
X202386000Y-68414000D01*
X202386000Y-68394000D01*
X202366000Y-68394000D01*
X202366000Y-68086000D01*
X202386000Y-68086000D01*
X202386000Y-68066000D01*
X202694000Y-68066000D01*
X202694000Y-68086000D01*
X203836889Y-68086000D01*
X203947903Y-67861090D01*
X203921146Y-67772861D01*
X203803473Y-67512389D01*
X203637246Y-67279878D01*
X203428852Y-67084264D01*
X203186300Y-66933065D01*
X203129596Y-66911652D01*
X203293611Y-66824444D01*
X203497788Y-66657920D01*
X203665733Y-66454910D01*
X203791047Y-66223146D01*
X203868959Y-65971455D01*
X203896499Y-65709425D01*
X203872620Y-65447035D01*
X203798230Y-65194281D01*
X203676164Y-64960790D01*
X203511070Y-64755454D01*
X203309237Y-64586097D01*
X203078354Y-64459167D01*
X202987458Y-64430333D01*
X203060977Y-64408137D01*
X203293611Y-64284444D01*
X203497788Y-64117920D01*
X203665733Y-63914910D01*
X203791047Y-63683146D01*
X203868959Y-63431455D01*
X203896499Y-63169425D01*
X203872620Y-62907035D01*
X203798230Y-62654281D01*
X203676164Y-62420790D01*
X203511070Y-62215454D01*
X203309237Y-62046097D01*
X203078354Y-61919167D01*
X202987458Y-61890333D01*
X203060977Y-61868137D01*
X203293611Y-61744444D01*
X203497788Y-61577920D01*
X203665733Y-61374910D01*
X203791047Y-61143146D01*
X203868959Y-60891455D01*
X203896499Y-60629425D01*
X203872620Y-60367035D01*
X203798230Y-60114281D01*
X203676164Y-59880790D01*
X203511070Y-59675454D01*
X203309237Y-59506097D01*
X203130685Y-59407937D01*
X203186300Y-59386935D01*
X203428852Y-59235736D01*
X203637246Y-59040122D01*
X203803473Y-58807611D01*
X203921146Y-58547139D01*
X203947903Y-58458910D01*
X203836889Y-58234000D01*
X202694000Y-58234000D01*
X202694000Y-58254000D01*
X202386000Y-58254000D01*
X202386000Y-58234000D01*
X202366000Y-58234000D01*
X202366000Y-57926000D01*
X202386000Y-57926000D01*
X202386000Y-57906000D01*
X202694000Y-57906000D01*
X202694000Y-57926000D01*
X203836889Y-57926000D01*
X203947903Y-57701090D01*
X203921146Y-57612861D01*
X203803473Y-57352389D01*
X203637246Y-57119878D01*
X203428852Y-56924264D01*
X203186300Y-56773065D01*
X203129596Y-56751652D01*
X203293611Y-56664444D01*
X203497788Y-56497920D01*
X203665733Y-56294910D01*
X203791047Y-56063146D01*
X203868959Y-55811455D01*
X203896499Y-55549425D01*
X203872620Y-55287035D01*
X203798230Y-55034281D01*
X203676164Y-54800790D01*
X203511070Y-54595454D01*
X203309237Y-54426097D01*
X203078354Y-54299167D01*
X202987458Y-54270333D01*
X203060977Y-54248137D01*
X203293611Y-54124444D01*
X203497788Y-53957920D01*
X203665733Y-53754910D01*
X203791047Y-53523146D01*
X203868959Y-53271455D01*
X203896499Y-53009425D01*
X203872620Y-52747035D01*
X203798230Y-52494281D01*
X203676164Y-52260790D01*
X203511070Y-52055454D01*
X203309237Y-51886097D01*
X203078354Y-51759167D01*
X202827213Y-51679501D01*
X202565381Y-51650132D01*
X202546532Y-51650000D01*
X202533468Y-51650000D01*
X202271252Y-51675711D01*
X202019023Y-51751863D01*
X201786389Y-51875556D01*
X201582212Y-52042080D01*
X201414267Y-52245090D01*
X201352419Y-52359476D01*
X201352419Y-52150000D01*
X201342765Y-52051983D01*
X201314175Y-51957733D01*
X201267746Y-51870871D01*
X201205264Y-51794736D01*
X201129129Y-51732254D01*
X201042267Y-51685825D01*
X200948017Y-51657235D01*
X200850000Y-51647581D01*
X199150000Y-51647581D01*
X199051983Y-51657235D01*
X198957733Y-51685825D01*
X198870871Y-51732254D01*
X198794736Y-51794736D01*
X198732254Y-51870871D01*
X198685825Y-51957733D01*
X198657235Y-52051983D01*
X198647581Y-52150000D01*
X198647581Y-53850000D01*
X198657235Y-53948017D01*
X198685825Y-54042267D01*
X198732254Y-54129129D01*
X198794736Y-54205264D01*
X198870871Y-54267746D01*
X198957733Y-54314175D01*
X199051983Y-54342765D01*
X199150000Y-54352419D01*
X199365133Y-54352419D01*
X199246389Y-54415556D01*
X199042212Y-54582080D01*
X198874267Y-54785090D01*
X198748953Y-55016854D01*
X198671041Y-55268545D01*
X198643501Y-55530575D01*
X198667380Y-55792965D01*
X198741770Y-56045719D01*
X198863836Y-56279210D01*
X199028930Y-56484546D01*
X199230763Y-56653903D01*
X199461646Y-56780833D01*
X199552542Y-56809667D01*
X199479023Y-56831863D01*
X199246389Y-56955556D01*
X199042212Y-57122080D01*
X198874267Y-57325090D01*
X198748953Y-57556854D01*
X198671041Y-57808545D01*
X198643501Y-58070575D01*
X198667380Y-58332965D01*
X198741770Y-58585719D01*
X198863836Y-58819210D01*
X199028930Y-59024546D01*
X199230763Y-59193903D01*
X199461646Y-59320833D01*
X199552542Y-59349667D01*
X199479023Y-59371863D01*
X199246389Y-59495556D01*
X199042212Y-59662080D01*
X198874267Y-59865090D01*
X198748953Y-60096854D01*
X198671041Y-60348545D01*
X198643501Y-60610575D01*
X198667380Y-60872965D01*
X198741770Y-61125719D01*
X198863836Y-61359210D01*
X199028930Y-61564546D01*
X199230763Y-61733903D01*
X199409315Y-61832063D01*
X199353700Y-61853065D01*
X199111148Y-62004264D01*
X198902754Y-62199878D01*
X198736527Y-62432389D01*
X198618854Y-62692861D01*
X198592097Y-62781090D01*
X198703111Y-63006000D01*
X199846000Y-63006000D01*
X199846000Y-62986000D01*
X200154000Y-62986000D01*
X200154000Y-63006000D01*
X200174000Y-63006000D01*
X200174000Y-63314000D01*
X200154000Y-63314000D01*
X200154000Y-63334000D01*
X199846000Y-63334000D01*
X199846000Y-63314000D01*
X198703111Y-63314000D01*
X198592097Y-63538910D01*
X198618854Y-63627139D01*
X198736527Y-63887611D01*
X198902754Y-64120122D01*
X199111148Y-64315736D01*
X199353700Y-64466935D01*
X199410404Y-64488348D01*
X199246389Y-64575556D01*
X199042212Y-64742080D01*
X198874267Y-64945090D01*
X198748953Y-65176854D01*
X198671041Y-65428545D01*
X198643501Y-65690575D01*
X198667380Y-65952965D01*
X198741770Y-66205719D01*
X198863836Y-66439210D01*
X199028930Y-66644546D01*
X199230763Y-66813903D01*
X199461646Y-66940833D01*
X199552542Y-66969667D01*
X199479023Y-66991863D01*
X199246389Y-67115556D01*
X199042212Y-67282080D01*
X198874267Y-67485090D01*
X198748953Y-67716854D01*
X198671041Y-67968545D01*
X198643501Y-68230575D01*
X198667380Y-68492965D01*
X198741770Y-68745719D01*
X198863836Y-68979210D01*
X199028930Y-69184546D01*
X199230763Y-69353903D01*
X199461646Y-69480833D01*
X199552542Y-69509667D01*
X199479023Y-69531863D01*
X199246389Y-69655556D01*
X199042212Y-69822080D01*
X198874267Y-70025090D01*
X198748953Y-70256854D01*
X198671041Y-70508545D01*
X198643501Y-70770575D01*
X198667380Y-71032965D01*
X198741770Y-71285719D01*
X198863836Y-71519210D01*
X199028930Y-71724546D01*
X199230763Y-71893903D01*
X199461646Y-72020833D01*
X199552542Y-72049667D01*
X199479023Y-72071863D01*
X199246389Y-72195556D01*
X199042212Y-72362080D01*
X198874267Y-72565090D01*
X198748953Y-72796854D01*
X198671041Y-73048545D01*
X198643501Y-73310575D01*
X198667380Y-73572965D01*
X198741770Y-73825719D01*
X198863836Y-74059210D01*
X199028930Y-74264546D01*
X199230763Y-74433903D01*
X199461646Y-74560833D01*
X199552542Y-74589667D01*
X199479023Y-74611863D01*
X199246389Y-74735556D01*
X199042212Y-74902080D01*
X198874267Y-75105090D01*
X198748953Y-75336854D01*
X198671041Y-75588545D01*
X198643501Y-75850575D01*
X198667380Y-76112965D01*
X198741770Y-76365719D01*
X198863836Y-76599210D01*
X199028930Y-76804546D01*
X199230763Y-76973903D01*
X199461646Y-77100833D01*
X199552542Y-77129667D01*
X199479023Y-77151863D01*
X199246389Y-77275556D01*
X199042212Y-77442080D01*
X198874267Y-77645090D01*
X198748953Y-77876854D01*
X198671041Y-78128545D01*
X198643501Y-78390575D01*
X198667380Y-78652965D01*
X198741770Y-78905719D01*
X198863836Y-79139210D01*
X199028930Y-79344546D01*
X199230763Y-79513903D01*
X199461646Y-79640833D01*
X199552542Y-79669667D01*
X199479023Y-79691863D01*
X199246389Y-79815556D01*
X199042212Y-79982080D01*
X198874267Y-80185090D01*
X198748953Y-80416854D01*
X198671041Y-80668545D01*
X198643501Y-80930575D01*
X198667380Y-81192965D01*
X198741770Y-81445719D01*
X198863836Y-81679210D01*
X199028930Y-81884546D01*
X199230763Y-82053903D01*
X199409315Y-82152063D01*
X199353700Y-82173065D01*
X199111148Y-82324264D01*
X198902754Y-82519878D01*
X198736527Y-82752389D01*
X198618854Y-83012861D01*
X198592097Y-83101090D01*
X198703111Y-83326000D01*
X199846000Y-83326000D01*
X199846000Y-83306000D01*
X200154000Y-83306000D01*
X200154000Y-83326000D01*
X200174000Y-83326000D01*
X200174000Y-83634000D01*
X200154000Y-83634000D01*
X200154000Y-83654000D01*
X199846000Y-83654000D01*
X199846000Y-83634000D01*
X198703111Y-83634000D01*
X198592097Y-83858910D01*
X198618854Y-83947139D01*
X198736527Y-84207611D01*
X198902754Y-84440122D01*
X199111148Y-84635736D01*
X199353700Y-84786935D01*
X199410404Y-84808348D01*
X199246389Y-84895556D01*
X199042212Y-85062080D01*
X198874267Y-85265090D01*
X198748953Y-85496854D01*
X198671041Y-85748545D01*
X198643501Y-86010575D01*
X198667380Y-86272965D01*
X198741770Y-86525719D01*
X198863836Y-86759210D01*
X199028930Y-86964546D01*
X199230763Y-87133903D01*
X199461646Y-87260833D01*
X199552542Y-87289667D01*
X199479023Y-87311863D01*
X199246389Y-87435556D01*
X199042212Y-87602080D01*
X198874267Y-87805090D01*
X198748953Y-88036854D01*
X198671041Y-88288545D01*
X198643501Y-88550575D01*
X198667380Y-88812965D01*
X198741770Y-89065719D01*
X198863836Y-89299210D01*
X199028930Y-89504546D01*
X199230763Y-89673903D01*
X199461646Y-89800833D01*
X199552542Y-89829667D01*
X199479023Y-89851863D01*
X199246389Y-89975556D01*
X199042212Y-90142080D01*
X198874267Y-90345090D01*
X198748953Y-90576854D01*
X198671041Y-90828545D01*
X198643501Y-91090575D01*
X198667380Y-91352965D01*
X198741770Y-91605719D01*
X198863836Y-91839210D01*
X199028930Y-92044546D01*
X199230763Y-92213903D01*
X199461646Y-92340833D01*
X199552542Y-92369667D01*
X199479023Y-92391863D01*
X199246389Y-92515556D01*
X199042212Y-92682080D01*
X198874267Y-92885090D01*
X198748953Y-93116854D01*
X198671041Y-93368545D01*
X198643501Y-93630575D01*
X198667380Y-93892965D01*
X198741770Y-94145719D01*
X198863836Y-94379210D01*
X199028930Y-94584546D01*
X199230763Y-94753903D01*
X199461646Y-94880833D01*
X199552542Y-94909667D01*
X199479023Y-94931863D01*
X199246389Y-95055556D01*
X199042212Y-95222080D01*
X198874267Y-95425090D01*
X198748953Y-95656854D01*
X198671041Y-95908545D01*
X198643501Y-96170575D01*
X198667380Y-96432965D01*
X198741770Y-96685719D01*
X198863836Y-96919210D01*
X199028930Y-97124546D01*
X199230763Y-97293903D01*
X199461646Y-97420833D01*
X199552542Y-97449667D01*
X199479023Y-97471863D01*
X199246389Y-97595556D01*
X199042212Y-97762080D01*
X198874267Y-97965090D01*
X198748953Y-98196854D01*
X198671041Y-98448545D01*
X198643501Y-98710575D01*
X198667380Y-98972965D01*
X198741770Y-99225719D01*
X198863836Y-99459210D01*
X199028930Y-99664546D01*
X199230763Y-99833903D01*
X199409315Y-99932063D01*
X199353700Y-99953065D01*
X199111148Y-100104264D01*
X198902754Y-100299878D01*
X198736527Y-100532389D01*
X198618854Y-100792861D01*
X198592097Y-100881090D01*
X198703110Y-101105998D01*
X198575000Y-101105998D01*
X198575000Y-100000000D01*
X198569720Y-99946147D01*
X198564815Y-99892256D01*
X198564246Y-99890322D01*
X198564049Y-99888315D01*
X198548416Y-99836537D01*
X198533131Y-99784601D01*
X198532196Y-99782812D01*
X198531614Y-99780885D01*
X198506209Y-99733105D01*
X198481139Y-99685151D01*
X198479878Y-99683582D01*
X198478930Y-99681800D01*
X198444703Y-99639833D01*
X198410822Y-99597694D01*
X198409278Y-99596399D01*
X198408003Y-99594835D01*
X198366259Y-99560301D01*
X198324856Y-99525560D01*
X198323092Y-99524590D01*
X198321536Y-99523303D01*
X198273949Y-99497573D01*
X198226517Y-99471497D01*
X198224591Y-99470886D01*
X198222821Y-99469929D01*
X198171165Y-99453938D01*
X198119549Y-99437565D01*
X198117547Y-99437340D01*
X198115620Y-99436744D01*
X198061795Y-99431087D01*
X198008028Y-99425056D01*
X198004157Y-99425029D01*
X198004014Y-99425014D01*
X198003871Y-99425027D01*
X198000000Y-99425000D01*
X152575000Y-99425000D01*
X152575000Y-96179308D01*
X153178291Y-96179308D01*
X153224313Y-96430062D01*
X153318164Y-96667102D01*
X153456269Y-96881399D01*
X153633367Y-97064790D01*
X153842714Y-97210289D01*
X154076334Y-97312356D01*
X154325330Y-97367101D01*
X154580217Y-97372440D01*
X154831287Y-97328170D01*
X155068977Y-97235976D01*
X155284232Y-97099371D01*
X155468855Y-96923557D01*
X155615813Y-96715231D01*
X155671113Y-96591024D01*
X155842714Y-96710289D01*
X156076334Y-96812356D01*
X156325330Y-96867101D01*
X156580217Y-96872440D01*
X156831287Y-96828170D01*
X157068977Y-96735976D01*
X157284232Y-96599371D01*
X157387764Y-96500778D01*
X157827174Y-96500778D01*
X157903287Y-96915488D01*
X158058502Y-97307516D01*
X158286906Y-97661930D01*
X158579800Y-97965230D01*
X158926027Y-98205863D01*
X159312399Y-98374665D01*
X159724200Y-98465206D01*
X160145744Y-98474036D01*
X160560975Y-98400819D01*
X160954077Y-98248345D01*
X161310077Y-98022421D01*
X161615414Y-97731652D01*
X161858459Y-97387113D01*
X162029955Y-97001929D01*
X162123368Y-96590770D01*
X162130092Y-96109182D01*
X162048196Y-95695575D01*
X162041492Y-95679308D01*
X162178291Y-95679308D01*
X162224313Y-95930062D01*
X162318164Y-96167102D01*
X162456269Y-96381399D01*
X162633367Y-96564790D01*
X162842714Y-96710289D01*
X163076334Y-96812356D01*
X163325330Y-96867101D01*
X163580217Y-96872440D01*
X163831287Y-96828170D01*
X164068977Y-96735976D01*
X164284232Y-96599371D01*
X164289399Y-96594450D01*
X164318164Y-96667102D01*
X164456269Y-96881399D01*
X164633367Y-97064790D01*
X164842714Y-97210289D01*
X165076334Y-97312356D01*
X165325330Y-97367101D01*
X165580217Y-97372440D01*
X165831287Y-97328170D01*
X166068977Y-97235976D01*
X166284232Y-97099371D01*
X166468855Y-96923557D01*
X166615813Y-96715231D01*
X166719507Y-96482329D01*
X166775990Y-96233722D01*
X166780056Y-95942528D01*
X166730537Y-95692441D01*
X166633386Y-95456734D01*
X166492302Y-95244386D01*
X166312661Y-95063486D01*
X166101303Y-94920924D01*
X165866280Y-94822129D01*
X165616544Y-94770866D01*
X165361608Y-94769086D01*
X165111180Y-94816858D01*
X164874801Y-94912361D01*
X164670264Y-95046207D01*
X164633386Y-94956734D01*
X164492302Y-94744386D01*
X164312661Y-94563486D01*
X164101303Y-94420924D01*
X163866280Y-94322129D01*
X163616544Y-94270866D01*
X163361608Y-94269086D01*
X163111180Y-94316858D01*
X162874801Y-94412361D01*
X162661474Y-94551959D01*
X162479324Y-94730333D01*
X162335289Y-94940690D01*
X162234857Y-95175017D01*
X162181851Y-95424389D01*
X162178291Y-95679308D01*
X162041492Y-95679308D01*
X161887523Y-95305752D01*
X161654192Y-94954562D01*
X161357093Y-94655381D01*
X161007540Y-94419605D01*
X160618849Y-94256214D01*
X160205824Y-94171432D01*
X159784197Y-94168488D01*
X159370029Y-94247495D01*
X158979094Y-94405443D01*
X158626283Y-94636316D01*
X158325035Y-94931320D01*
X158086824Y-95279218D01*
X157920724Y-95666759D01*
X157833061Y-96079182D01*
X157827174Y-96500778D01*
X157387764Y-96500778D01*
X157468855Y-96423557D01*
X157615813Y-96215231D01*
X157719507Y-95982329D01*
X157775990Y-95733722D01*
X157780056Y-95442528D01*
X157730537Y-95192441D01*
X157633386Y-94956734D01*
X157492302Y-94744386D01*
X157312661Y-94563486D01*
X157101303Y-94420924D01*
X156866280Y-94322129D01*
X156616544Y-94270866D01*
X156361608Y-94269086D01*
X156111180Y-94316858D01*
X155874801Y-94412361D01*
X155661474Y-94551959D01*
X155479324Y-94730333D01*
X155335289Y-94940690D01*
X155289387Y-95047788D01*
X155101303Y-94920924D01*
X154866280Y-94822129D01*
X154616544Y-94770866D01*
X154361608Y-94769086D01*
X154111180Y-94816858D01*
X153874801Y-94912361D01*
X153661474Y-95051959D01*
X153479324Y-95230333D01*
X153335289Y-95440690D01*
X153234857Y-95675017D01*
X153181851Y-95924389D01*
X153178291Y-96179308D01*
X152575000Y-96179308D01*
X152575000Y-93351002D01*
X155416787Y-93351002D01*
X155540575Y-93625008D01*
X155861993Y-93778403D01*
X156207160Y-93866143D01*
X156562813Y-93884860D01*
X156915283Y-93833832D01*
X157251026Y-93715021D01*
X157419425Y-93625008D01*
X157543213Y-93351002D01*
X162416787Y-93351002D01*
X162540575Y-93625008D01*
X162861993Y-93778403D01*
X163207160Y-93866143D01*
X163562813Y-93884860D01*
X163915283Y-93833832D01*
X164251026Y-93715021D01*
X164419425Y-93625008D01*
X164543213Y-93351002D01*
X163480000Y-92287789D01*
X162416787Y-93351002D01*
X157543213Y-93351002D01*
X156480000Y-92287789D01*
X155416787Y-93351002D01*
X152575000Y-93351002D01*
X152575000Y-92152813D01*
X154665140Y-92152813D01*
X154716168Y-92505283D01*
X154834979Y-92841026D01*
X154924992Y-93009425D01*
X155198998Y-93133213D01*
X156262211Y-92070000D01*
X156697789Y-92070000D01*
X157761002Y-93133213D01*
X158035008Y-93009425D01*
X158188403Y-92688007D01*
X158276143Y-92342840D01*
X158286143Y-92152813D01*
X161665140Y-92152813D01*
X161716168Y-92505283D01*
X161834979Y-92841026D01*
X161924992Y-93009425D01*
X162198998Y-93133213D01*
X163262211Y-92070000D01*
X163697789Y-92070000D01*
X164761002Y-93133213D01*
X165035008Y-93009425D01*
X165188403Y-92688007D01*
X165276143Y-92342840D01*
X165294860Y-91987187D01*
X165243832Y-91634717D01*
X165125021Y-91298974D01*
X165035008Y-91130575D01*
X164761002Y-91006787D01*
X163697789Y-92070000D01*
X163262211Y-92070000D01*
X162198998Y-91006787D01*
X161924992Y-91130575D01*
X161771597Y-91451993D01*
X161683857Y-91797160D01*
X161665140Y-92152813D01*
X158286143Y-92152813D01*
X158294860Y-91987187D01*
X158243832Y-91634717D01*
X158125021Y-91298974D01*
X158035008Y-91130575D01*
X157761002Y-91006787D01*
X156697789Y-92070000D01*
X156262211Y-92070000D01*
X155198998Y-91006787D01*
X154924992Y-91130575D01*
X154771597Y-91451993D01*
X154683857Y-91797160D01*
X154665140Y-92152813D01*
X152575000Y-92152813D01*
X152575000Y-89851002D01*
X155416787Y-89851002D01*
X155540575Y-90125008D01*
X155861993Y-90278403D01*
X156013992Y-90317041D01*
X155708974Y-90424979D01*
X155540575Y-90514992D01*
X155416787Y-90788998D01*
X156480000Y-91852211D01*
X157543213Y-90788998D01*
X157419425Y-90514992D01*
X157098007Y-90361597D01*
X156946008Y-90322959D01*
X157251026Y-90215021D01*
X157419425Y-90125008D01*
X157543213Y-89851002D01*
X156480000Y-88787789D01*
X155416787Y-89851002D01*
X152575000Y-89851002D01*
X152575000Y-88652813D01*
X154665140Y-88652813D01*
X154716168Y-89005283D01*
X154834979Y-89341026D01*
X154924992Y-89509425D01*
X155198998Y-89633213D01*
X156262211Y-88570000D01*
X156697789Y-88570000D01*
X157761002Y-89633213D01*
X158035008Y-89509425D01*
X158188403Y-89188007D01*
X158276143Y-88842840D01*
X158282979Y-88712941D01*
X161777765Y-88712941D01*
X161837948Y-89040851D01*
X161960676Y-89350827D01*
X162141274Y-89631061D01*
X162372865Y-89870880D01*
X162646625Y-90061148D01*
X162952129Y-90194619D01*
X163277739Y-90266209D01*
X163315295Y-90266996D01*
X163044717Y-90306168D01*
X162708974Y-90424979D01*
X162540575Y-90514992D01*
X162416787Y-90788998D01*
X163480000Y-91852211D01*
X164543213Y-90788998D01*
X164419425Y-90514992D01*
X164098007Y-90361597D01*
X163752840Y-90273857D01*
X163640735Y-90267957D01*
X163939376Y-90215299D01*
X164250201Y-90094738D01*
X164531689Y-89916100D01*
X164773119Y-89686190D01*
X164965294Y-89413764D01*
X165100895Y-89109200D01*
X165174756Y-88784097D01*
X165180073Y-88403306D01*
X165115318Y-88076268D01*
X164988274Y-87768036D01*
X164803780Y-87490351D01*
X164568864Y-87253789D01*
X164292474Y-87067361D01*
X163985136Y-86938169D01*
X163658558Y-86871132D01*
X163325179Y-86868804D01*
X162997697Y-86931275D01*
X162688586Y-87056164D01*
X162409619Y-87238715D01*
X162171423Y-87471973D01*
X161983070Y-87747056D01*
X161851735Y-88053484D01*
X161782420Y-88379586D01*
X161777765Y-88712941D01*
X158282979Y-88712941D01*
X158294860Y-88487187D01*
X158243832Y-88134717D01*
X158125021Y-87798974D01*
X158035008Y-87630575D01*
X157761002Y-87506787D01*
X156697789Y-88570000D01*
X156262211Y-88570000D01*
X155198998Y-87506787D01*
X154924992Y-87630575D01*
X154771597Y-87951993D01*
X154683857Y-88297160D01*
X154665140Y-88652813D01*
X152575000Y-88652813D01*
X152575000Y-86351002D01*
X155416787Y-86351002D01*
X155540575Y-86625008D01*
X155861993Y-86778403D01*
X156013992Y-86817041D01*
X155708974Y-86924979D01*
X155540575Y-87014992D01*
X155416787Y-87288998D01*
X156480000Y-88352211D01*
X157543213Y-87288998D01*
X157419425Y-87014992D01*
X157098007Y-86861597D01*
X156946008Y-86822959D01*
X157251026Y-86715021D01*
X157419425Y-86625008D01*
X157543213Y-86351002D01*
X156480000Y-85287789D01*
X155416787Y-86351002D01*
X152575000Y-86351002D01*
X152575000Y-85152813D01*
X154665140Y-85152813D01*
X154716168Y-85505283D01*
X154834979Y-85841026D01*
X154924992Y-86009425D01*
X155198998Y-86133213D01*
X156262211Y-85070000D01*
X156697789Y-85070000D01*
X157761002Y-86133213D01*
X158035008Y-86009425D01*
X158188403Y-85688007D01*
X158276143Y-85342840D01*
X158282979Y-85212941D01*
X161777765Y-85212941D01*
X161837948Y-85540851D01*
X161960676Y-85850827D01*
X162141274Y-86131061D01*
X162372865Y-86370880D01*
X162646625Y-86561148D01*
X162952129Y-86694619D01*
X163277739Y-86766209D01*
X163611053Y-86773191D01*
X163939376Y-86715299D01*
X164250201Y-86594738D01*
X164531689Y-86416100D01*
X164773119Y-86186190D01*
X164965294Y-85913764D01*
X165100895Y-85609200D01*
X165174756Y-85284097D01*
X165180073Y-84903306D01*
X165115318Y-84576268D01*
X164988274Y-84268036D01*
X164803780Y-83990351D01*
X164568864Y-83753789D01*
X164292474Y-83567361D01*
X163985136Y-83438169D01*
X163658558Y-83371132D01*
X163325179Y-83368804D01*
X162997697Y-83431275D01*
X162688586Y-83556164D01*
X162409619Y-83738715D01*
X162171423Y-83971973D01*
X161983070Y-84247056D01*
X161851735Y-84553484D01*
X161782420Y-84879586D01*
X161777765Y-85212941D01*
X158282979Y-85212941D01*
X158294860Y-84987187D01*
X158243832Y-84634717D01*
X158125021Y-84298974D01*
X158035008Y-84130575D01*
X157761002Y-84006787D01*
X156697789Y-85070000D01*
X156262211Y-85070000D01*
X155198998Y-84006787D01*
X154924992Y-84130575D01*
X154771597Y-84451993D01*
X154683857Y-84797160D01*
X154665140Y-85152813D01*
X152575000Y-85152813D01*
X152575000Y-82851002D01*
X155416787Y-82851002D01*
X155540575Y-83125008D01*
X155861993Y-83278403D01*
X156013992Y-83317041D01*
X155708974Y-83424979D01*
X155540575Y-83514992D01*
X155416787Y-83788998D01*
X156480000Y-84852211D01*
X157543213Y-83788998D01*
X157419425Y-83514992D01*
X157098007Y-83361597D01*
X156946008Y-83322959D01*
X157251026Y-83215021D01*
X157419425Y-83125008D01*
X157543213Y-82851002D01*
X156480000Y-81787789D01*
X155416787Y-82851002D01*
X152575000Y-82851002D01*
X152575000Y-81652813D01*
X154665140Y-81652813D01*
X154716168Y-82005283D01*
X154834979Y-82341026D01*
X154924992Y-82509425D01*
X155198998Y-82633213D01*
X156262211Y-81570000D01*
X156697789Y-81570000D01*
X157761002Y-82633213D01*
X158035008Y-82509425D01*
X158188403Y-82188007D01*
X158276143Y-81842840D01*
X158282979Y-81712941D01*
X161777765Y-81712941D01*
X161837948Y-82040851D01*
X161960676Y-82350827D01*
X162141274Y-82631061D01*
X162372865Y-82870880D01*
X162646625Y-83061148D01*
X162952129Y-83194619D01*
X163277739Y-83266209D01*
X163611053Y-83273191D01*
X163939376Y-83215299D01*
X164250201Y-83094738D01*
X164531689Y-82916100D01*
X164773119Y-82686190D01*
X164965294Y-82413764D01*
X165100895Y-82109200D01*
X165174756Y-81784097D01*
X165180073Y-81403306D01*
X165115318Y-81076268D01*
X164988274Y-80768036D01*
X164803780Y-80490351D01*
X164568864Y-80253789D01*
X164292474Y-80067361D01*
X163985136Y-79938169D01*
X163658558Y-79871132D01*
X163325179Y-79868804D01*
X162997697Y-79931275D01*
X162688586Y-80056164D01*
X162409619Y-80238715D01*
X162171423Y-80471973D01*
X161983070Y-80747056D01*
X161851735Y-81053484D01*
X161782420Y-81379586D01*
X161777765Y-81712941D01*
X158282979Y-81712941D01*
X158294860Y-81487187D01*
X158243832Y-81134717D01*
X158125021Y-80798974D01*
X158035008Y-80630575D01*
X157761002Y-80506787D01*
X156697789Y-81570000D01*
X156262211Y-81570000D01*
X155198998Y-80506787D01*
X154924992Y-80630575D01*
X154771597Y-80951993D01*
X154683857Y-81297160D01*
X154665140Y-81652813D01*
X152575000Y-81652813D01*
X152575000Y-79351002D01*
X155416787Y-79351002D01*
X155540575Y-79625008D01*
X155861993Y-79778403D01*
X156013992Y-79817041D01*
X155708974Y-79924979D01*
X155540575Y-80014992D01*
X155416787Y-80288998D01*
X156480000Y-81352211D01*
X157543213Y-80288998D01*
X157419425Y-80014992D01*
X157098007Y-79861597D01*
X156946008Y-79822959D01*
X157251026Y-79715021D01*
X157419425Y-79625008D01*
X157543213Y-79351002D01*
X156480000Y-78287789D01*
X155416787Y-79351002D01*
X152575000Y-79351002D01*
X152575000Y-78152813D01*
X154665140Y-78152813D01*
X154716168Y-78505283D01*
X154834979Y-78841026D01*
X154924992Y-79009425D01*
X155198998Y-79133213D01*
X156262211Y-78070000D01*
X156697789Y-78070000D01*
X157761002Y-79133213D01*
X158035008Y-79009425D01*
X158188403Y-78688007D01*
X158276143Y-78342840D01*
X158282979Y-78212941D01*
X161777765Y-78212941D01*
X161837948Y-78540851D01*
X161960676Y-78850827D01*
X162141274Y-79131061D01*
X162372865Y-79370880D01*
X162646625Y-79561148D01*
X162952129Y-79694619D01*
X163277739Y-79766209D01*
X163611053Y-79773191D01*
X163939376Y-79715299D01*
X164250201Y-79594738D01*
X164531689Y-79416100D01*
X164773119Y-79186190D01*
X164965294Y-78913764D01*
X165100895Y-78609200D01*
X165174756Y-78284097D01*
X165180073Y-77903306D01*
X165115318Y-77576268D01*
X164988274Y-77268036D01*
X164803780Y-76990351D01*
X164568864Y-76753789D01*
X164292474Y-76567361D01*
X163985136Y-76438169D01*
X163658558Y-76371132D01*
X163325179Y-76368804D01*
X162997697Y-76431275D01*
X162688586Y-76556164D01*
X162409619Y-76738715D01*
X162171423Y-76971973D01*
X161983070Y-77247056D01*
X161851735Y-77553484D01*
X161782420Y-77879586D01*
X161777765Y-78212941D01*
X158282979Y-78212941D01*
X158294860Y-77987187D01*
X158243832Y-77634717D01*
X158125021Y-77298974D01*
X158035008Y-77130575D01*
X157761002Y-77006787D01*
X156697789Y-78070000D01*
X156262211Y-78070000D01*
X155198998Y-77006787D01*
X154924992Y-77130575D01*
X154771597Y-77451993D01*
X154683857Y-77797160D01*
X154665140Y-78152813D01*
X152575000Y-78152813D01*
X152575000Y-75851002D01*
X155416787Y-75851002D01*
X155540575Y-76125008D01*
X155861993Y-76278403D01*
X156013992Y-76317041D01*
X155708974Y-76424979D01*
X155540575Y-76514992D01*
X155416787Y-76788998D01*
X156480000Y-77852211D01*
X157543213Y-76788998D01*
X157419425Y-76514992D01*
X157098007Y-76361597D01*
X156946008Y-76322959D01*
X157251026Y-76215021D01*
X157419425Y-76125008D01*
X157543213Y-75851002D01*
X156480000Y-74787789D01*
X155416787Y-75851002D01*
X152575000Y-75851002D01*
X152575000Y-74652813D01*
X154665140Y-74652813D01*
X154716168Y-75005283D01*
X154834979Y-75341026D01*
X154924992Y-75509425D01*
X155198998Y-75633213D01*
X156262211Y-74570000D01*
X156697789Y-74570000D01*
X157761002Y-75633213D01*
X158035008Y-75509425D01*
X158188403Y-75188007D01*
X158276143Y-74842840D01*
X158282979Y-74712941D01*
X161777765Y-74712941D01*
X161837948Y-75040851D01*
X161960676Y-75350827D01*
X162141274Y-75631061D01*
X162372865Y-75870880D01*
X162646625Y-76061148D01*
X162952129Y-76194619D01*
X163277739Y-76266209D01*
X163611053Y-76273191D01*
X163939376Y-76215299D01*
X164250201Y-76094738D01*
X164531689Y-75916100D01*
X164773119Y-75686190D01*
X164965294Y-75413764D01*
X165100895Y-75109200D01*
X165174756Y-74784097D01*
X165180073Y-74403306D01*
X165115318Y-74076268D01*
X164988274Y-73768036D01*
X164803780Y-73490351D01*
X164568864Y-73253789D01*
X164292474Y-73067361D01*
X163985136Y-72938169D01*
X163658558Y-72871132D01*
X163325179Y-72868804D01*
X162997697Y-72931275D01*
X162688586Y-73056164D01*
X162409619Y-73238715D01*
X162171423Y-73471973D01*
X161983070Y-73747056D01*
X161851735Y-74053484D01*
X161782420Y-74379586D01*
X161777765Y-74712941D01*
X158282979Y-74712941D01*
X158294860Y-74487187D01*
X158243832Y-74134717D01*
X158125021Y-73798974D01*
X158035008Y-73630575D01*
X157761002Y-73506787D01*
X156697789Y-74570000D01*
X156262211Y-74570000D01*
X155198998Y-73506787D01*
X154924992Y-73630575D01*
X154771597Y-73951993D01*
X154683857Y-74297160D01*
X154665140Y-74652813D01*
X152575000Y-74652813D01*
X152575000Y-72351002D01*
X155416787Y-72351002D01*
X155540575Y-72625008D01*
X155861993Y-72778403D01*
X156013992Y-72817041D01*
X155708974Y-72924979D01*
X155540575Y-73014992D01*
X155416787Y-73288998D01*
X156480000Y-74352211D01*
X157543213Y-73288998D01*
X157419425Y-73014992D01*
X157098007Y-72861597D01*
X156946008Y-72822959D01*
X157251026Y-72715021D01*
X157419425Y-72625008D01*
X157543213Y-72351002D01*
X156480000Y-71287789D01*
X155416787Y-72351002D01*
X152575000Y-72351002D01*
X152575000Y-71152813D01*
X154665140Y-71152813D01*
X154716168Y-71505283D01*
X154834979Y-71841026D01*
X154924992Y-72009425D01*
X155198998Y-72133213D01*
X156262211Y-71070000D01*
X156697789Y-71070000D01*
X157761002Y-72133213D01*
X158035008Y-72009425D01*
X158188403Y-71688007D01*
X158276143Y-71342840D01*
X158282979Y-71212941D01*
X161777765Y-71212941D01*
X161837948Y-71540851D01*
X161960676Y-71850827D01*
X162141274Y-72131061D01*
X162372865Y-72370880D01*
X162646625Y-72561148D01*
X162952129Y-72694619D01*
X163277739Y-72766209D01*
X163611053Y-72773191D01*
X163939376Y-72715299D01*
X164250201Y-72594738D01*
X164531689Y-72416100D01*
X164773119Y-72186190D01*
X164965294Y-71913764D01*
X165100895Y-71609200D01*
X165174756Y-71284097D01*
X165180073Y-70903306D01*
X165115318Y-70576268D01*
X164988274Y-70268036D01*
X164803780Y-69990351D01*
X164568864Y-69753789D01*
X164292474Y-69567361D01*
X163985136Y-69438169D01*
X163658558Y-69371132D01*
X163325179Y-69368804D01*
X162997697Y-69431275D01*
X162688586Y-69556164D01*
X162409619Y-69738715D01*
X162171423Y-69971973D01*
X161983070Y-70247056D01*
X161851735Y-70553484D01*
X161782420Y-70879586D01*
X161777765Y-71212941D01*
X158282979Y-71212941D01*
X158294860Y-70987187D01*
X158243832Y-70634717D01*
X158125021Y-70298974D01*
X158035008Y-70130575D01*
X157761002Y-70006787D01*
X156697789Y-71070000D01*
X156262211Y-71070000D01*
X155198998Y-70006787D01*
X154924992Y-70130575D01*
X154771597Y-70451993D01*
X154683857Y-70797160D01*
X154665140Y-71152813D01*
X152575000Y-71152813D01*
X152575000Y-68851002D01*
X155416787Y-68851002D01*
X155540575Y-69125008D01*
X155861993Y-69278403D01*
X156013992Y-69317041D01*
X155708974Y-69424979D01*
X155540575Y-69514992D01*
X155416787Y-69788998D01*
X156480000Y-70852211D01*
X157543213Y-69788998D01*
X157419425Y-69514992D01*
X157098007Y-69361597D01*
X156946008Y-69322959D01*
X157251026Y-69215021D01*
X157419425Y-69125008D01*
X157543213Y-68851002D01*
X156480000Y-67787789D01*
X155416787Y-68851002D01*
X152575000Y-68851002D01*
X152575000Y-67652813D01*
X154665140Y-67652813D01*
X154716168Y-68005283D01*
X154834979Y-68341026D01*
X154924992Y-68509425D01*
X155198998Y-68633213D01*
X156262211Y-67570000D01*
X156697789Y-67570000D01*
X157761002Y-68633213D01*
X158035008Y-68509425D01*
X158188403Y-68188007D01*
X158276143Y-67842840D01*
X158282979Y-67712941D01*
X161777765Y-67712941D01*
X161837948Y-68040851D01*
X161960676Y-68350827D01*
X162141274Y-68631061D01*
X162372865Y-68870880D01*
X162646625Y-69061148D01*
X162952129Y-69194619D01*
X163277739Y-69266209D01*
X163611053Y-69273191D01*
X163939376Y-69215299D01*
X164250201Y-69094738D01*
X164531689Y-68916100D01*
X164773119Y-68686190D01*
X164965294Y-68413764D01*
X165100895Y-68109200D01*
X165174756Y-67784097D01*
X165180073Y-67403306D01*
X165115318Y-67076268D01*
X164988274Y-66768036D01*
X164803780Y-66490351D01*
X164568864Y-66253789D01*
X164292474Y-66067361D01*
X163985136Y-65938169D01*
X163658558Y-65871132D01*
X163325179Y-65868804D01*
X162997697Y-65931275D01*
X162688586Y-66056164D01*
X162409619Y-66238715D01*
X162171423Y-66471973D01*
X161983070Y-66747056D01*
X161851735Y-67053484D01*
X161782420Y-67379586D01*
X161777765Y-67712941D01*
X158282979Y-67712941D01*
X158294860Y-67487187D01*
X158243832Y-67134717D01*
X158125021Y-66798974D01*
X158035008Y-66630575D01*
X157761002Y-66506787D01*
X156697789Y-67570000D01*
X156262211Y-67570000D01*
X155198998Y-66506787D01*
X154924992Y-66630575D01*
X154771597Y-66951993D01*
X154683857Y-67297160D01*
X154665140Y-67652813D01*
X152575000Y-67652813D01*
X152575000Y-65351002D01*
X155416787Y-65351002D01*
X155540575Y-65625008D01*
X155861993Y-65778403D01*
X156013992Y-65817041D01*
X155708974Y-65924979D01*
X155540575Y-66014992D01*
X155416787Y-66288998D01*
X156480000Y-67352211D01*
X157543213Y-66288998D01*
X157419425Y-66014992D01*
X157098007Y-65861597D01*
X156946008Y-65822959D01*
X157251026Y-65715021D01*
X157419425Y-65625008D01*
X157543213Y-65351002D01*
X156480000Y-64287789D01*
X155416787Y-65351002D01*
X152575000Y-65351002D01*
X152575000Y-64152813D01*
X154665140Y-64152813D01*
X154716168Y-64505283D01*
X154834979Y-64841026D01*
X154924992Y-65009425D01*
X155198998Y-65133213D01*
X156262211Y-64070000D01*
X156697789Y-64070000D01*
X157761002Y-65133213D01*
X158035008Y-65009425D01*
X158188403Y-64688007D01*
X158276143Y-64342840D01*
X158282979Y-64212941D01*
X161777765Y-64212941D01*
X161837948Y-64540851D01*
X161960676Y-64850827D01*
X162141274Y-65131061D01*
X162372865Y-65370880D01*
X162646625Y-65561148D01*
X162952129Y-65694619D01*
X163277739Y-65766209D01*
X163611053Y-65773191D01*
X163939376Y-65715299D01*
X164250201Y-65594738D01*
X164531689Y-65416100D01*
X164773119Y-65186190D01*
X164965294Y-64913764D01*
X165100895Y-64609200D01*
X165174756Y-64284097D01*
X165180073Y-63903306D01*
X165115318Y-63576268D01*
X164988274Y-63268036D01*
X164803780Y-62990351D01*
X164568864Y-62753789D01*
X164292474Y-62567361D01*
X163985136Y-62438169D01*
X163658558Y-62371132D01*
X163325179Y-62368804D01*
X162997697Y-62431275D01*
X162688586Y-62556164D01*
X162409619Y-62738715D01*
X162171423Y-62971973D01*
X161983070Y-63247056D01*
X161851735Y-63553484D01*
X161782420Y-63879586D01*
X161777765Y-64212941D01*
X158282979Y-64212941D01*
X158294860Y-63987187D01*
X158243832Y-63634717D01*
X158125021Y-63298974D01*
X158035008Y-63130575D01*
X157761002Y-63006787D01*
X156697789Y-64070000D01*
X156262211Y-64070000D01*
X155198998Y-63006787D01*
X154924992Y-63130575D01*
X154771597Y-63451993D01*
X154683857Y-63797160D01*
X154665140Y-64152813D01*
X152575000Y-64152813D01*
X152575000Y-61851002D01*
X155416787Y-61851002D01*
X155540575Y-62125008D01*
X155861993Y-62278403D01*
X156013992Y-62317041D01*
X155708974Y-62424979D01*
X155540575Y-62514992D01*
X155416787Y-62788998D01*
X156480000Y-63852211D01*
X157543213Y-62788998D01*
X157419425Y-62514992D01*
X157098007Y-62361597D01*
X156946008Y-62322959D01*
X157251026Y-62215021D01*
X157419425Y-62125008D01*
X157543213Y-61851002D01*
X156480000Y-60787789D01*
X155416787Y-61851002D01*
X152575000Y-61851002D01*
X152575000Y-60652813D01*
X154665140Y-60652813D01*
X154716168Y-61005283D01*
X154834979Y-61341026D01*
X154924992Y-61509425D01*
X155198998Y-61633213D01*
X156262211Y-60570000D01*
X156697789Y-60570000D01*
X157761002Y-61633213D01*
X158035008Y-61509425D01*
X158188403Y-61188007D01*
X158276143Y-60842840D01*
X158282979Y-60712941D01*
X161777765Y-60712941D01*
X161837948Y-61040851D01*
X161960676Y-61350827D01*
X162141274Y-61631061D01*
X162372865Y-61870880D01*
X162646625Y-62061148D01*
X162952129Y-62194619D01*
X163277739Y-62266209D01*
X163611053Y-62273191D01*
X163939376Y-62215299D01*
X164250201Y-62094738D01*
X164531689Y-61916100D01*
X164773119Y-61686190D01*
X164904461Y-61500000D01*
X169925000Y-61500000D01*
X169925000Y-81500000D01*
X169930280Y-81553853D01*
X169935185Y-81607744D01*
X169935754Y-81609678D01*
X169935951Y-81611685D01*
X169951584Y-81663463D01*
X169966869Y-81715399D01*
X169967804Y-81717188D01*
X169968386Y-81719115D01*
X169993791Y-81766895D01*
X170018861Y-81814849D01*
X170020122Y-81816418D01*
X170021070Y-81818200D01*
X170055297Y-81860167D01*
X170089178Y-81902306D01*
X170090722Y-81903601D01*
X170091997Y-81905165D01*
X170133741Y-81939699D01*
X170175144Y-81974440D01*
X170176908Y-81975410D01*
X170178464Y-81976697D01*
X170226051Y-82002427D01*
X170273483Y-82028503D01*
X170275409Y-82029114D01*
X170277179Y-82030071D01*
X170328835Y-82046062D01*
X170380451Y-82062435D01*
X170382453Y-82062660D01*
X170384380Y-82063256D01*
X170438205Y-82068913D01*
X170491972Y-82074944D01*
X170495843Y-82074971D01*
X170495986Y-82074986D01*
X170496129Y-82074973D01*
X170500000Y-82075000D01*
X190500000Y-82075000D01*
X190553853Y-82069720D01*
X190607744Y-82064815D01*
X190609678Y-82064246D01*
X190611685Y-82064049D01*
X190663463Y-82048416D01*
X190715399Y-82033131D01*
X190717188Y-82032196D01*
X190719115Y-82031614D01*
X190766895Y-82006209D01*
X190814849Y-81981139D01*
X190816418Y-81979878D01*
X190818200Y-81978930D01*
X190860167Y-81944703D01*
X190902306Y-81910822D01*
X190903601Y-81909278D01*
X190905165Y-81908003D01*
X190939699Y-81866259D01*
X190974440Y-81824856D01*
X190975410Y-81823092D01*
X190976697Y-81821536D01*
X191002427Y-81773949D01*
X191028503Y-81726517D01*
X191029114Y-81724591D01*
X191030071Y-81722821D01*
X191046062Y-81671165D01*
X191062435Y-81619549D01*
X191062660Y-81617547D01*
X191063256Y-81615620D01*
X191068913Y-81561795D01*
X191074944Y-81508028D01*
X191074971Y-81504157D01*
X191074986Y-81504014D01*
X191074973Y-81503871D01*
X191075000Y-81500000D01*
X191075000Y-61500000D01*
X191069720Y-61446147D01*
X191064815Y-61392256D01*
X191064246Y-61390322D01*
X191064049Y-61388315D01*
X191048416Y-61336537D01*
X191033131Y-61284601D01*
X191032196Y-61282812D01*
X191031614Y-61280885D01*
X191006209Y-61233105D01*
X190981139Y-61185151D01*
X190979878Y-61183582D01*
X190978930Y-61181800D01*
X190944703Y-61139833D01*
X190910822Y-61097694D01*
X190909278Y-61096399D01*
X190908003Y-61094835D01*
X190866259Y-61060301D01*
X190824856Y-61025560D01*
X190823092Y-61024590D01*
X190821536Y-61023303D01*
X190773949Y-60997573D01*
X190726517Y-60971497D01*
X190724591Y-60970886D01*
X190722821Y-60969929D01*
X190671165Y-60953938D01*
X190619549Y-60937565D01*
X190617547Y-60937340D01*
X190615620Y-60936744D01*
X190561795Y-60931087D01*
X190508028Y-60925056D01*
X190504157Y-60925029D01*
X190504014Y-60925014D01*
X190503871Y-60925027D01*
X190500000Y-60925000D01*
X170500000Y-60925000D01*
X170446147Y-60930280D01*
X170392256Y-60935185D01*
X170390322Y-60935754D01*
X170388315Y-60935951D01*
X170336537Y-60951584D01*
X170284601Y-60966869D01*
X170282812Y-60967804D01*
X170280885Y-60968386D01*
X170233105Y-60993791D01*
X170185151Y-61018861D01*
X170183582Y-61020122D01*
X170181800Y-61021070D01*
X170139833Y-61055297D01*
X170097694Y-61089178D01*
X170096399Y-61090722D01*
X170094835Y-61091997D01*
X170060301Y-61133741D01*
X170025560Y-61175144D01*
X170024590Y-61176908D01*
X170023303Y-61178464D01*
X169997573Y-61226051D01*
X169971497Y-61273483D01*
X169970886Y-61275409D01*
X169969929Y-61277179D01*
X169953938Y-61328835D01*
X169937565Y-61380451D01*
X169937340Y-61382453D01*
X169936744Y-61384380D01*
X169931087Y-61438205D01*
X169925056Y-61491972D01*
X169925029Y-61495843D01*
X169925014Y-61495986D01*
X169925027Y-61496129D01*
X169925000Y-61500000D01*
X164904461Y-61500000D01*
X164965294Y-61413764D01*
X165100895Y-61109200D01*
X165174756Y-60784097D01*
X165180073Y-60403306D01*
X165115318Y-60076268D01*
X164988274Y-59768036D01*
X164803780Y-59490351D01*
X164568864Y-59253789D01*
X164292474Y-59067361D01*
X163985136Y-58938169D01*
X163658558Y-58871132D01*
X163325179Y-58868804D01*
X162997697Y-58931275D01*
X162688586Y-59056164D01*
X162409619Y-59238715D01*
X162171423Y-59471973D01*
X161983070Y-59747056D01*
X161851735Y-60053484D01*
X161782420Y-60379586D01*
X161777765Y-60712941D01*
X158282979Y-60712941D01*
X158294860Y-60487187D01*
X158243832Y-60134717D01*
X158125021Y-59798974D01*
X158035008Y-59630575D01*
X157761002Y-59506787D01*
X156697789Y-60570000D01*
X156262211Y-60570000D01*
X155198998Y-59506787D01*
X154924992Y-59630575D01*
X154771597Y-59951993D01*
X154683857Y-60297160D01*
X154665140Y-60652813D01*
X152575000Y-60652813D01*
X152575000Y-58351002D01*
X155416787Y-58351002D01*
X155540575Y-58625008D01*
X155861993Y-58778403D01*
X156013992Y-58817041D01*
X155708974Y-58924979D01*
X155540575Y-59014992D01*
X155416787Y-59288998D01*
X156480000Y-60352211D01*
X157543213Y-59288998D01*
X157419425Y-59014992D01*
X157098007Y-58861597D01*
X156946008Y-58822959D01*
X157251026Y-58715021D01*
X157419425Y-58625008D01*
X157543213Y-58351002D01*
X156480000Y-57287789D01*
X155416787Y-58351002D01*
X152575000Y-58351002D01*
X152575000Y-57152813D01*
X154665140Y-57152813D01*
X154716168Y-57505283D01*
X154834979Y-57841026D01*
X154924992Y-58009425D01*
X155198998Y-58133213D01*
X156262211Y-57070000D01*
X156697789Y-57070000D01*
X157761002Y-58133213D01*
X158035008Y-58009425D01*
X158188403Y-57688007D01*
X158276143Y-57342840D01*
X158294860Y-56987187D01*
X158243832Y-56634717D01*
X158125021Y-56298974D01*
X158035008Y-56130575D01*
X157761002Y-56006787D01*
X156697789Y-57070000D01*
X156262211Y-57070000D01*
X155198998Y-56006787D01*
X154924992Y-56130575D01*
X154771597Y-56451993D01*
X154683857Y-56797160D01*
X154665140Y-57152813D01*
X152575000Y-57152813D01*
X152575000Y-55788998D01*
X155416787Y-55788998D01*
X156480000Y-56852211D01*
X157462211Y-55870000D01*
X161777581Y-55870000D01*
X161777581Y-58270000D01*
X161787235Y-58368017D01*
X161815825Y-58462267D01*
X161862254Y-58549129D01*
X161924736Y-58625264D01*
X162000871Y-58687746D01*
X162087733Y-58734175D01*
X162181983Y-58762765D01*
X162280000Y-58772419D01*
X164680000Y-58772419D01*
X164778017Y-58762765D01*
X164872267Y-58734175D01*
X164959129Y-58687746D01*
X165035264Y-58625264D01*
X165097746Y-58549129D01*
X165117005Y-58513097D01*
X194044692Y-58513097D01*
X194234794Y-58843407D01*
X194649949Y-59051742D01*
X195097772Y-59175080D01*
X195561052Y-59208683D01*
X196021986Y-59151258D01*
X196462861Y-59005013D01*
X196765206Y-58843407D01*
X196955308Y-58513097D01*
X195500000Y-57057789D01*
X194044692Y-58513097D01*
X165117005Y-58513097D01*
X165144175Y-58462267D01*
X165172765Y-58368017D01*
X165182419Y-58270000D01*
X165182419Y-56901052D01*
X193131317Y-56901052D01*
X193188742Y-57361986D01*
X193334987Y-57802861D01*
X193496593Y-58105206D01*
X193826903Y-58295308D01*
X195282211Y-56840000D01*
X195717789Y-56840000D01*
X197173097Y-58295308D01*
X197503407Y-58105206D01*
X197711742Y-57690051D01*
X197835080Y-57242228D01*
X197868683Y-56778948D01*
X197811258Y-56318014D01*
X197665013Y-55877139D01*
X197503407Y-55574794D01*
X197173097Y-55384692D01*
X195717789Y-56840000D01*
X195282211Y-56840000D01*
X193826903Y-55384692D01*
X193496593Y-55574794D01*
X193288258Y-55989949D01*
X193164920Y-56437772D01*
X193131317Y-56901052D01*
X165182419Y-56901052D01*
X165182419Y-55870000D01*
X165178964Y-55834921D01*
X165325330Y-55867101D01*
X165580217Y-55872440D01*
X165831287Y-55828170D01*
X166068977Y-55735976D01*
X166284232Y-55599371D01*
X166468855Y-55423557D01*
X166615813Y-55215231D01*
X166637329Y-55166903D01*
X194044692Y-55166903D01*
X195500000Y-56622211D01*
X196955308Y-55166903D01*
X196765206Y-54836593D01*
X196350051Y-54628258D01*
X195902228Y-54504920D01*
X195438948Y-54471317D01*
X194978014Y-54528742D01*
X194537139Y-54674987D01*
X194234794Y-54836593D01*
X194044692Y-55166903D01*
X166637329Y-55166903D01*
X166719507Y-54982329D01*
X166775990Y-54733722D01*
X166780056Y-54442528D01*
X166730537Y-54192441D01*
X166633386Y-53956734D01*
X166492302Y-53744386D01*
X166312661Y-53563486D01*
X166101303Y-53420924D01*
X165866280Y-53322129D01*
X165616544Y-53270866D01*
X165361608Y-53269086D01*
X165111180Y-53316858D01*
X164874801Y-53412361D01*
X164779607Y-53474654D01*
X164780056Y-53442528D01*
X164730537Y-53192441D01*
X164633386Y-52956734D01*
X164492302Y-52744386D01*
X164312661Y-52563486D01*
X164101303Y-52420924D01*
X163866280Y-52322129D01*
X163616544Y-52270866D01*
X163361608Y-52269086D01*
X163111180Y-52316858D01*
X162874801Y-52412361D01*
X162661474Y-52551959D01*
X162479324Y-52730333D01*
X162335289Y-52940690D01*
X162234857Y-53175017D01*
X162181851Y-53424389D01*
X162178291Y-53679308D01*
X162224313Y-53930062D01*
X162318164Y-54167102D01*
X162456269Y-54381399D01*
X162633367Y-54564790D01*
X162842714Y-54710289D01*
X163076334Y-54812356D01*
X163325330Y-54867101D01*
X163580217Y-54872440D01*
X163831287Y-54828170D01*
X164068977Y-54735976D01*
X164178470Y-54666490D01*
X164178291Y-54679308D01*
X164224313Y-54930062D01*
X164318164Y-55167102D01*
X164447364Y-55367581D01*
X162280000Y-55367581D01*
X162181983Y-55377235D01*
X162087733Y-55405825D01*
X162000871Y-55452254D01*
X161924736Y-55514736D01*
X161862254Y-55590871D01*
X161815825Y-55677733D01*
X161787235Y-55771983D01*
X161777581Y-55870000D01*
X157462211Y-55870000D01*
X157543213Y-55788998D01*
X157419425Y-55514992D01*
X157098007Y-55361597D01*
X156752840Y-55273857D01*
X156397187Y-55255140D01*
X156044717Y-55306168D01*
X155708974Y-55424979D01*
X155540575Y-55514992D01*
X155416787Y-55788998D01*
X152575000Y-55788998D01*
X152575000Y-53179308D01*
X153178291Y-53179308D01*
X153224313Y-53430062D01*
X153318164Y-53667102D01*
X153456269Y-53881399D01*
X153633367Y-54064790D01*
X153842714Y-54210289D01*
X154076334Y-54312356D01*
X154325330Y-54367101D01*
X154580217Y-54372440D01*
X154831287Y-54328170D01*
X155068977Y-54235976D01*
X155284232Y-54099371D01*
X155289399Y-54094450D01*
X155318164Y-54167102D01*
X155456269Y-54381399D01*
X155633367Y-54564790D01*
X155842714Y-54710289D01*
X156076334Y-54812356D01*
X156325330Y-54867101D01*
X156580217Y-54872440D01*
X156831287Y-54828170D01*
X157068977Y-54735976D01*
X157284232Y-54599371D01*
X157468855Y-54423557D01*
X157615813Y-54215231D01*
X157719507Y-53982329D01*
X157775990Y-53733722D01*
X157780056Y-53442528D01*
X157730537Y-53192441D01*
X157651540Y-53000778D01*
X157827174Y-53000778D01*
X157903287Y-53415488D01*
X158058502Y-53807516D01*
X158286906Y-54161930D01*
X158579800Y-54465230D01*
X158926027Y-54705863D01*
X159312399Y-54874665D01*
X159724200Y-54965206D01*
X160145744Y-54974036D01*
X160560975Y-54900819D01*
X160954077Y-54748345D01*
X161310077Y-54522421D01*
X161615414Y-54231652D01*
X161858459Y-53887113D01*
X162029955Y-53501929D01*
X162123368Y-53090770D01*
X162130092Y-52609182D01*
X162048196Y-52195575D01*
X161887523Y-51805752D01*
X161654192Y-51454562D01*
X161357093Y-51155381D01*
X161007540Y-50919605D01*
X160618849Y-50756214D01*
X160205824Y-50671432D01*
X159784197Y-50668488D01*
X159370029Y-50747495D01*
X158979094Y-50905443D01*
X158626283Y-51136316D01*
X158325035Y-51431320D01*
X158086824Y-51779218D01*
X157920724Y-52166759D01*
X157833061Y-52579182D01*
X157827174Y-53000778D01*
X157651540Y-53000778D01*
X157633386Y-52956734D01*
X157492302Y-52744386D01*
X157312661Y-52563486D01*
X157101303Y-52420924D01*
X156866280Y-52322129D01*
X156616544Y-52270866D01*
X156361608Y-52269086D01*
X156111180Y-52316858D01*
X155874801Y-52412361D01*
X155670264Y-52546207D01*
X155633386Y-52456734D01*
X155492302Y-52244386D01*
X155312661Y-52063486D01*
X155101303Y-51920924D01*
X154866280Y-51822129D01*
X154616544Y-51770866D01*
X154361608Y-51769086D01*
X154111180Y-51816858D01*
X153874801Y-51912361D01*
X153661474Y-52051959D01*
X153479324Y-52230333D01*
X153335289Y-52440690D01*
X153234857Y-52675017D01*
X153181851Y-52924389D01*
X153178291Y-53179308D01*
X152575000Y-53179308D01*
X152575000Y-49600000D01*
X193461299Y-49600000D01*
X193394676Y-49654676D01*
X193394676Y-49654676D01*
G37*
X193394676Y-49654676D02*
X193332194Y-49730811D01*
X193285765Y-49817673D01*
X193257175Y-49911923D01*
X193247521Y-50009940D01*
X193247521Y-53510060D01*
X193257175Y-53608077D01*
X193285765Y-53702327D01*
X193332194Y-53789189D01*
X193394676Y-53865324D01*
X193470811Y-53927806D01*
X193557673Y-53974235D01*
X193651923Y-54002825D01*
X193749940Y-54012479D01*
X197250060Y-54012479D01*
X197348077Y-54002825D01*
X197442327Y-53974235D01*
X197529189Y-53927806D01*
X197605324Y-53865324D01*
X197667806Y-53789189D01*
X197714235Y-53702327D01*
X197742825Y-53608077D01*
X197752479Y-53510060D01*
X197752479Y-51545348D01*
X197763635Y-51551481D01*
X197765639Y-51552117D01*
X197767491Y-51553118D01*
X197821413Y-51569809D01*
X197875253Y-51586889D01*
X197877346Y-51587124D01*
X197879353Y-51587745D01*
X197935413Y-51593637D01*
X197991623Y-51599942D01*
X197995668Y-51599970D01*
X197995811Y-51599985D01*
X197995954Y-51599972D01*
X198000000Y-51600000D01*
X204425000Y-51600000D01*
X204425000Y-102425000D01*
X203217336Y-102425000D01*
X203293611Y-102384444D01*
X203497788Y-102217920D01*
X203665733Y-102014910D01*
X203791047Y-101783146D01*
X203868959Y-101531455D01*
X203896499Y-101269425D01*
X203872620Y-101007035D01*
X203798230Y-100754281D01*
X203676164Y-100520790D01*
X203511070Y-100315454D01*
X203309237Y-100146097D01*
X203078354Y-100019167D01*
X202987458Y-99990333D01*
X203060977Y-99968137D01*
X203293611Y-99844444D01*
X203497788Y-99677920D01*
X203665733Y-99474910D01*
X203791047Y-99243146D01*
X203868959Y-98991455D01*
X203896499Y-98729425D01*
X203872620Y-98467035D01*
X203798230Y-98214281D01*
X203676164Y-97980790D01*
X203511070Y-97775454D01*
X203309237Y-97606097D01*
X203078354Y-97479167D01*
X202987458Y-97450333D01*
X203060977Y-97428137D01*
X203293611Y-97304444D01*
X203497788Y-97137920D01*
X203665733Y-96934910D01*
X203791047Y-96703146D01*
X203868959Y-96451455D01*
X203896499Y-96189425D01*
X203872620Y-95927035D01*
X203798230Y-95674281D01*
X203676164Y-95440790D01*
X203511070Y-95235454D01*
X203309237Y-95066097D01*
X203130685Y-94967937D01*
X203186300Y-94946935D01*
X203428852Y-94795736D01*
X203637246Y-94600122D01*
X203803473Y-94367611D01*
X203921146Y-94107139D01*
X203947903Y-94018910D01*
X203836889Y-93794000D01*
X202694000Y-93794000D01*
X202694000Y-93814000D01*
X202386000Y-93814000D01*
X202386000Y-93794000D01*
X202366000Y-93794000D01*
X202366000Y-93486000D01*
X202386000Y-93486000D01*
X202386000Y-93466000D01*
X202694000Y-93466000D01*
X202694000Y-93486000D01*
X203836889Y-93486000D01*
X203947903Y-93261090D01*
X203921146Y-93172861D01*
X203803473Y-92912389D01*
X203637246Y-92679878D01*
X203428852Y-92484264D01*
X203186300Y-92333065D01*
X203129596Y-92311652D01*
X203293611Y-92224444D01*
X203497788Y-92057920D01*
X203665733Y-91854910D01*
X203791047Y-91623146D01*
X203868959Y-91371455D01*
X203896499Y-91109425D01*
X203872620Y-90847035D01*
X203798230Y-90594281D01*
X203676164Y-90360790D01*
X203511070Y-90155454D01*
X203309237Y-89986097D01*
X203130685Y-89887937D01*
X203186300Y-89866935D01*
X203428852Y-89715736D01*
X203637246Y-89520122D01*
X203803473Y-89287611D01*
X203921146Y-89027139D01*
X203947903Y-88938910D01*
X203836889Y-88714000D01*
X202694000Y-88714000D01*
X202694000Y-88734000D01*
X202386000Y-88734000D01*
X202386000Y-88714000D01*
X202366000Y-88714000D01*
X202366000Y-88406000D01*
X202386000Y-88406000D01*
X202386000Y-88386000D01*
X202694000Y-88386000D01*
X202694000Y-88406000D01*
X203836889Y-88406000D01*
X203947903Y-88181090D01*
X203921146Y-88092861D01*
X203803473Y-87832389D01*
X203637246Y-87599878D01*
X203428852Y-87404264D01*
X203186300Y-87253065D01*
X203129596Y-87231652D01*
X203293611Y-87144444D01*
X203497788Y-86977920D01*
X203665733Y-86774910D01*
X203791047Y-86543146D01*
X203868959Y-86291455D01*
X203896499Y-86029425D01*
X203872620Y-85767035D01*
X203798230Y-85514281D01*
X203676164Y-85280790D01*
X203511070Y-85075454D01*
X203309237Y-84906097D01*
X203078354Y-84779167D01*
X202987458Y-84750333D01*
X203060977Y-84728137D01*
X203293611Y-84604444D01*
X203497788Y-84437920D01*
X203665733Y-84234910D01*
X203791047Y-84003146D01*
X203868959Y-83751455D01*
X203896499Y-83489425D01*
X203872620Y-83227035D01*
X203798230Y-82974281D01*
X203676164Y-82740790D01*
X203511070Y-82535454D01*
X203309237Y-82366097D01*
X203078354Y-82239167D01*
X202987458Y-82210333D01*
X203060977Y-82188137D01*
X203293611Y-82064444D01*
X203497788Y-81897920D01*
X203665733Y-81694910D01*
X203791047Y-81463146D01*
X203868959Y-81211455D01*
X203896499Y-80949425D01*
X203872620Y-80687035D01*
X203798230Y-80434281D01*
X203676164Y-80200790D01*
X203511070Y-79995454D01*
X203309237Y-79826097D01*
X203078354Y-79699167D01*
X202987458Y-79670333D01*
X203060977Y-79648137D01*
X203293611Y-79524444D01*
X203497788Y-79357920D01*
X203665733Y-79154910D01*
X203791047Y-78923146D01*
X203868959Y-78671455D01*
X203896499Y-78409425D01*
X203872620Y-78147035D01*
X203798230Y-77894281D01*
X203676164Y-77660790D01*
X203511070Y-77455454D01*
X203309237Y-77286097D01*
X203130685Y-77187937D01*
X203186300Y-77166935D01*
X203428852Y-77015736D01*
X203637246Y-76820122D01*
X203803473Y-76587611D01*
X203921146Y-76327139D01*
X203947903Y-76238910D01*
X203836889Y-76014000D01*
X202694000Y-76014000D01*
X202694000Y-76034000D01*
X202386000Y-76034000D01*
X202386000Y-76014000D01*
X202366000Y-76014000D01*
X202366000Y-75706000D01*
X202386000Y-75706000D01*
X202386000Y-75686000D01*
X202694000Y-75686000D01*
X202694000Y-75706000D01*
X203836889Y-75706000D01*
X203947903Y-75481090D01*
X203921146Y-75392861D01*
X203803473Y-75132389D01*
X203637246Y-74899878D01*
X203428852Y-74704264D01*
X203186300Y-74553065D01*
X203129596Y-74531652D01*
X203293611Y-74444444D01*
X203497788Y-74277920D01*
X203665733Y-74074910D01*
X203791047Y-73843146D01*
X203868959Y-73591455D01*
X203896499Y-73329425D01*
X203872620Y-73067035D01*
X203798230Y-72814281D01*
X203676164Y-72580790D01*
X203511070Y-72375454D01*
X203309237Y-72206097D01*
X203078354Y-72079167D01*
X202987458Y-72050333D01*
X203060977Y-72028137D01*
X203293611Y-71904444D01*
X203497788Y-71737920D01*
X203665733Y-71534910D01*
X203791047Y-71303146D01*
X203868959Y-71051455D01*
X203896499Y-70789425D01*
X203872620Y-70527035D01*
X203798230Y-70274281D01*
X203676164Y-70040790D01*
X203511070Y-69835454D01*
X203309237Y-69666097D01*
X203130685Y-69567937D01*
X203186300Y-69546935D01*
X203428852Y-69395736D01*
X203637246Y-69200122D01*
X203803473Y-68967611D01*
X203921146Y-68707139D01*
X203947903Y-68618910D01*
X203836889Y-68394000D01*
X202694000Y-68394000D01*
X202694000Y-68414000D01*
X202386000Y-68414000D01*
X202386000Y-68394000D01*
X202366000Y-68394000D01*
X202366000Y-68086000D01*
X202386000Y-68086000D01*
X202386000Y-68066000D01*
X202694000Y-68066000D01*
X202694000Y-68086000D01*
X203836889Y-68086000D01*
X203947903Y-67861090D01*
X203921146Y-67772861D01*
X203803473Y-67512389D01*
X203637246Y-67279878D01*
X203428852Y-67084264D01*
X203186300Y-66933065D01*
X203129596Y-66911652D01*
X203293611Y-66824444D01*
X203497788Y-66657920D01*
X203665733Y-66454910D01*
X203791047Y-66223146D01*
X203868959Y-65971455D01*
X203896499Y-65709425D01*
X203872620Y-65447035D01*
X203798230Y-65194281D01*
X203676164Y-64960790D01*
X203511070Y-64755454D01*
X203309237Y-64586097D01*
X203078354Y-64459167D01*
X202987458Y-64430333D01*
X203060977Y-64408137D01*
X203293611Y-64284444D01*
X203497788Y-64117920D01*
X203665733Y-63914910D01*
X203791047Y-63683146D01*
X203868959Y-63431455D01*
X203896499Y-63169425D01*
X203872620Y-62907035D01*
X203798230Y-62654281D01*
X203676164Y-62420790D01*
X203511070Y-62215454D01*
X203309237Y-62046097D01*
X203078354Y-61919167D01*
X202987458Y-61890333D01*
X203060977Y-61868137D01*
X203293611Y-61744444D01*
X203497788Y-61577920D01*
X203665733Y-61374910D01*
X203791047Y-61143146D01*
X203868959Y-60891455D01*
X203896499Y-60629425D01*
X203872620Y-60367035D01*
X203798230Y-60114281D01*
X203676164Y-59880790D01*
X203511070Y-59675454D01*
X203309237Y-59506097D01*
X203130685Y-59407937D01*
X203186300Y-59386935D01*
X203428852Y-59235736D01*
X203637246Y-59040122D01*
X203803473Y-58807611D01*
X203921146Y-58547139D01*
X203947903Y-58458910D01*
X203836889Y-58234000D01*
X202694000Y-58234000D01*
X202694000Y-58254000D01*
X202386000Y-58254000D01*
X202386000Y-58234000D01*
X202366000Y-58234000D01*
X202366000Y-57926000D01*
X202386000Y-57926000D01*
X202386000Y-57906000D01*
X202694000Y-57906000D01*
X202694000Y-57926000D01*
X203836889Y-57926000D01*
X203947903Y-57701090D01*
X203921146Y-57612861D01*
X203803473Y-57352389D01*
X203637246Y-57119878D01*
X203428852Y-56924264D01*
X203186300Y-56773065D01*
X203129596Y-56751652D01*
X203293611Y-56664444D01*
X203497788Y-56497920D01*
X203665733Y-56294910D01*
X203791047Y-56063146D01*
X203868959Y-55811455D01*
X203896499Y-55549425D01*
X203872620Y-55287035D01*
X203798230Y-55034281D01*
X203676164Y-54800790D01*
X203511070Y-54595454D01*
X203309237Y-54426097D01*
X203078354Y-54299167D01*
X202987458Y-54270333D01*
X203060977Y-54248137D01*
X203293611Y-54124444D01*
X203497788Y-53957920D01*
X203665733Y-53754910D01*
X203791047Y-53523146D01*
X203868959Y-53271455D01*
X203896499Y-53009425D01*
X203872620Y-52747035D01*
X203798230Y-52494281D01*
X203676164Y-52260790D01*
X203511070Y-52055454D01*
X203309237Y-51886097D01*
X203078354Y-51759167D01*
X202827213Y-51679501D01*
X202565381Y-51650132D01*
X202546532Y-51650000D01*
X202533468Y-51650000D01*
X202271252Y-51675711D01*
X202019023Y-51751863D01*
X201786389Y-51875556D01*
X201582212Y-52042080D01*
X201414267Y-52245090D01*
X201352419Y-52359476D01*
X201352419Y-52150000D01*
X201342765Y-52051983D01*
X201314175Y-51957733D01*
X201267746Y-51870871D01*
X201205264Y-51794736D01*
X201129129Y-51732254D01*
X201042267Y-51685825D01*
X200948017Y-51657235D01*
X200850000Y-51647581D01*
X199150000Y-51647581D01*
X199051983Y-51657235D01*
X198957733Y-51685825D01*
X198870871Y-51732254D01*
X198794736Y-51794736D01*
X198732254Y-51870871D01*
X198685825Y-51957733D01*
X198657235Y-52051983D01*
X198647581Y-52150000D01*
X198647581Y-53850000D01*
X198657235Y-53948017D01*
X198685825Y-54042267D01*
X198732254Y-54129129D01*
X198794736Y-54205264D01*
X198870871Y-54267746D01*
X198957733Y-54314175D01*
X199051983Y-54342765D01*
X199150000Y-54352419D01*
X199365133Y-54352419D01*
X199246389Y-54415556D01*
X199042212Y-54582080D01*
X198874267Y-54785090D01*
X198748953Y-55016854D01*
X198671041Y-55268545D01*
X198643501Y-55530575D01*
X198667380Y-55792965D01*
X198741770Y-56045719D01*
X198863836Y-56279210D01*
X199028930Y-56484546D01*
X199230763Y-56653903D01*
X199461646Y-56780833D01*
X199552542Y-56809667D01*
X199479023Y-56831863D01*
X199246389Y-56955556D01*
X199042212Y-57122080D01*
X198874267Y-57325090D01*
X198748953Y-57556854D01*
X198671041Y-57808545D01*
X198643501Y-58070575D01*
X198667380Y-58332965D01*
X198741770Y-58585719D01*
X198863836Y-58819210D01*
X199028930Y-59024546D01*
X199230763Y-59193903D01*
X199461646Y-59320833D01*
X199552542Y-59349667D01*
X199479023Y-59371863D01*
X199246389Y-59495556D01*
X199042212Y-59662080D01*
X198874267Y-59865090D01*
X198748953Y-60096854D01*
X198671041Y-60348545D01*
X198643501Y-60610575D01*
X198667380Y-60872965D01*
X198741770Y-61125719D01*
X198863836Y-61359210D01*
X199028930Y-61564546D01*
X199230763Y-61733903D01*
X199409315Y-61832063D01*
X199353700Y-61853065D01*
X199111148Y-62004264D01*
X198902754Y-62199878D01*
X198736527Y-62432389D01*
X198618854Y-62692861D01*
X198592097Y-62781090D01*
X198703111Y-63006000D01*
X199846000Y-63006000D01*
X199846000Y-62986000D01*
X200154000Y-62986000D01*
X200154000Y-63006000D01*
X200174000Y-63006000D01*
X200174000Y-63314000D01*
X200154000Y-63314000D01*
X200154000Y-63334000D01*
X199846000Y-63334000D01*
X199846000Y-63314000D01*
X198703111Y-63314000D01*
X198592097Y-63538910D01*
X198618854Y-63627139D01*
X198736527Y-63887611D01*
X198902754Y-64120122D01*
X199111148Y-64315736D01*
X199353700Y-64466935D01*
X199410404Y-64488348D01*
X199246389Y-64575556D01*
X199042212Y-64742080D01*
X198874267Y-64945090D01*
X198748953Y-65176854D01*
X198671041Y-65428545D01*
X198643501Y-65690575D01*
X198667380Y-65952965D01*
X198741770Y-66205719D01*
X198863836Y-66439210D01*
X199028930Y-66644546D01*
X199230763Y-66813903D01*
X199461646Y-66940833D01*
X199552542Y-66969667D01*
X199479023Y-66991863D01*
X199246389Y-67115556D01*
X199042212Y-67282080D01*
X198874267Y-67485090D01*
X198748953Y-67716854D01*
X198671041Y-67968545D01*
X198643501Y-68230575D01*
X198667380Y-68492965D01*
X198741770Y-68745719D01*
X198863836Y-68979210D01*
X199028930Y-69184546D01*
X199230763Y-69353903D01*
X199461646Y-69480833D01*
X199552542Y-69509667D01*
X199479023Y-69531863D01*
X199246389Y-69655556D01*
X199042212Y-69822080D01*
X198874267Y-70025090D01*
X198748953Y-70256854D01*
X198671041Y-70508545D01*
X198643501Y-70770575D01*
X198667380Y-71032965D01*
X198741770Y-71285719D01*
X198863836Y-71519210D01*
X199028930Y-71724546D01*
X199230763Y-71893903D01*
X199461646Y-72020833D01*
X199552542Y-72049667D01*
X199479023Y-72071863D01*
X199246389Y-72195556D01*
X199042212Y-72362080D01*
X198874267Y-72565090D01*
X198748953Y-72796854D01*
X198671041Y-73048545D01*
X198643501Y-73310575D01*
X198667380Y-73572965D01*
X198741770Y-73825719D01*
X198863836Y-74059210D01*
X199028930Y-74264546D01*
X199230763Y-74433903D01*
X199461646Y-74560833D01*
X199552542Y-74589667D01*
X199479023Y-74611863D01*
X199246389Y-74735556D01*
X199042212Y-74902080D01*
X198874267Y-75105090D01*
X198748953Y-75336854D01*
X198671041Y-75588545D01*
X198643501Y-75850575D01*
X198667380Y-76112965D01*
X198741770Y-76365719D01*
X198863836Y-76599210D01*
X199028930Y-76804546D01*
X199230763Y-76973903D01*
X199461646Y-77100833D01*
X199552542Y-77129667D01*
X199479023Y-77151863D01*
X199246389Y-77275556D01*
X199042212Y-77442080D01*
X198874267Y-77645090D01*
X198748953Y-77876854D01*
X198671041Y-78128545D01*
X198643501Y-78390575D01*
X198667380Y-78652965D01*
X198741770Y-78905719D01*
X198863836Y-79139210D01*
X199028930Y-79344546D01*
X199230763Y-79513903D01*
X199461646Y-79640833D01*
X199552542Y-79669667D01*
X199479023Y-79691863D01*
X199246389Y-79815556D01*
X199042212Y-79982080D01*
X198874267Y-80185090D01*
X198748953Y-80416854D01*
X198671041Y-80668545D01*
X198643501Y-80930575D01*
X198667380Y-81192965D01*
X198741770Y-81445719D01*
X198863836Y-81679210D01*
X199028930Y-81884546D01*
X199230763Y-82053903D01*
X199409315Y-82152063D01*
X199353700Y-82173065D01*
X199111148Y-82324264D01*
X198902754Y-82519878D01*
X198736527Y-82752389D01*
X198618854Y-83012861D01*
X198592097Y-83101090D01*
X198703111Y-83326000D01*
X199846000Y-83326000D01*
X199846000Y-83306000D01*
X200154000Y-83306000D01*
X200154000Y-83326000D01*
X200174000Y-83326000D01*
X200174000Y-83634000D01*
X200154000Y-83634000D01*
X200154000Y-83654000D01*
X199846000Y-83654000D01*
X199846000Y-83634000D01*
X198703111Y-83634000D01*
X198592097Y-83858910D01*
X198618854Y-83947139D01*
X198736527Y-84207611D01*
X198902754Y-84440122D01*
X199111148Y-84635736D01*
X199353700Y-84786935D01*
X199410404Y-84808348D01*
X199246389Y-84895556D01*
X199042212Y-85062080D01*
X198874267Y-85265090D01*
X198748953Y-85496854D01*
X198671041Y-85748545D01*
X198643501Y-86010575D01*
X198667380Y-86272965D01*
X198741770Y-86525719D01*
X198863836Y-86759210D01*
X199028930Y-86964546D01*
X199230763Y-87133903D01*
X199461646Y-87260833D01*
X199552542Y-87289667D01*
X199479023Y-87311863D01*
X199246389Y-87435556D01*
X199042212Y-87602080D01*
X198874267Y-87805090D01*
X198748953Y-88036854D01*
X198671041Y-88288545D01*
X198643501Y-88550575D01*
X198667380Y-88812965D01*
X198741770Y-89065719D01*
X198863836Y-89299210D01*
X199028930Y-89504546D01*
X199230763Y-89673903D01*
X199461646Y-89800833D01*
X199552542Y-89829667D01*
X199479023Y-89851863D01*
X199246389Y-89975556D01*
X199042212Y-90142080D01*
X198874267Y-90345090D01*
X198748953Y-90576854D01*
X198671041Y-90828545D01*
X198643501Y-91090575D01*
X198667380Y-91352965D01*
X198741770Y-91605719D01*
X198863836Y-91839210D01*
X199028930Y-92044546D01*
X199230763Y-92213903D01*
X199461646Y-92340833D01*
X199552542Y-92369667D01*
X199479023Y-92391863D01*
X199246389Y-92515556D01*
X199042212Y-92682080D01*
X198874267Y-92885090D01*
X198748953Y-93116854D01*
X198671041Y-93368545D01*
X198643501Y-93630575D01*
X198667380Y-93892965D01*
X198741770Y-94145719D01*
X198863836Y-94379210D01*
X199028930Y-94584546D01*
X199230763Y-94753903D01*
X199461646Y-94880833D01*
X199552542Y-94909667D01*
X199479023Y-94931863D01*
X199246389Y-95055556D01*
X199042212Y-95222080D01*
X198874267Y-95425090D01*
X198748953Y-95656854D01*
X198671041Y-95908545D01*
X198643501Y-96170575D01*
X198667380Y-96432965D01*
X198741770Y-96685719D01*
X198863836Y-96919210D01*
X199028930Y-97124546D01*
X199230763Y-97293903D01*
X199461646Y-97420833D01*
X199552542Y-97449667D01*
X199479023Y-97471863D01*
X199246389Y-97595556D01*
X199042212Y-97762080D01*
X198874267Y-97965090D01*
X198748953Y-98196854D01*
X198671041Y-98448545D01*
X198643501Y-98710575D01*
X198667380Y-98972965D01*
X198741770Y-99225719D01*
X198863836Y-99459210D01*
X199028930Y-99664546D01*
X199230763Y-99833903D01*
X199409315Y-99932063D01*
X199353700Y-99953065D01*
X199111148Y-100104264D01*
X198902754Y-100299878D01*
X198736527Y-100532389D01*
X198618854Y-100792861D01*
X198592097Y-100881090D01*
X198703110Y-101105998D01*
X198575000Y-101105998D01*
X198575000Y-100000000D01*
X198569720Y-99946147D01*
X198564815Y-99892256D01*
X198564246Y-99890322D01*
X198564049Y-99888315D01*
X198548416Y-99836537D01*
X198533131Y-99784601D01*
X198532196Y-99782812D01*
X198531614Y-99780885D01*
X198506209Y-99733105D01*
X198481139Y-99685151D01*
X198479878Y-99683582D01*
X198478930Y-99681800D01*
X198444703Y-99639833D01*
X198410822Y-99597694D01*
X198409278Y-99596399D01*
X198408003Y-99594835D01*
X198366259Y-99560301D01*
X198324856Y-99525560D01*
X198323092Y-99524590D01*
X198321536Y-99523303D01*
X198273949Y-99497573D01*
X198226517Y-99471497D01*
X198224591Y-99470886D01*
X198222821Y-99469929D01*
X198171165Y-99453938D01*
X198119549Y-99437565D01*
X198117547Y-99437340D01*
X198115620Y-99436744D01*
X198061795Y-99431087D01*
X198008028Y-99425056D01*
X198004157Y-99425029D01*
X198004014Y-99425014D01*
X198003871Y-99425027D01*
X198000000Y-99425000D01*
X152575000Y-99425000D01*
X152575000Y-96179308D01*
X153178291Y-96179308D01*
X153224313Y-96430062D01*
X153318164Y-96667102D01*
X153456269Y-96881399D01*
X153633367Y-97064790D01*
X153842714Y-97210289D01*
X154076334Y-97312356D01*
X154325330Y-97367101D01*
X154580217Y-97372440D01*
X154831287Y-97328170D01*
X155068977Y-97235976D01*
X155284232Y-97099371D01*
X155468855Y-96923557D01*
X155615813Y-96715231D01*
X155671113Y-96591024D01*
X155842714Y-96710289D01*
X156076334Y-96812356D01*
X156325330Y-96867101D01*
X156580217Y-96872440D01*
X156831287Y-96828170D01*
X157068977Y-96735976D01*
X157284232Y-96599371D01*
X157387764Y-96500778D01*
X157827174Y-96500778D01*
X157903287Y-96915488D01*
X158058502Y-97307516D01*
X158286906Y-97661930D01*
X158579800Y-97965230D01*
X158926027Y-98205863D01*
X159312399Y-98374665D01*
X159724200Y-98465206D01*
X160145744Y-98474036D01*
X160560975Y-98400819D01*
X160954077Y-98248345D01*
X161310077Y-98022421D01*
X161615414Y-97731652D01*
X161858459Y-97387113D01*
X162029955Y-97001929D01*
X162123368Y-96590770D01*
X162130092Y-96109182D01*
X162048196Y-95695575D01*
X162041492Y-95679308D01*
X162178291Y-95679308D01*
X162224313Y-95930062D01*
X162318164Y-96167102D01*
X162456269Y-96381399D01*
X162633367Y-96564790D01*
X162842714Y-96710289D01*
X163076334Y-96812356D01*
X163325330Y-96867101D01*
X163580217Y-96872440D01*
X163831287Y-96828170D01*
X164068977Y-96735976D01*
X164284232Y-96599371D01*
X164289399Y-96594450D01*
X164318164Y-96667102D01*
X164456269Y-96881399D01*
X164633367Y-97064790D01*
X164842714Y-97210289D01*
X165076334Y-97312356D01*
X165325330Y-97367101D01*
X165580217Y-97372440D01*
X165831287Y-97328170D01*
X166068977Y-97235976D01*
X166284232Y-97099371D01*
X166468855Y-96923557D01*
X166615813Y-96715231D01*
X166719507Y-96482329D01*
X166775990Y-96233722D01*
X166780056Y-95942528D01*
X166730537Y-95692441D01*
X166633386Y-95456734D01*
X166492302Y-95244386D01*
X166312661Y-95063486D01*
X166101303Y-94920924D01*
X165866280Y-94822129D01*
X165616544Y-94770866D01*
X165361608Y-94769086D01*
X165111180Y-94816858D01*
X164874801Y-94912361D01*
X164670264Y-95046207D01*
X164633386Y-94956734D01*
X164492302Y-94744386D01*
X164312661Y-94563486D01*
X164101303Y-94420924D01*
X163866280Y-94322129D01*
X163616544Y-94270866D01*
X163361608Y-94269086D01*
X163111180Y-94316858D01*
X162874801Y-94412361D01*
X162661474Y-94551959D01*
X162479324Y-94730333D01*
X162335289Y-94940690D01*
X162234857Y-95175017D01*
X162181851Y-95424389D01*
X162178291Y-95679308D01*
X162041492Y-95679308D01*
X161887523Y-95305752D01*
X161654192Y-94954562D01*
X161357093Y-94655381D01*
X161007540Y-94419605D01*
X160618849Y-94256214D01*
X160205824Y-94171432D01*
X159784197Y-94168488D01*
X159370029Y-94247495D01*
X158979094Y-94405443D01*
X158626283Y-94636316D01*
X158325035Y-94931320D01*
X158086824Y-95279218D01*
X157920724Y-95666759D01*
X157833061Y-96079182D01*
X157827174Y-96500778D01*
X157387764Y-96500778D01*
X157468855Y-96423557D01*
X157615813Y-96215231D01*
X157719507Y-95982329D01*
X157775990Y-95733722D01*
X157780056Y-95442528D01*
X157730537Y-95192441D01*
X157633386Y-94956734D01*
X157492302Y-94744386D01*
X157312661Y-94563486D01*
X157101303Y-94420924D01*
X156866280Y-94322129D01*
X156616544Y-94270866D01*
X156361608Y-94269086D01*
X156111180Y-94316858D01*
X155874801Y-94412361D01*
X155661474Y-94551959D01*
X155479324Y-94730333D01*
X155335289Y-94940690D01*
X155289387Y-95047788D01*
X155101303Y-94920924D01*
X154866280Y-94822129D01*
X154616544Y-94770866D01*
X154361608Y-94769086D01*
X154111180Y-94816858D01*
X153874801Y-94912361D01*
X153661474Y-95051959D01*
X153479324Y-95230333D01*
X153335289Y-95440690D01*
X153234857Y-95675017D01*
X153181851Y-95924389D01*
X153178291Y-96179308D01*
X152575000Y-96179308D01*
X152575000Y-93351002D01*
X155416787Y-93351002D01*
X155540575Y-93625008D01*
X155861993Y-93778403D01*
X156207160Y-93866143D01*
X156562813Y-93884860D01*
X156915283Y-93833832D01*
X157251026Y-93715021D01*
X157419425Y-93625008D01*
X157543213Y-93351002D01*
X162416787Y-93351002D01*
X162540575Y-93625008D01*
X162861993Y-93778403D01*
X163207160Y-93866143D01*
X163562813Y-93884860D01*
X163915283Y-93833832D01*
X164251026Y-93715021D01*
X164419425Y-93625008D01*
X164543213Y-93351002D01*
X163480000Y-92287789D01*
X162416787Y-93351002D01*
X157543213Y-93351002D01*
X156480000Y-92287789D01*
X155416787Y-93351002D01*
X152575000Y-93351002D01*
X152575000Y-92152813D01*
X154665140Y-92152813D01*
X154716168Y-92505283D01*
X154834979Y-92841026D01*
X154924992Y-93009425D01*
X155198998Y-93133213D01*
X156262211Y-92070000D01*
X156697789Y-92070000D01*
X157761002Y-93133213D01*
X158035008Y-93009425D01*
X158188403Y-92688007D01*
X158276143Y-92342840D01*
X158286143Y-92152813D01*
X161665140Y-92152813D01*
X161716168Y-92505283D01*
X161834979Y-92841026D01*
X161924992Y-93009425D01*
X162198998Y-93133213D01*
X163262211Y-92070000D01*
X163697789Y-92070000D01*
X164761002Y-93133213D01*
X165035008Y-93009425D01*
X165188403Y-92688007D01*
X165276143Y-92342840D01*
X165294860Y-91987187D01*
X165243832Y-91634717D01*
X165125021Y-91298974D01*
X165035008Y-91130575D01*
X164761002Y-91006787D01*
X163697789Y-92070000D01*
X163262211Y-92070000D01*
X162198998Y-91006787D01*
X161924992Y-91130575D01*
X161771597Y-91451993D01*
X161683857Y-91797160D01*
X161665140Y-92152813D01*
X158286143Y-92152813D01*
X158294860Y-91987187D01*
X158243832Y-91634717D01*
X158125021Y-91298974D01*
X158035008Y-91130575D01*
X157761002Y-91006787D01*
X156697789Y-92070000D01*
X156262211Y-92070000D01*
X155198998Y-91006787D01*
X154924992Y-91130575D01*
X154771597Y-91451993D01*
X154683857Y-91797160D01*
X154665140Y-92152813D01*
X152575000Y-92152813D01*
X152575000Y-89851002D01*
X155416787Y-89851002D01*
X155540575Y-90125008D01*
X155861993Y-90278403D01*
X156013992Y-90317041D01*
X155708974Y-90424979D01*
X155540575Y-90514992D01*
X155416787Y-90788998D01*
X156480000Y-91852211D01*
X157543213Y-90788998D01*
X157419425Y-90514992D01*
X157098007Y-90361597D01*
X156946008Y-90322959D01*
X157251026Y-90215021D01*
X157419425Y-90125008D01*
X157543213Y-89851002D01*
X156480000Y-88787789D01*
X155416787Y-89851002D01*
X152575000Y-89851002D01*
X152575000Y-88652813D01*
X154665140Y-88652813D01*
X154716168Y-89005283D01*
X154834979Y-89341026D01*
X154924992Y-89509425D01*
X155198998Y-89633213D01*
X156262211Y-88570000D01*
X156697789Y-88570000D01*
X157761002Y-89633213D01*
X158035008Y-89509425D01*
X158188403Y-89188007D01*
X158276143Y-88842840D01*
X158282979Y-88712941D01*
X161777765Y-88712941D01*
X161837948Y-89040851D01*
X161960676Y-89350827D01*
X162141274Y-89631061D01*
X162372865Y-89870880D01*
X162646625Y-90061148D01*
X162952129Y-90194619D01*
X163277739Y-90266209D01*
X163315295Y-90266996D01*
X163044717Y-90306168D01*
X162708974Y-90424979D01*
X162540575Y-90514992D01*
X162416787Y-90788998D01*
X163480000Y-91852211D01*
X164543213Y-90788998D01*
X164419425Y-90514992D01*
X164098007Y-90361597D01*
X163752840Y-90273857D01*
X163640735Y-90267957D01*
X163939376Y-90215299D01*
X164250201Y-90094738D01*
X164531689Y-89916100D01*
X164773119Y-89686190D01*
X164965294Y-89413764D01*
X165100895Y-89109200D01*
X165174756Y-88784097D01*
X165180073Y-88403306D01*
X165115318Y-88076268D01*
X164988274Y-87768036D01*
X164803780Y-87490351D01*
X164568864Y-87253789D01*
X164292474Y-87067361D01*
X163985136Y-86938169D01*
X163658558Y-86871132D01*
X163325179Y-86868804D01*
X162997697Y-86931275D01*
X162688586Y-87056164D01*
X162409619Y-87238715D01*
X162171423Y-87471973D01*
X161983070Y-87747056D01*
X161851735Y-88053484D01*
X161782420Y-88379586D01*
X161777765Y-88712941D01*
X158282979Y-88712941D01*
X158294860Y-88487187D01*
X158243832Y-88134717D01*
X158125021Y-87798974D01*
X158035008Y-87630575D01*
X157761002Y-87506787D01*
X156697789Y-88570000D01*
X156262211Y-88570000D01*
X155198998Y-87506787D01*
X154924992Y-87630575D01*
X154771597Y-87951993D01*
X154683857Y-88297160D01*
X154665140Y-88652813D01*
X152575000Y-88652813D01*
X152575000Y-86351002D01*
X155416787Y-86351002D01*
X155540575Y-86625008D01*
X155861993Y-86778403D01*
X156013992Y-86817041D01*
X155708974Y-86924979D01*
X155540575Y-87014992D01*
X155416787Y-87288998D01*
X156480000Y-88352211D01*
X157543213Y-87288998D01*
X157419425Y-87014992D01*
X157098007Y-86861597D01*
X156946008Y-86822959D01*
X157251026Y-86715021D01*
X157419425Y-86625008D01*
X157543213Y-86351002D01*
X156480000Y-85287789D01*
X155416787Y-86351002D01*
X152575000Y-86351002D01*
X152575000Y-85152813D01*
X154665140Y-85152813D01*
X154716168Y-85505283D01*
X154834979Y-85841026D01*
X154924992Y-86009425D01*
X155198998Y-86133213D01*
X156262211Y-85070000D01*
X156697789Y-85070000D01*
X157761002Y-86133213D01*
X158035008Y-86009425D01*
X158188403Y-85688007D01*
X158276143Y-85342840D01*
X158282979Y-85212941D01*
X161777765Y-85212941D01*
X161837948Y-85540851D01*
X161960676Y-85850827D01*
X162141274Y-86131061D01*
X162372865Y-86370880D01*
X162646625Y-86561148D01*
X162952129Y-86694619D01*
X163277739Y-86766209D01*
X163611053Y-86773191D01*
X163939376Y-86715299D01*
X164250201Y-86594738D01*
X164531689Y-86416100D01*
X164773119Y-86186190D01*
X164965294Y-85913764D01*
X165100895Y-85609200D01*
X165174756Y-85284097D01*
X165180073Y-84903306D01*
X165115318Y-84576268D01*
X164988274Y-84268036D01*
X164803780Y-83990351D01*
X164568864Y-83753789D01*
X164292474Y-83567361D01*
X163985136Y-83438169D01*
X163658558Y-83371132D01*
X163325179Y-83368804D01*
X162997697Y-83431275D01*
X162688586Y-83556164D01*
X162409619Y-83738715D01*
X162171423Y-83971973D01*
X161983070Y-84247056D01*
X161851735Y-84553484D01*
X161782420Y-84879586D01*
X161777765Y-85212941D01*
X158282979Y-85212941D01*
X158294860Y-84987187D01*
X158243832Y-84634717D01*
X158125021Y-84298974D01*
X158035008Y-84130575D01*
X157761002Y-84006787D01*
X156697789Y-85070000D01*
X156262211Y-85070000D01*
X155198998Y-84006787D01*
X154924992Y-84130575D01*
X154771597Y-84451993D01*
X154683857Y-84797160D01*
X154665140Y-85152813D01*
X152575000Y-85152813D01*
X152575000Y-82851002D01*
X155416787Y-82851002D01*
X155540575Y-83125008D01*
X155861993Y-83278403D01*
X156013992Y-83317041D01*
X155708974Y-83424979D01*
X155540575Y-83514992D01*
X155416787Y-83788998D01*
X156480000Y-84852211D01*
X157543213Y-83788998D01*
X157419425Y-83514992D01*
X157098007Y-83361597D01*
X156946008Y-83322959D01*
X157251026Y-83215021D01*
X157419425Y-83125008D01*
X157543213Y-82851002D01*
X156480000Y-81787789D01*
X155416787Y-82851002D01*
X152575000Y-82851002D01*
X152575000Y-81652813D01*
X154665140Y-81652813D01*
X154716168Y-82005283D01*
X154834979Y-82341026D01*
X154924992Y-82509425D01*
X155198998Y-82633213D01*
X156262211Y-81570000D01*
X156697789Y-81570000D01*
X157761002Y-82633213D01*
X158035008Y-82509425D01*
X158188403Y-82188007D01*
X158276143Y-81842840D01*
X158282979Y-81712941D01*
X161777765Y-81712941D01*
X161837948Y-82040851D01*
X161960676Y-82350827D01*
X162141274Y-82631061D01*
X162372865Y-82870880D01*
X162646625Y-83061148D01*
X162952129Y-83194619D01*
X163277739Y-83266209D01*
X163611053Y-83273191D01*
X163939376Y-83215299D01*
X164250201Y-83094738D01*
X164531689Y-82916100D01*
X164773119Y-82686190D01*
X164965294Y-82413764D01*
X165100895Y-82109200D01*
X165174756Y-81784097D01*
X165180073Y-81403306D01*
X165115318Y-81076268D01*
X164988274Y-80768036D01*
X164803780Y-80490351D01*
X164568864Y-80253789D01*
X164292474Y-80067361D01*
X163985136Y-79938169D01*
X163658558Y-79871132D01*
X163325179Y-79868804D01*
X162997697Y-79931275D01*
X162688586Y-80056164D01*
X162409619Y-80238715D01*
X162171423Y-80471973D01*
X161983070Y-80747056D01*
X161851735Y-81053484D01*
X161782420Y-81379586D01*
X161777765Y-81712941D01*
X158282979Y-81712941D01*
X158294860Y-81487187D01*
X158243832Y-81134717D01*
X158125021Y-80798974D01*
X158035008Y-80630575D01*
X157761002Y-80506787D01*
X156697789Y-81570000D01*
X156262211Y-81570000D01*
X155198998Y-80506787D01*
X154924992Y-80630575D01*
X154771597Y-80951993D01*
X154683857Y-81297160D01*
X154665140Y-81652813D01*
X152575000Y-81652813D01*
X152575000Y-79351002D01*
X155416787Y-79351002D01*
X155540575Y-79625008D01*
X155861993Y-79778403D01*
X156013992Y-79817041D01*
X155708974Y-79924979D01*
X155540575Y-80014992D01*
X155416787Y-80288998D01*
X156480000Y-81352211D01*
X157543213Y-80288998D01*
X157419425Y-80014992D01*
X157098007Y-79861597D01*
X156946008Y-79822959D01*
X157251026Y-79715021D01*
X157419425Y-79625008D01*
X157543213Y-79351002D01*
X156480000Y-78287789D01*
X155416787Y-79351002D01*
X152575000Y-79351002D01*
X152575000Y-78152813D01*
X154665140Y-78152813D01*
X154716168Y-78505283D01*
X154834979Y-78841026D01*
X154924992Y-79009425D01*
X155198998Y-79133213D01*
X156262211Y-78070000D01*
X156697789Y-78070000D01*
X157761002Y-79133213D01*
X158035008Y-79009425D01*
X158188403Y-78688007D01*
X158276143Y-78342840D01*
X158282979Y-78212941D01*
X161777765Y-78212941D01*
X161837948Y-78540851D01*
X161960676Y-78850827D01*
X162141274Y-79131061D01*
X162372865Y-79370880D01*
X162646625Y-79561148D01*
X162952129Y-79694619D01*
X163277739Y-79766209D01*
X163611053Y-79773191D01*
X163939376Y-79715299D01*
X164250201Y-79594738D01*
X164531689Y-79416100D01*
X164773119Y-79186190D01*
X164965294Y-78913764D01*
X165100895Y-78609200D01*
X165174756Y-78284097D01*
X165180073Y-77903306D01*
X165115318Y-77576268D01*
X164988274Y-77268036D01*
X164803780Y-76990351D01*
X164568864Y-76753789D01*
X164292474Y-76567361D01*
X163985136Y-76438169D01*
X163658558Y-76371132D01*
X163325179Y-76368804D01*
X162997697Y-76431275D01*
X162688586Y-76556164D01*
X162409619Y-76738715D01*
X162171423Y-76971973D01*
X161983070Y-77247056D01*
X161851735Y-77553484D01*
X161782420Y-77879586D01*
X161777765Y-78212941D01*
X158282979Y-78212941D01*
X158294860Y-77987187D01*
X158243832Y-77634717D01*
X158125021Y-77298974D01*
X158035008Y-77130575D01*
X157761002Y-77006787D01*
X156697789Y-78070000D01*
X156262211Y-78070000D01*
X155198998Y-77006787D01*
X154924992Y-77130575D01*
X154771597Y-77451993D01*
X154683857Y-77797160D01*
X154665140Y-78152813D01*
X152575000Y-78152813D01*
X152575000Y-75851002D01*
X155416787Y-75851002D01*
X155540575Y-76125008D01*
X155861993Y-76278403D01*
X156013992Y-76317041D01*
X155708974Y-76424979D01*
X155540575Y-76514992D01*
X155416787Y-76788998D01*
X156480000Y-77852211D01*
X157543213Y-76788998D01*
X157419425Y-76514992D01*
X157098007Y-76361597D01*
X156946008Y-76322959D01*
X157251026Y-76215021D01*
X157419425Y-76125008D01*
X157543213Y-75851002D01*
X156480000Y-74787789D01*
X155416787Y-75851002D01*
X152575000Y-75851002D01*
X152575000Y-74652813D01*
X154665140Y-74652813D01*
X154716168Y-75005283D01*
X154834979Y-75341026D01*
X154924992Y-75509425D01*
X155198998Y-75633213D01*
X156262211Y-74570000D01*
X156697789Y-74570000D01*
X157761002Y-75633213D01*
X158035008Y-75509425D01*
X158188403Y-75188007D01*
X158276143Y-74842840D01*
X158282979Y-74712941D01*
X161777765Y-74712941D01*
X161837948Y-75040851D01*
X161960676Y-75350827D01*
X162141274Y-75631061D01*
X162372865Y-75870880D01*
X162646625Y-76061148D01*
X162952129Y-76194619D01*
X163277739Y-76266209D01*
X163611053Y-76273191D01*
X163939376Y-76215299D01*
X164250201Y-76094738D01*
X164531689Y-75916100D01*
X164773119Y-75686190D01*
X164965294Y-75413764D01*
X165100895Y-75109200D01*
X165174756Y-74784097D01*
X165180073Y-74403306D01*
X165115318Y-74076268D01*
X164988274Y-73768036D01*
X164803780Y-73490351D01*
X164568864Y-73253789D01*
X164292474Y-73067361D01*
X163985136Y-72938169D01*
X163658558Y-72871132D01*
X163325179Y-72868804D01*
X162997697Y-72931275D01*
X162688586Y-73056164D01*
X162409619Y-73238715D01*
X162171423Y-73471973D01*
X161983070Y-73747056D01*
X161851735Y-74053484D01*
X161782420Y-74379586D01*
X161777765Y-74712941D01*
X158282979Y-74712941D01*
X158294860Y-74487187D01*
X158243832Y-74134717D01*
X158125021Y-73798974D01*
X158035008Y-73630575D01*
X157761002Y-73506787D01*
X156697789Y-74570000D01*
X156262211Y-74570000D01*
X155198998Y-73506787D01*
X154924992Y-73630575D01*
X154771597Y-73951993D01*
X154683857Y-74297160D01*
X154665140Y-74652813D01*
X152575000Y-74652813D01*
X152575000Y-72351002D01*
X155416787Y-72351002D01*
X155540575Y-72625008D01*
X155861993Y-72778403D01*
X156013992Y-72817041D01*
X155708974Y-72924979D01*
X155540575Y-73014992D01*
X155416787Y-73288998D01*
X156480000Y-74352211D01*
X157543213Y-73288998D01*
X157419425Y-73014992D01*
X157098007Y-72861597D01*
X156946008Y-72822959D01*
X157251026Y-72715021D01*
X157419425Y-72625008D01*
X157543213Y-72351002D01*
X156480000Y-71287789D01*
X155416787Y-72351002D01*
X152575000Y-72351002D01*
X152575000Y-71152813D01*
X154665140Y-71152813D01*
X154716168Y-71505283D01*
X154834979Y-71841026D01*
X154924992Y-72009425D01*
X155198998Y-72133213D01*
X156262211Y-71070000D01*
X156697789Y-71070000D01*
X157761002Y-72133213D01*
X158035008Y-72009425D01*
X158188403Y-71688007D01*
X158276143Y-71342840D01*
X158282979Y-71212941D01*
X161777765Y-71212941D01*
X161837948Y-71540851D01*
X161960676Y-71850827D01*
X162141274Y-72131061D01*
X162372865Y-72370880D01*
X162646625Y-72561148D01*
X162952129Y-72694619D01*
X163277739Y-72766209D01*
X163611053Y-72773191D01*
X163939376Y-72715299D01*
X164250201Y-72594738D01*
X164531689Y-72416100D01*
X164773119Y-72186190D01*
X164965294Y-71913764D01*
X165100895Y-71609200D01*
X165174756Y-71284097D01*
X165180073Y-70903306D01*
X165115318Y-70576268D01*
X164988274Y-70268036D01*
X164803780Y-69990351D01*
X164568864Y-69753789D01*
X164292474Y-69567361D01*
X163985136Y-69438169D01*
X163658558Y-69371132D01*
X163325179Y-69368804D01*
X162997697Y-69431275D01*
X162688586Y-69556164D01*
X162409619Y-69738715D01*
X162171423Y-69971973D01*
X161983070Y-70247056D01*
X161851735Y-70553484D01*
X161782420Y-70879586D01*
X161777765Y-71212941D01*
X158282979Y-71212941D01*
X158294860Y-70987187D01*
X158243832Y-70634717D01*
X158125021Y-70298974D01*
X158035008Y-70130575D01*
X157761002Y-70006787D01*
X156697789Y-71070000D01*
X156262211Y-71070000D01*
X155198998Y-70006787D01*
X154924992Y-70130575D01*
X154771597Y-70451993D01*
X154683857Y-70797160D01*
X154665140Y-71152813D01*
X152575000Y-71152813D01*
X152575000Y-68851002D01*
X155416787Y-68851002D01*
X155540575Y-69125008D01*
X155861993Y-69278403D01*
X156013992Y-69317041D01*
X155708974Y-69424979D01*
X155540575Y-69514992D01*
X155416787Y-69788998D01*
X156480000Y-70852211D01*
X157543213Y-69788998D01*
X157419425Y-69514992D01*
X157098007Y-69361597D01*
X156946008Y-69322959D01*
X157251026Y-69215021D01*
X157419425Y-69125008D01*
X157543213Y-68851002D01*
X156480000Y-67787789D01*
X155416787Y-68851002D01*
X152575000Y-68851002D01*
X152575000Y-67652813D01*
X154665140Y-67652813D01*
X154716168Y-68005283D01*
X154834979Y-68341026D01*
X154924992Y-68509425D01*
X155198998Y-68633213D01*
X156262211Y-67570000D01*
X156697789Y-67570000D01*
X157761002Y-68633213D01*
X158035008Y-68509425D01*
X158188403Y-68188007D01*
X158276143Y-67842840D01*
X158282979Y-67712941D01*
X161777765Y-67712941D01*
X161837948Y-68040851D01*
X161960676Y-68350827D01*
X162141274Y-68631061D01*
X162372865Y-68870880D01*
X162646625Y-69061148D01*
X162952129Y-69194619D01*
X163277739Y-69266209D01*
X163611053Y-69273191D01*
X163939376Y-69215299D01*
X164250201Y-69094738D01*
X164531689Y-68916100D01*
X164773119Y-68686190D01*
X164965294Y-68413764D01*
X165100895Y-68109200D01*
X165174756Y-67784097D01*
X165180073Y-67403306D01*
X165115318Y-67076268D01*
X164988274Y-66768036D01*
X164803780Y-66490351D01*
X164568864Y-66253789D01*
X164292474Y-66067361D01*
X163985136Y-65938169D01*
X163658558Y-65871132D01*
X163325179Y-65868804D01*
X162997697Y-65931275D01*
X162688586Y-66056164D01*
X162409619Y-66238715D01*
X162171423Y-66471973D01*
X161983070Y-66747056D01*
X161851735Y-67053484D01*
X161782420Y-67379586D01*
X161777765Y-67712941D01*
X158282979Y-67712941D01*
X158294860Y-67487187D01*
X158243832Y-67134717D01*
X158125021Y-66798974D01*
X158035008Y-66630575D01*
X157761002Y-66506787D01*
X156697789Y-67570000D01*
X156262211Y-67570000D01*
X155198998Y-66506787D01*
X154924992Y-66630575D01*
X154771597Y-66951993D01*
X154683857Y-67297160D01*
X154665140Y-67652813D01*
X152575000Y-67652813D01*
X152575000Y-65351002D01*
X155416787Y-65351002D01*
X155540575Y-65625008D01*
X155861993Y-65778403D01*
X156013992Y-65817041D01*
X155708974Y-65924979D01*
X155540575Y-66014992D01*
X155416787Y-66288998D01*
X156480000Y-67352211D01*
X157543213Y-66288998D01*
X157419425Y-66014992D01*
X157098007Y-65861597D01*
X156946008Y-65822959D01*
X157251026Y-65715021D01*
X157419425Y-65625008D01*
X157543213Y-65351002D01*
X156480000Y-64287789D01*
X155416787Y-65351002D01*
X152575000Y-65351002D01*
X152575000Y-64152813D01*
X154665140Y-64152813D01*
X154716168Y-64505283D01*
X154834979Y-64841026D01*
X154924992Y-65009425D01*
X155198998Y-65133213D01*
X156262211Y-64070000D01*
X156697789Y-64070000D01*
X157761002Y-65133213D01*
X158035008Y-65009425D01*
X158188403Y-64688007D01*
X158276143Y-64342840D01*
X158282979Y-64212941D01*
X161777765Y-64212941D01*
X161837948Y-64540851D01*
X161960676Y-64850827D01*
X162141274Y-65131061D01*
X162372865Y-65370880D01*
X162646625Y-65561148D01*
X162952129Y-65694619D01*
X163277739Y-65766209D01*
X163611053Y-65773191D01*
X163939376Y-65715299D01*
X164250201Y-65594738D01*
X164531689Y-65416100D01*
X164773119Y-65186190D01*
X164965294Y-64913764D01*
X165100895Y-64609200D01*
X165174756Y-64284097D01*
X165180073Y-63903306D01*
X165115318Y-63576268D01*
X164988274Y-63268036D01*
X164803780Y-62990351D01*
X164568864Y-62753789D01*
X164292474Y-62567361D01*
X163985136Y-62438169D01*
X163658558Y-62371132D01*
X163325179Y-62368804D01*
X162997697Y-62431275D01*
X162688586Y-62556164D01*
X162409619Y-62738715D01*
X162171423Y-62971973D01*
X161983070Y-63247056D01*
X161851735Y-63553484D01*
X161782420Y-63879586D01*
X161777765Y-64212941D01*
X158282979Y-64212941D01*
X158294860Y-63987187D01*
X158243832Y-63634717D01*
X158125021Y-63298974D01*
X158035008Y-63130575D01*
X157761002Y-63006787D01*
X156697789Y-64070000D01*
X156262211Y-64070000D01*
X155198998Y-63006787D01*
X154924992Y-63130575D01*
X154771597Y-63451993D01*
X154683857Y-63797160D01*
X154665140Y-64152813D01*
X152575000Y-64152813D01*
X152575000Y-61851002D01*
X155416787Y-61851002D01*
X155540575Y-62125008D01*
X155861993Y-62278403D01*
X156013992Y-62317041D01*
X155708974Y-62424979D01*
X155540575Y-62514992D01*
X155416787Y-62788998D01*
X156480000Y-63852211D01*
X157543213Y-62788998D01*
X157419425Y-62514992D01*
X157098007Y-62361597D01*
X156946008Y-62322959D01*
X157251026Y-62215021D01*
X157419425Y-62125008D01*
X157543213Y-61851002D01*
X156480000Y-60787789D01*
X155416787Y-61851002D01*
X152575000Y-61851002D01*
X152575000Y-60652813D01*
X154665140Y-60652813D01*
X154716168Y-61005283D01*
X154834979Y-61341026D01*
X154924992Y-61509425D01*
X155198998Y-61633213D01*
X156262211Y-60570000D01*
X156697789Y-60570000D01*
X157761002Y-61633213D01*
X158035008Y-61509425D01*
X158188403Y-61188007D01*
X158276143Y-60842840D01*
X158282979Y-60712941D01*
X161777765Y-60712941D01*
X161837948Y-61040851D01*
X161960676Y-61350827D01*
X162141274Y-61631061D01*
X162372865Y-61870880D01*
X162646625Y-62061148D01*
X162952129Y-62194619D01*
X163277739Y-62266209D01*
X163611053Y-62273191D01*
X163939376Y-62215299D01*
X164250201Y-62094738D01*
X164531689Y-61916100D01*
X164773119Y-61686190D01*
X164904461Y-61500000D01*
X169925000Y-61500000D01*
X169925000Y-81500000D01*
X169930280Y-81553853D01*
X169935185Y-81607744D01*
X169935754Y-81609678D01*
X169935951Y-81611685D01*
X169951584Y-81663463D01*
X169966869Y-81715399D01*
X169967804Y-81717188D01*
X169968386Y-81719115D01*
X169993791Y-81766895D01*
X170018861Y-81814849D01*
X170020122Y-81816418D01*
X170021070Y-81818200D01*
X170055297Y-81860167D01*
X170089178Y-81902306D01*
X170090722Y-81903601D01*
X170091997Y-81905165D01*
X170133741Y-81939699D01*
X170175144Y-81974440D01*
X170176908Y-81975410D01*
X170178464Y-81976697D01*
X170226051Y-82002427D01*
X170273483Y-82028503D01*
X170275409Y-82029114D01*
X170277179Y-82030071D01*
X170328835Y-82046062D01*
X170380451Y-82062435D01*
X170382453Y-82062660D01*
X170384380Y-82063256D01*
X170438205Y-82068913D01*
X170491972Y-82074944D01*
X170495843Y-82074971D01*
X170495986Y-82074986D01*
X170496129Y-82074973D01*
X170500000Y-82075000D01*
X190500000Y-82075000D01*
X190553853Y-82069720D01*
X190607744Y-82064815D01*
X190609678Y-82064246D01*
X190611685Y-82064049D01*
X190663463Y-82048416D01*
X190715399Y-82033131D01*
X190717188Y-82032196D01*
X190719115Y-82031614D01*
X190766895Y-82006209D01*
X190814849Y-81981139D01*
X190816418Y-81979878D01*
X190818200Y-81978930D01*
X190860167Y-81944703D01*
X190902306Y-81910822D01*
X190903601Y-81909278D01*
X190905165Y-81908003D01*
X190939699Y-81866259D01*
X190974440Y-81824856D01*
X190975410Y-81823092D01*
X190976697Y-81821536D01*
X191002427Y-81773949D01*
X191028503Y-81726517D01*
X191029114Y-81724591D01*
X191030071Y-81722821D01*
X191046062Y-81671165D01*
X191062435Y-81619549D01*
X191062660Y-81617547D01*
X191063256Y-81615620D01*
X191068913Y-81561795D01*
X191074944Y-81508028D01*
X191074971Y-81504157D01*
X191074986Y-81504014D01*
X191074973Y-81503871D01*
X191075000Y-81500000D01*
X191075000Y-61500000D01*
X191069720Y-61446147D01*
X191064815Y-61392256D01*
X191064246Y-61390322D01*
X191064049Y-61388315D01*
X191048416Y-61336537D01*
X191033131Y-61284601D01*
X191032196Y-61282812D01*
X191031614Y-61280885D01*
X191006209Y-61233105D01*
X190981139Y-61185151D01*
X190979878Y-61183582D01*
X190978930Y-61181800D01*
X190944703Y-61139833D01*
X190910822Y-61097694D01*
X190909278Y-61096399D01*
X190908003Y-61094835D01*
X190866259Y-61060301D01*
X190824856Y-61025560D01*
X190823092Y-61024590D01*
X190821536Y-61023303D01*
X190773949Y-60997573D01*
X190726517Y-60971497D01*
X190724591Y-60970886D01*
X190722821Y-60969929D01*
X190671165Y-60953938D01*
X190619549Y-60937565D01*
X190617547Y-60937340D01*
X190615620Y-60936744D01*
X190561795Y-60931087D01*
X190508028Y-60925056D01*
X190504157Y-60925029D01*
X190504014Y-60925014D01*
X190503871Y-60925027D01*
X190500000Y-60925000D01*
X170500000Y-60925000D01*
X170446147Y-60930280D01*
X170392256Y-60935185D01*
X170390322Y-60935754D01*
X170388315Y-60935951D01*
X170336537Y-60951584D01*
X170284601Y-60966869D01*
X170282812Y-60967804D01*
X170280885Y-60968386D01*
X170233105Y-60993791D01*
X170185151Y-61018861D01*
X170183582Y-61020122D01*
X170181800Y-61021070D01*
X170139833Y-61055297D01*
X170097694Y-61089178D01*
X170096399Y-61090722D01*
X170094835Y-61091997D01*
X170060301Y-61133741D01*
X170025560Y-61175144D01*
X170024590Y-61176908D01*
X170023303Y-61178464D01*
X169997573Y-61226051D01*
X169971497Y-61273483D01*
X169970886Y-61275409D01*
X169969929Y-61277179D01*
X169953938Y-61328835D01*
X169937565Y-61380451D01*
X169937340Y-61382453D01*
X169936744Y-61384380D01*
X169931087Y-61438205D01*
X169925056Y-61491972D01*
X169925029Y-61495843D01*
X169925014Y-61495986D01*
X169925027Y-61496129D01*
X169925000Y-61500000D01*
X164904461Y-61500000D01*
X164965294Y-61413764D01*
X165100895Y-61109200D01*
X165174756Y-60784097D01*
X165180073Y-60403306D01*
X165115318Y-60076268D01*
X164988274Y-59768036D01*
X164803780Y-59490351D01*
X164568864Y-59253789D01*
X164292474Y-59067361D01*
X163985136Y-58938169D01*
X163658558Y-58871132D01*
X163325179Y-58868804D01*
X162997697Y-58931275D01*
X162688586Y-59056164D01*
X162409619Y-59238715D01*
X162171423Y-59471973D01*
X161983070Y-59747056D01*
X161851735Y-60053484D01*
X161782420Y-60379586D01*
X161777765Y-60712941D01*
X158282979Y-60712941D01*
X158294860Y-60487187D01*
X158243832Y-60134717D01*
X158125021Y-59798974D01*
X158035008Y-59630575D01*
X157761002Y-59506787D01*
X156697789Y-60570000D01*
X156262211Y-60570000D01*
X155198998Y-59506787D01*
X154924992Y-59630575D01*
X154771597Y-59951993D01*
X154683857Y-60297160D01*
X154665140Y-60652813D01*
X152575000Y-60652813D01*
X152575000Y-58351002D01*
X155416787Y-58351002D01*
X155540575Y-58625008D01*
X155861993Y-58778403D01*
X156013992Y-58817041D01*
X155708974Y-58924979D01*
X155540575Y-59014992D01*
X155416787Y-59288998D01*
X156480000Y-60352211D01*
X157543213Y-59288998D01*
X157419425Y-59014992D01*
X157098007Y-58861597D01*
X156946008Y-58822959D01*
X157251026Y-58715021D01*
X157419425Y-58625008D01*
X157543213Y-58351002D01*
X156480000Y-57287789D01*
X155416787Y-58351002D01*
X152575000Y-58351002D01*
X152575000Y-57152813D01*
X154665140Y-57152813D01*
X154716168Y-57505283D01*
X154834979Y-57841026D01*
X154924992Y-58009425D01*
X155198998Y-58133213D01*
X156262211Y-57070000D01*
X156697789Y-57070000D01*
X157761002Y-58133213D01*
X158035008Y-58009425D01*
X158188403Y-57688007D01*
X158276143Y-57342840D01*
X158294860Y-56987187D01*
X158243832Y-56634717D01*
X158125021Y-56298974D01*
X158035008Y-56130575D01*
X157761002Y-56006787D01*
X156697789Y-57070000D01*
X156262211Y-57070000D01*
X155198998Y-56006787D01*
X154924992Y-56130575D01*
X154771597Y-56451993D01*
X154683857Y-56797160D01*
X154665140Y-57152813D01*
X152575000Y-57152813D01*
X152575000Y-55788998D01*
X155416787Y-55788998D01*
X156480000Y-56852211D01*
X157462211Y-55870000D01*
X161777581Y-55870000D01*
X161777581Y-58270000D01*
X161787235Y-58368017D01*
X161815825Y-58462267D01*
X161862254Y-58549129D01*
X161924736Y-58625264D01*
X162000871Y-58687746D01*
X162087733Y-58734175D01*
X162181983Y-58762765D01*
X162280000Y-58772419D01*
X164680000Y-58772419D01*
X164778017Y-58762765D01*
X164872267Y-58734175D01*
X164959129Y-58687746D01*
X165035264Y-58625264D01*
X165097746Y-58549129D01*
X165117005Y-58513097D01*
X194044692Y-58513097D01*
X194234794Y-58843407D01*
X194649949Y-59051742D01*
X195097772Y-59175080D01*
X195561052Y-59208683D01*
X196021986Y-59151258D01*
X196462861Y-59005013D01*
X196765206Y-58843407D01*
X196955308Y-58513097D01*
X195500000Y-57057789D01*
X194044692Y-58513097D01*
X165117005Y-58513097D01*
X165144175Y-58462267D01*
X165172765Y-58368017D01*
X165182419Y-58270000D01*
X165182419Y-56901052D01*
X193131317Y-56901052D01*
X193188742Y-57361986D01*
X193334987Y-57802861D01*
X193496593Y-58105206D01*
X193826903Y-58295308D01*
X195282211Y-56840000D01*
X195717789Y-56840000D01*
X197173097Y-58295308D01*
X197503407Y-58105206D01*
X197711742Y-57690051D01*
X197835080Y-57242228D01*
X197868683Y-56778948D01*
X197811258Y-56318014D01*
X197665013Y-55877139D01*
X197503407Y-55574794D01*
X197173097Y-55384692D01*
X195717789Y-56840000D01*
X195282211Y-56840000D01*
X193826903Y-55384692D01*
X193496593Y-55574794D01*
X193288258Y-55989949D01*
X193164920Y-56437772D01*
X193131317Y-56901052D01*
X165182419Y-56901052D01*
X165182419Y-55870000D01*
X165178964Y-55834921D01*
X165325330Y-55867101D01*
X165580217Y-55872440D01*
X165831287Y-55828170D01*
X166068977Y-55735976D01*
X166284232Y-55599371D01*
X166468855Y-55423557D01*
X166615813Y-55215231D01*
X166637329Y-55166903D01*
X194044692Y-55166903D01*
X195500000Y-56622211D01*
X196955308Y-55166903D01*
X196765206Y-54836593D01*
X196350051Y-54628258D01*
X195902228Y-54504920D01*
X195438948Y-54471317D01*
X194978014Y-54528742D01*
X194537139Y-54674987D01*
X194234794Y-54836593D01*
X194044692Y-55166903D01*
X166637329Y-55166903D01*
X166719507Y-54982329D01*
X166775990Y-54733722D01*
X166780056Y-54442528D01*
X166730537Y-54192441D01*
X166633386Y-53956734D01*
X166492302Y-53744386D01*
X166312661Y-53563486D01*
X166101303Y-53420924D01*
X165866280Y-53322129D01*
X165616544Y-53270866D01*
X165361608Y-53269086D01*
X165111180Y-53316858D01*
X164874801Y-53412361D01*
X164779607Y-53474654D01*
X164780056Y-53442528D01*
X164730537Y-53192441D01*
X164633386Y-52956734D01*
X164492302Y-52744386D01*
X164312661Y-52563486D01*
X164101303Y-52420924D01*
X163866280Y-52322129D01*
X163616544Y-52270866D01*
X163361608Y-52269086D01*
X163111180Y-52316858D01*
X162874801Y-52412361D01*
X162661474Y-52551959D01*
X162479324Y-52730333D01*
X162335289Y-52940690D01*
X162234857Y-53175017D01*
X162181851Y-53424389D01*
X162178291Y-53679308D01*
X162224313Y-53930062D01*
X162318164Y-54167102D01*
X162456269Y-54381399D01*
X162633367Y-54564790D01*
X162842714Y-54710289D01*
X163076334Y-54812356D01*
X163325330Y-54867101D01*
X163580217Y-54872440D01*
X163831287Y-54828170D01*
X164068977Y-54735976D01*
X164178470Y-54666490D01*
X164178291Y-54679308D01*
X164224313Y-54930062D01*
X164318164Y-55167102D01*
X164447364Y-55367581D01*
X162280000Y-55367581D01*
X162181983Y-55377235D01*
X162087733Y-55405825D01*
X162000871Y-55452254D01*
X161924736Y-55514736D01*
X161862254Y-55590871D01*
X161815825Y-55677733D01*
X161787235Y-55771983D01*
X161777581Y-55870000D01*
X157462211Y-55870000D01*
X157543213Y-55788998D01*
X157419425Y-55514992D01*
X157098007Y-55361597D01*
X156752840Y-55273857D01*
X156397187Y-55255140D01*
X156044717Y-55306168D01*
X155708974Y-55424979D01*
X155540575Y-55514992D01*
X155416787Y-55788998D01*
X152575000Y-55788998D01*
X152575000Y-53179308D01*
X153178291Y-53179308D01*
X153224313Y-53430062D01*
X153318164Y-53667102D01*
X153456269Y-53881399D01*
X153633367Y-54064790D01*
X153842714Y-54210289D01*
X154076334Y-54312356D01*
X154325330Y-54367101D01*
X154580217Y-54372440D01*
X154831287Y-54328170D01*
X155068977Y-54235976D01*
X155284232Y-54099371D01*
X155289399Y-54094450D01*
X155318164Y-54167102D01*
X155456269Y-54381399D01*
X155633367Y-54564790D01*
X155842714Y-54710289D01*
X156076334Y-54812356D01*
X156325330Y-54867101D01*
X156580217Y-54872440D01*
X156831287Y-54828170D01*
X157068977Y-54735976D01*
X157284232Y-54599371D01*
X157468855Y-54423557D01*
X157615813Y-54215231D01*
X157719507Y-53982329D01*
X157775990Y-53733722D01*
X157780056Y-53442528D01*
X157730537Y-53192441D01*
X157651540Y-53000778D01*
X157827174Y-53000778D01*
X157903287Y-53415488D01*
X158058502Y-53807516D01*
X158286906Y-54161930D01*
X158579800Y-54465230D01*
X158926027Y-54705863D01*
X159312399Y-54874665D01*
X159724200Y-54965206D01*
X160145744Y-54974036D01*
X160560975Y-54900819D01*
X160954077Y-54748345D01*
X161310077Y-54522421D01*
X161615414Y-54231652D01*
X161858459Y-53887113D01*
X162029955Y-53501929D01*
X162123368Y-53090770D01*
X162130092Y-52609182D01*
X162048196Y-52195575D01*
X161887523Y-51805752D01*
X161654192Y-51454562D01*
X161357093Y-51155381D01*
X161007540Y-50919605D01*
X160618849Y-50756214D01*
X160205824Y-50671432D01*
X159784197Y-50668488D01*
X159370029Y-50747495D01*
X158979094Y-50905443D01*
X158626283Y-51136316D01*
X158325035Y-51431320D01*
X158086824Y-51779218D01*
X157920724Y-52166759D01*
X157833061Y-52579182D01*
X157827174Y-53000778D01*
X157651540Y-53000778D01*
X157633386Y-52956734D01*
X157492302Y-52744386D01*
X157312661Y-52563486D01*
X157101303Y-52420924D01*
X156866280Y-52322129D01*
X156616544Y-52270866D01*
X156361608Y-52269086D01*
X156111180Y-52316858D01*
X155874801Y-52412361D01*
X155670264Y-52546207D01*
X155633386Y-52456734D01*
X155492302Y-52244386D01*
X155312661Y-52063486D01*
X155101303Y-51920924D01*
X154866280Y-51822129D01*
X154616544Y-51770866D01*
X154361608Y-51769086D01*
X154111180Y-51816858D01*
X153874801Y-51912361D01*
X153661474Y-52051959D01*
X153479324Y-52230333D01*
X153335289Y-52440690D01*
X153234857Y-52675017D01*
X153181851Y-52924389D01*
X153178291Y-53179308D01*
X152575000Y-53179308D01*
X152575000Y-49600000D01*
X193461299Y-49600000D01*
X193394676Y-49654676D01*
G36*
X200154000Y-101106000D02*
X200174000Y-101106000D01*
X200174000Y-101414000D01*
X200154000Y-101414000D01*
X200154000Y-101434000D01*
X199846000Y-101434000D01*
X199846000Y-101414000D01*
X199826000Y-101414000D01*
X199826000Y-101106000D01*
X199846000Y-101106000D01*
X199846000Y-101086000D01*
X200154000Y-101086000D01*
X200154000Y-101106000D01*
X200154000Y-101106000D01*
G37*
X200154000Y-101106000D02*
X200174000Y-101106000D01*
X200174000Y-101414000D01*
X200154000Y-101414000D01*
X200154000Y-101434000D01*
X199846000Y-101434000D01*
X199846000Y-101414000D01*
X199826000Y-101414000D01*
X199826000Y-101106000D01*
X199846000Y-101106000D01*
X199846000Y-101086000D01*
X200154000Y-101086000D01*
X200154000Y-101106000D01*
G36*
X201281770Y-99225719D02*
X201403836Y-99459210D01*
X201568930Y-99664546D01*
X201770763Y-99833903D01*
X202001646Y-99960833D01*
X202092542Y-99989667D01*
X202019023Y-100011863D01*
X201786389Y-100135556D01*
X201582212Y-100302080D01*
X201414267Y-100505090D01*
X201325395Y-100669455D01*
X201263473Y-100532389D01*
X201097246Y-100299878D01*
X200888852Y-100104264D01*
X200646300Y-99953065D01*
X200589596Y-99931652D01*
X200753611Y-99844444D01*
X200957788Y-99677920D01*
X201125733Y-99474910D01*
X201251047Y-99243146D01*
X201269425Y-99183776D01*
X201281770Y-99225719D01*
X201281770Y-99225719D01*
G37*
X201281770Y-99225719D02*
X201403836Y-99459210D01*
X201568930Y-99664546D01*
X201770763Y-99833903D01*
X202001646Y-99960833D01*
X202092542Y-99989667D01*
X202019023Y-100011863D01*
X201786389Y-100135556D01*
X201582212Y-100302080D01*
X201414267Y-100505090D01*
X201325395Y-100669455D01*
X201263473Y-100532389D01*
X201097246Y-100299878D01*
X200888852Y-100104264D01*
X200646300Y-99953065D01*
X200589596Y-99931652D01*
X200753611Y-99844444D01*
X200957788Y-99677920D01*
X201125733Y-99474910D01*
X201251047Y-99243146D01*
X201269425Y-99183776D01*
X201281770Y-99225719D01*
G36*
X201276527Y-94367611D02*
X201442754Y-94600122D01*
X201651148Y-94795736D01*
X201893700Y-94946935D01*
X201950404Y-94968348D01*
X201786389Y-95055556D01*
X201582212Y-95222080D01*
X201414267Y-95425090D01*
X201288953Y-95656854D01*
X201270575Y-95716224D01*
X201258230Y-95674281D01*
X201136164Y-95440790D01*
X200971070Y-95235454D01*
X200769237Y-95066097D01*
X200538354Y-94939167D01*
X200447458Y-94910333D01*
X200520977Y-94888137D01*
X200753611Y-94764444D01*
X200957788Y-94597920D01*
X201125733Y-94394910D01*
X201214605Y-94230545D01*
X201276527Y-94367611D01*
X201276527Y-94367611D01*
G37*
X201276527Y-94367611D02*
X201442754Y-94600122D01*
X201651148Y-94795736D01*
X201893700Y-94946935D01*
X201950404Y-94968348D01*
X201786389Y-95055556D01*
X201582212Y-95222080D01*
X201414267Y-95425090D01*
X201288953Y-95656854D01*
X201270575Y-95716224D01*
X201258230Y-95674281D01*
X201136164Y-95440790D01*
X200971070Y-95235454D01*
X200769237Y-95066097D01*
X200538354Y-94939167D01*
X200447458Y-94910333D01*
X200520977Y-94888137D01*
X200753611Y-94764444D01*
X200957788Y-94597920D01*
X201125733Y-94394910D01*
X201214605Y-94230545D01*
X201276527Y-94367611D01*
G36*
X201281770Y-91605719D02*
X201403836Y-91839210D01*
X201568930Y-92044546D01*
X201770763Y-92213903D01*
X201949315Y-92312063D01*
X201893700Y-92333065D01*
X201651148Y-92484264D01*
X201442754Y-92679878D01*
X201276527Y-92912389D01*
X201214271Y-93050195D01*
X201136164Y-92900790D01*
X200971070Y-92695454D01*
X200769237Y-92526097D01*
X200538354Y-92399167D01*
X200447458Y-92370333D01*
X200520977Y-92348137D01*
X200753611Y-92224444D01*
X200957788Y-92057920D01*
X201125733Y-91854910D01*
X201251047Y-91623146D01*
X201269425Y-91563776D01*
X201281770Y-91605719D01*
X201281770Y-91605719D01*
G37*
X201281770Y-91605719D02*
X201403836Y-91839210D01*
X201568930Y-92044546D01*
X201770763Y-92213903D01*
X201949315Y-92312063D01*
X201893700Y-92333065D01*
X201651148Y-92484264D01*
X201442754Y-92679878D01*
X201276527Y-92912389D01*
X201214271Y-93050195D01*
X201136164Y-92900790D01*
X200971070Y-92695454D01*
X200769237Y-92526097D01*
X200538354Y-92399167D01*
X200447458Y-92370333D01*
X200520977Y-92348137D01*
X200753611Y-92224444D01*
X200957788Y-92057920D01*
X201125733Y-91854910D01*
X201251047Y-91623146D01*
X201269425Y-91563776D01*
X201281770Y-91605719D01*
G36*
X201276527Y-89287611D02*
X201442754Y-89520122D01*
X201651148Y-89715736D01*
X201893700Y-89866935D01*
X201950404Y-89888348D01*
X201786389Y-89975556D01*
X201582212Y-90142080D01*
X201414267Y-90345090D01*
X201288953Y-90576854D01*
X201270575Y-90636224D01*
X201258230Y-90594281D01*
X201136164Y-90360790D01*
X200971070Y-90155454D01*
X200769237Y-89986097D01*
X200538354Y-89859167D01*
X200447458Y-89830333D01*
X200520977Y-89808137D01*
X200753611Y-89684444D01*
X200957788Y-89517920D01*
X201125733Y-89314910D01*
X201214605Y-89150545D01*
X201276527Y-89287611D01*
X201276527Y-89287611D01*
G37*
X201276527Y-89287611D02*
X201442754Y-89520122D01*
X201651148Y-89715736D01*
X201893700Y-89866935D01*
X201950404Y-89888348D01*
X201786389Y-89975556D01*
X201582212Y-90142080D01*
X201414267Y-90345090D01*
X201288953Y-90576854D01*
X201270575Y-90636224D01*
X201258230Y-90594281D01*
X201136164Y-90360790D01*
X200971070Y-90155454D01*
X200769237Y-89986097D01*
X200538354Y-89859167D01*
X200447458Y-89830333D01*
X200520977Y-89808137D01*
X200753611Y-89684444D01*
X200957788Y-89517920D01*
X201125733Y-89314910D01*
X201214605Y-89150545D01*
X201276527Y-89287611D01*
G36*
X201281770Y-86525719D02*
X201403836Y-86759210D01*
X201568930Y-86964546D01*
X201770763Y-87133903D01*
X201949315Y-87232063D01*
X201893700Y-87253065D01*
X201651148Y-87404264D01*
X201442754Y-87599878D01*
X201276527Y-87832389D01*
X201214271Y-87970195D01*
X201136164Y-87820790D01*
X200971070Y-87615454D01*
X200769237Y-87446097D01*
X200538354Y-87319167D01*
X200447458Y-87290333D01*
X200520977Y-87268137D01*
X200753611Y-87144444D01*
X200957788Y-86977920D01*
X201125733Y-86774910D01*
X201251047Y-86543146D01*
X201269425Y-86483776D01*
X201281770Y-86525719D01*
X201281770Y-86525719D01*
G37*
X201281770Y-86525719D02*
X201403836Y-86759210D01*
X201568930Y-86964546D01*
X201770763Y-87133903D01*
X201949315Y-87232063D01*
X201893700Y-87253065D01*
X201651148Y-87404264D01*
X201442754Y-87599878D01*
X201276527Y-87832389D01*
X201214271Y-87970195D01*
X201136164Y-87820790D01*
X200971070Y-87615454D01*
X200769237Y-87446097D01*
X200538354Y-87319167D01*
X200447458Y-87290333D01*
X200520977Y-87268137D01*
X200753611Y-87144444D01*
X200957788Y-86977920D01*
X201125733Y-86774910D01*
X201251047Y-86543146D01*
X201269425Y-86483776D01*
X201281770Y-86525719D01*
G36*
X201403836Y-84219210D02*
X201568930Y-84424546D01*
X201770763Y-84593903D01*
X202001646Y-84720833D01*
X202092542Y-84749667D01*
X202019023Y-84771863D01*
X201786389Y-84895556D01*
X201582212Y-85062080D01*
X201414267Y-85265090D01*
X201288953Y-85496854D01*
X201270575Y-85556224D01*
X201258230Y-85514281D01*
X201136164Y-85280790D01*
X200971070Y-85075454D01*
X200769237Y-84906097D01*
X200590685Y-84807937D01*
X200646300Y-84786935D01*
X200888852Y-84635736D01*
X201097246Y-84440122D01*
X201263473Y-84207611D01*
X201325729Y-84069805D01*
X201403836Y-84219210D01*
X201403836Y-84219210D01*
G37*
X201403836Y-84219210D02*
X201568930Y-84424546D01*
X201770763Y-84593903D01*
X202001646Y-84720833D01*
X202092542Y-84749667D01*
X202019023Y-84771863D01*
X201786389Y-84895556D01*
X201582212Y-85062080D01*
X201414267Y-85265090D01*
X201288953Y-85496854D01*
X201270575Y-85556224D01*
X201258230Y-85514281D01*
X201136164Y-85280790D01*
X200971070Y-85075454D01*
X200769237Y-84906097D01*
X200590685Y-84807937D01*
X200646300Y-84786935D01*
X200888852Y-84635736D01*
X201097246Y-84440122D01*
X201263473Y-84207611D01*
X201325729Y-84069805D01*
X201403836Y-84219210D01*
G36*
X201281770Y-81445719D02*
X201403836Y-81679210D01*
X201568930Y-81884546D01*
X201770763Y-82053903D01*
X202001646Y-82180833D01*
X202092542Y-82209667D01*
X202019023Y-82231863D01*
X201786389Y-82355556D01*
X201582212Y-82522080D01*
X201414267Y-82725090D01*
X201325395Y-82889455D01*
X201263473Y-82752389D01*
X201097246Y-82519878D01*
X200888852Y-82324264D01*
X200646300Y-82173065D01*
X200589596Y-82151652D01*
X200753611Y-82064444D01*
X200957788Y-81897920D01*
X201125733Y-81694910D01*
X201251047Y-81463146D01*
X201269425Y-81403776D01*
X201281770Y-81445719D01*
X201281770Y-81445719D01*
G37*
X201281770Y-81445719D02*
X201403836Y-81679210D01*
X201568930Y-81884546D01*
X201770763Y-82053903D01*
X202001646Y-82180833D01*
X202092542Y-82209667D01*
X202019023Y-82231863D01*
X201786389Y-82355556D01*
X201582212Y-82522080D01*
X201414267Y-82725090D01*
X201325395Y-82889455D01*
X201263473Y-82752389D01*
X201097246Y-82519878D01*
X200888852Y-82324264D01*
X200646300Y-82173065D01*
X200589596Y-82151652D01*
X200753611Y-82064444D01*
X200957788Y-81897920D01*
X201125733Y-81694910D01*
X201251047Y-81463146D01*
X201269425Y-81403776D01*
X201281770Y-81445719D01*
G36*
X201276527Y-76587611D02*
X201442754Y-76820122D01*
X201651148Y-77015736D01*
X201893700Y-77166935D01*
X201950404Y-77188348D01*
X201786389Y-77275556D01*
X201582212Y-77442080D01*
X201414267Y-77645090D01*
X201288953Y-77876854D01*
X201270575Y-77936224D01*
X201258230Y-77894281D01*
X201136164Y-77660790D01*
X200971070Y-77455454D01*
X200769237Y-77286097D01*
X200538354Y-77159167D01*
X200447458Y-77130333D01*
X200520977Y-77108137D01*
X200753611Y-76984444D01*
X200957788Y-76817920D01*
X201125733Y-76614910D01*
X201214605Y-76450545D01*
X201276527Y-76587611D01*
X201276527Y-76587611D01*
G37*
X201276527Y-76587611D02*
X201442754Y-76820122D01*
X201651148Y-77015736D01*
X201893700Y-77166935D01*
X201950404Y-77188348D01*
X201786389Y-77275556D01*
X201582212Y-77442080D01*
X201414267Y-77645090D01*
X201288953Y-77876854D01*
X201270575Y-77936224D01*
X201258230Y-77894281D01*
X201136164Y-77660790D01*
X200971070Y-77455454D01*
X200769237Y-77286097D01*
X200538354Y-77159167D01*
X200447458Y-77130333D01*
X200520977Y-77108137D01*
X200753611Y-76984444D01*
X200957788Y-76817920D01*
X201125733Y-76614910D01*
X201214605Y-76450545D01*
X201276527Y-76587611D01*
G36*
X201281770Y-73825719D02*
X201403836Y-74059210D01*
X201568930Y-74264546D01*
X201770763Y-74433903D01*
X201949315Y-74532063D01*
X201893700Y-74553065D01*
X201651148Y-74704264D01*
X201442754Y-74899878D01*
X201276527Y-75132389D01*
X201214271Y-75270195D01*
X201136164Y-75120790D01*
X200971070Y-74915454D01*
X200769237Y-74746097D01*
X200538354Y-74619167D01*
X200447458Y-74590333D01*
X200520977Y-74568137D01*
X200753611Y-74444444D01*
X200957788Y-74277920D01*
X201125733Y-74074910D01*
X201251047Y-73843146D01*
X201269425Y-73783776D01*
X201281770Y-73825719D01*
X201281770Y-73825719D01*
G37*
X201281770Y-73825719D02*
X201403836Y-74059210D01*
X201568930Y-74264546D01*
X201770763Y-74433903D01*
X201949315Y-74532063D01*
X201893700Y-74553065D01*
X201651148Y-74704264D01*
X201442754Y-74899878D01*
X201276527Y-75132389D01*
X201214271Y-75270195D01*
X201136164Y-75120790D01*
X200971070Y-74915454D01*
X200769237Y-74746097D01*
X200538354Y-74619167D01*
X200447458Y-74590333D01*
X200520977Y-74568137D01*
X200753611Y-74444444D01*
X200957788Y-74277920D01*
X201125733Y-74074910D01*
X201251047Y-73843146D01*
X201269425Y-73783776D01*
X201281770Y-73825719D01*
G36*
X201276527Y-68967611D02*
X201442754Y-69200122D01*
X201651148Y-69395736D01*
X201893700Y-69546935D01*
X201950404Y-69568348D01*
X201786389Y-69655556D01*
X201582212Y-69822080D01*
X201414267Y-70025090D01*
X201288953Y-70256854D01*
X201270575Y-70316224D01*
X201258230Y-70274281D01*
X201136164Y-70040790D01*
X200971070Y-69835454D01*
X200769237Y-69666097D01*
X200538354Y-69539167D01*
X200447458Y-69510333D01*
X200520977Y-69488137D01*
X200753611Y-69364444D01*
X200957788Y-69197920D01*
X201125733Y-68994910D01*
X201214605Y-68830545D01*
X201276527Y-68967611D01*
X201276527Y-68967611D01*
G37*
X201276527Y-68967611D02*
X201442754Y-69200122D01*
X201651148Y-69395736D01*
X201893700Y-69546935D01*
X201950404Y-69568348D01*
X201786389Y-69655556D01*
X201582212Y-69822080D01*
X201414267Y-70025090D01*
X201288953Y-70256854D01*
X201270575Y-70316224D01*
X201258230Y-70274281D01*
X201136164Y-70040790D01*
X200971070Y-69835454D01*
X200769237Y-69666097D01*
X200538354Y-69539167D01*
X200447458Y-69510333D01*
X200520977Y-69488137D01*
X200753611Y-69364444D01*
X200957788Y-69197920D01*
X201125733Y-68994910D01*
X201214605Y-68830545D01*
X201276527Y-68967611D01*
G36*
X201281770Y-66205719D02*
X201403836Y-66439210D01*
X201568930Y-66644546D01*
X201770763Y-66813903D01*
X201949315Y-66912063D01*
X201893700Y-66933065D01*
X201651148Y-67084264D01*
X201442754Y-67279878D01*
X201276527Y-67512389D01*
X201214271Y-67650195D01*
X201136164Y-67500790D01*
X200971070Y-67295454D01*
X200769237Y-67126097D01*
X200538354Y-66999167D01*
X200447458Y-66970333D01*
X200520977Y-66948137D01*
X200753611Y-66824444D01*
X200957788Y-66657920D01*
X201125733Y-66454910D01*
X201251047Y-66223146D01*
X201269425Y-66163776D01*
X201281770Y-66205719D01*
X201281770Y-66205719D01*
G37*
X201281770Y-66205719D02*
X201403836Y-66439210D01*
X201568930Y-66644546D01*
X201770763Y-66813903D01*
X201949315Y-66912063D01*
X201893700Y-66933065D01*
X201651148Y-67084264D01*
X201442754Y-67279878D01*
X201276527Y-67512389D01*
X201214271Y-67650195D01*
X201136164Y-67500790D01*
X200971070Y-67295454D01*
X200769237Y-67126097D01*
X200538354Y-66999167D01*
X200447458Y-66970333D01*
X200520977Y-66948137D01*
X200753611Y-66824444D01*
X200957788Y-66657920D01*
X201125733Y-66454910D01*
X201251047Y-66223146D01*
X201269425Y-66163776D01*
X201281770Y-66205719D01*
G36*
X201403836Y-63899210D02*
X201568930Y-64104546D01*
X201770763Y-64273903D01*
X202001646Y-64400833D01*
X202092542Y-64429667D01*
X202019023Y-64451863D01*
X201786389Y-64575556D01*
X201582212Y-64742080D01*
X201414267Y-64945090D01*
X201288953Y-65176854D01*
X201270575Y-65236224D01*
X201258230Y-65194281D01*
X201136164Y-64960790D01*
X200971070Y-64755454D01*
X200769237Y-64586097D01*
X200590685Y-64487937D01*
X200646300Y-64466935D01*
X200888852Y-64315736D01*
X201097246Y-64120122D01*
X201263473Y-63887611D01*
X201325729Y-63749805D01*
X201403836Y-63899210D01*
X201403836Y-63899210D01*
G37*
X201403836Y-63899210D02*
X201568930Y-64104546D01*
X201770763Y-64273903D01*
X202001646Y-64400833D01*
X202092542Y-64429667D01*
X202019023Y-64451863D01*
X201786389Y-64575556D01*
X201582212Y-64742080D01*
X201414267Y-64945090D01*
X201288953Y-65176854D01*
X201270575Y-65236224D01*
X201258230Y-65194281D01*
X201136164Y-64960790D01*
X200971070Y-64755454D01*
X200769237Y-64586097D01*
X200590685Y-64487937D01*
X200646300Y-64466935D01*
X200888852Y-64315736D01*
X201097246Y-64120122D01*
X201263473Y-63887611D01*
X201325729Y-63749805D01*
X201403836Y-63899210D01*
G36*
X201281770Y-61125719D02*
X201403836Y-61359210D01*
X201568930Y-61564546D01*
X201770763Y-61733903D01*
X202001646Y-61860833D01*
X202092542Y-61889667D01*
X202019023Y-61911863D01*
X201786389Y-62035556D01*
X201582212Y-62202080D01*
X201414267Y-62405090D01*
X201325395Y-62569455D01*
X201263473Y-62432389D01*
X201097246Y-62199878D01*
X200888852Y-62004264D01*
X200646300Y-61853065D01*
X200589596Y-61831652D01*
X200753611Y-61744444D01*
X200957788Y-61577920D01*
X201125733Y-61374910D01*
X201251047Y-61143146D01*
X201269425Y-61083776D01*
X201281770Y-61125719D01*
X201281770Y-61125719D01*
G37*
X201281770Y-61125719D02*
X201403836Y-61359210D01*
X201568930Y-61564546D01*
X201770763Y-61733903D01*
X202001646Y-61860833D01*
X202092542Y-61889667D01*
X202019023Y-61911863D01*
X201786389Y-62035556D01*
X201582212Y-62202080D01*
X201414267Y-62405090D01*
X201325395Y-62569455D01*
X201263473Y-62432389D01*
X201097246Y-62199878D01*
X200888852Y-62004264D01*
X200646300Y-61853065D01*
X200589596Y-61831652D01*
X200753611Y-61744444D01*
X200957788Y-61577920D01*
X201125733Y-61374910D01*
X201251047Y-61143146D01*
X201269425Y-61083776D01*
X201281770Y-61125719D01*
G36*
X201276527Y-58807611D02*
X201442754Y-59040122D01*
X201651148Y-59235736D01*
X201893700Y-59386935D01*
X201950404Y-59408348D01*
X201786389Y-59495556D01*
X201582212Y-59662080D01*
X201414267Y-59865090D01*
X201288953Y-60096854D01*
X201270575Y-60156224D01*
X201258230Y-60114281D01*
X201136164Y-59880790D01*
X200971070Y-59675454D01*
X200769237Y-59506097D01*
X200538354Y-59379167D01*
X200447458Y-59350333D01*
X200520977Y-59328137D01*
X200753611Y-59204444D01*
X200957788Y-59037920D01*
X201125733Y-58834910D01*
X201214605Y-58670545D01*
X201276527Y-58807611D01*
X201276527Y-58807611D01*
G37*
X201276527Y-58807611D02*
X201442754Y-59040122D01*
X201651148Y-59235736D01*
X201893700Y-59386935D01*
X201950404Y-59408348D01*
X201786389Y-59495556D01*
X201582212Y-59662080D01*
X201414267Y-59865090D01*
X201288953Y-60096854D01*
X201270575Y-60156224D01*
X201258230Y-60114281D01*
X201136164Y-59880790D01*
X200971070Y-59675454D01*
X200769237Y-59506097D01*
X200538354Y-59379167D01*
X200447458Y-59350333D01*
X200520977Y-59328137D01*
X200753611Y-59204444D01*
X200957788Y-59037920D01*
X201125733Y-58834910D01*
X201214605Y-58670545D01*
X201276527Y-58807611D01*
G36*
X201281770Y-56045719D02*
X201403836Y-56279210D01*
X201568930Y-56484546D01*
X201770763Y-56653903D01*
X201949315Y-56752063D01*
X201893700Y-56773065D01*
X201651148Y-56924264D01*
X201442754Y-57119878D01*
X201276527Y-57352389D01*
X201214271Y-57490195D01*
X201136164Y-57340790D01*
X200971070Y-57135454D01*
X200769237Y-56966097D01*
X200538354Y-56839167D01*
X200447458Y-56810333D01*
X200520977Y-56788137D01*
X200753611Y-56664444D01*
X200957788Y-56497920D01*
X201125733Y-56294910D01*
X201251047Y-56063146D01*
X201269425Y-56003776D01*
X201281770Y-56045719D01*
X201281770Y-56045719D01*
G37*
X201281770Y-56045719D02*
X201403836Y-56279210D01*
X201568930Y-56484546D01*
X201770763Y-56653903D01*
X201949315Y-56752063D01*
X201893700Y-56773065D01*
X201651148Y-56924264D01*
X201442754Y-57119878D01*
X201276527Y-57352389D01*
X201214271Y-57490195D01*
X201136164Y-57340790D01*
X200971070Y-57135454D01*
X200769237Y-56966097D01*
X200538354Y-56839167D01*
X200447458Y-56810333D01*
X200520977Y-56788137D01*
X200753611Y-56664444D01*
X200957788Y-56497920D01*
X201125733Y-56294910D01*
X201251047Y-56063146D01*
X201269425Y-56003776D01*
X201281770Y-56045719D01*
G36*
X201403836Y-53739210D02*
X201568930Y-53944546D01*
X201770763Y-54113903D01*
X202001646Y-54240833D01*
X202092542Y-54269667D01*
X202019023Y-54291863D01*
X201786389Y-54415556D01*
X201582212Y-54582080D01*
X201414267Y-54785090D01*
X201288953Y-55016854D01*
X201270575Y-55076224D01*
X201258230Y-55034281D01*
X201136164Y-54800790D01*
X200971070Y-54595454D01*
X200769237Y-54426097D01*
X200635218Y-54352419D01*
X200850000Y-54352419D01*
X200948017Y-54342765D01*
X201042267Y-54314175D01*
X201129129Y-54267746D01*
X201205264Y-54205264D01*
X201267746Y-54129129D01*
X201314175Y-54042267D01*
X201342765Y-53948017D01*
X201352419Y-53850000D01*
X201352419Y-53640858D01*
X201403836Y-53739210D01*
X201403836Y-53739210D01*
G37*
X201403836Y-53739210D02*
X201568930Y-53944546D01*
X201770763Y-54113903D01*
X202001646Y-54240833D01*
X202092542Y-54269667D01*
X202019023Y-54291863D01*
X201786389Y-54415556D01*
X201582212Y-54582080D01*
X201414267Y-54785090D01*
X201288953Y-55016854D01*
X201270575Y-55076224D01*
X201258230Y-55034281D01*
X201136164Y-54800790D01*
X200971070Y-54595454D01*
X200769237Y-54426097D01*
X200635218Y-54352419D01*
X200850000Y-54352419D01*
X200948017Y-54342765D01*
X201042267Y-54314175D01*
X201129129Y-54267746D01*
X201205264Y-54205264D01*
X201267746Y-54129129D01*
X201314175Y-54042267D01*
X201342765Y-53948017D01*
X201352419Y-53850000D01*
X201352419Y-53640858D01*
X201403836Y-53739210D01*
M02*
