M48
INCH,TZ
T1C0.016
T2C0.039
T3C0.059
T4C0.063
%
G90
G05
T1
X62008Y-20472
X62693Y-38988
X63189Y-22024
X64016Y-20409
X64252Y-38673
X65161Y-37028
X65280Y-27240
X65366Y-23835
X65547Y-22508
X65945Y-31445
X66000Y-25925
X66142Y-20472
X66169Y-28874
X66244Y-39020
X66465Y-32835
X66547Y-38091
X66551Y-35874
X66654Y-27256
X66705Y-30165
X66717Y-24559
X67177Y-23244
X67272Y-21181
X67319Y-22114
X67610Y-32547
X67665Y-34374
X67669Y-36465
X67689Y-38587
X68594Y-23437
X68807Y-22047
X68945Y-37366
X69035Y-35217
X69094Y-38913
X69260Y-33764
X69315Y-32453
X69362Y-34469
X69406Y-36579
X69433Y-23870
X69535Y-19661
X69583Y-35772
X69665Y-37874
X69689Y-33087
X70091Y-22760
X70150Y-20551
X70429Y-21303
X70476Y-23559
X70657Y-20012
X70724Y-22067
X71020Y-34508
X71051Y-36630
X71146Y-38945
X71909Y-22091
X71941Y-34579
X72059Y-21449
X72169Y-23693
X72248Y-32461
X72480Y-38909
X72512Y-36630
X73118Y-19681
X73276Y-21433
X73429Y-23650
X73945Y-22539
X74299Y-37917
X74343Y-32654
X74382Y-35134
X74413Y-19850
X74472Y-20925
X74594Y-23681
X74606Y-38976
X75220Y-36398
X75437Y-22024
X75579Y-20870
X75870Y-33449
X76004Y-34961
X76008Y-38067
X77043Y-31740
X77059Y-26571
X77063Y-29094
X77138Y-23740
X77264Y-38681
X77437Y-37535
X77453Y-36933
X77657Y-36079
X78028Y-20740
X78094Y-35732
X78122Y-36480
X78150Y-38150
X78311Y-31366
X78323Y-29366
X78339Y-27366
X80268Y-38354
X80280Y-20457
X80307Y-21413
X80307Y-28386
X80346Y-40161
T2
X78740Y-20866
X78740Y-21866
X78740Y-22866
X78740Y-23866
X78740Y-24866
X78740Y-25866
X78740Y-26866
X78740Y-27866
X78740Y-28866
X78740Y-29866
X78740Y-30866
X78740Y-31866
X78740Y-32866
X78740Y-33866
X78740Y-34866
X78740Y-35866
X78740Y-36866
X78740Y-37866
X78740Y-38866
X78740Y-39866
X79740Y-20866
X79740Y-21866
X79740Y-22866
X79740Y-23866
X79740Y-24866
X79740Y-25866
X79740Y-26866
X79740Y-27866
X79740Y-28866
X79740Y-29866
X79740Y-30866
X79740Y-31866
X79740Y-32866
X79740Y-33866
X79740Y-34866
X79740Y-35866
X79740Y-36866
X79740Y-37866
X79740Y-38866
X79740Y-39866
T3
X76969Y-20378
X76969Y-22378
T4
X61606Y-22469
X61606Y-23846
X61606Y-25224
X61606Y-26602
X61606Y-27980
X61606Y-29358
X61606Y-30736
X61606Y-32114
X61606Y-33492
X61606Y-34870
X61606Y-36248
X64362Y-22469
X64362Y-23846
X64362Y-25224
X64362Y-26602
X64362Y-27980
X64362Y-29358
X64362Y-30736
X64362Y-32114
X64362Y-33492
X64362Y-34870
X64362Y-36248
T0
M30
