G04 #@! TF.GenerationSoftware,KiCad,Pcbnew,(2017-11-06 revision 9df4ae65e)-makepkg*
G04 #@! TF.CreationDate,2019-02-04T19:17:38-08:00*
G04 #@! TF.ProjectId,Behavior rig board,4265686176696F722072696720626F61,rev?*
G04 #@! TF.SameCoordinates,Original*
G04 #@! TF.FileFunction,Legend,Bot*
G04 #@! TF.FilePolarity,Positive*
%FSLAX46Y46*%
G04 Gerber Fmt 4.6, Leading zero omitted, Abs format (unit mm)*
G04 Created by KiCad (PCBNEW (2017-11-06 revision 9df4ae65e)-makepkg) date 02/04/19 19:17:38*
%MOMM*%
%LPD*%
G01*
G04 APERTURE LIST*
%ADD10C,0.150000*%
G04 APERTURE END LIST*
D10*
X197614404Y-95192380D02*
X197614404Y-94192380D01*
X197376309Y-94192380D01*
X197233452Y-94240000D01*
X197138214Y-94335238D01*
X197090595Y-94430476D01*
X197042976Y-94620952D01*
X197042976Y-94763809D01*
X197090595Y-94954285D01*
X197138214Y-95049523D01*
X197233452Y-95144761D01*
X197376309Y-95192380D01*
X197614404Y-95192380D01*
X196233452Y-95144761D02*
X196328690Y-95192380D01*
X196519166Y-95192380D01*
X196614404Y-95144761D01*
X196662023Y-95049523D01*
X196662023Y-94668571D01*
X196614404Y-94573333D01*
X196519166Y-94525714D01*
X196328690Y-94525714D01*
X196233452Y-94573333D01*
X196185833Y-94668571D01*
X196185833Y-94763809D01*
X196662023Y-94859047D01*
X195804880Y-95144761D02*
X195709642Y-95192380D01*
X195519166Y-95192380D01*
X195423928Y-95144761D01*
X195376309Y-95049523D01*
X195376309Y-95001904D01*
X195423928Y-94906666D01*
X195519166Y-94859047D01*
X195662023Y-94859047D01*
X195757261Y-94811428D01*
X195804880Y-94716190D01*
X195804880Y-94668571D01*
X195757261Y-94573333D01*
X195662023Y-94525714D01*
X195519166Y-94525714D01*
X195423928Y-94573333D01*
X194947738Y-95192380D02*
X194947738Y-94525714D01*
X194947738Y-94192380D02*
X194995357Y-94240000D01*
X194947738Y-94287619D01*
X194900119Y-94240000D01*
X194947738Y-94192380D01*
X194947738Y-94287619D01*
X194042976Y-94525714D02*
X194042976Y-95335238D01*
X194090595Y-95430476D01*
X194138214Y-95478095D01*
X194233452Y-95525714D01*
X194376309Y-95525714D01*
X194471547Y-95478095D01*
X194042976Y-95144761D02*
X194138214Y-95192380D01*
X194328690Y-95192380D01*
X194423928Y-95144761D01*
X194471547Y-95097142D01*
X194519166Y-95001904D01*
X194519166Y-94716190D01*
X194471547Y-94620952D01*
X194423928Y-94573333D01*
X194328690Y-94525714D01*
X194138214Y-94525714D01*
X194042976Y-94573333D01*
X193566785Y-94525714D02*
X193566785Y-95192380D01*
X193566785Y-94620952D02*
X193519166Y-94573333D01*
X193423928Y-94525714D01*
X193281071Y-94525714D01*
X193185833Y-94573333D01*
X193138214Y-94668571D01*
X193138214Y-95192380D01*
X192281071Y-95144761D02*
X192376309Y-95192380D01*
X192566785Y-95192380D01*
X192662023Y-95144761D01*
X192709642Y-95049523D01*
X192709642Y-94668571D01*
X192662023Y-94573333D01*
X192566785Y-94525714D01*
X192376309Y-94525714D01*
X192281071Y-94573333D01*
X192233452Y-94668571D01*
X192233452Y-94763809D01*
X192709642Y-94859047D01*
X191376309Y-95192380D02*
X191376309Y-94192380D01*
X191376309Y-95144761D02*
X191471547Y-95192380D01*
X191662023Y-95192380D01*
X191757261Y-95144761D01*
X191804880Y-95097142D01*
X191852500Y-95001904D01*
X191852500Y-94716190D01*
X191804880Y-94620952D01*
X191757261Y-94573333D01*
X191662023Y-94525714D01*
X191471547Y-94525714D01*
X191376309Y-94573333D01*
X190138214Y-95192380D02*
X190138214Y-94192380D01*
X190138214Y-94573333D02*
X190042976Y-94525714D01*
X189852500Y-94525714D01*
X189757261Y-94573333D01*
X189709642Y-94620952D01*
X189662023Y-94716190D01*
X189662023Y-95001904D01*
X189709642Y-95097142D01*
X189757261Y-95144761D01*
X189852500Y-95192380D01*
X190042976Y-95192380D01*
X190138214Y-95144761D01*
X189328690Y-94525714D02*
X189090595Y-95192380D01*
X188852500Y-94525714D02*
X189090595Y-95192380D01*
X189185833Y-95430476D01*
X189233452Y-95478095D01*
X189328690Y-95525714D01*
X188471547Y-95097142D02*
X188423928Y-95144761D01*
X188471547Y-95192380D01*
X188519166Y-95144761D01*
X188471547Y-95097142D01*
X188471547Y-95192380D01*
X188471547Y-94573333D02*
X188423928Y-94620952D01*
X188471547Y-94668571D01*
X188519166Y-94620952D01*
X188471547Y-94573333D01*
X188471547Y-94668571D01*
X186900119Y-94668571D02*
X186757261Y-94716190D01*
X186709642Y-94763809D01*
X186662023Y-94859047D01*
X186662023Y-95001904D01*
X186709642Y-95097142D01*
X186757261Y-95144761D01*
X186852500Y-95192380D01*
X187233452Y-95192380D01*
X187233452Y-94192380D01*
X186900119Y-94192380D01*
X186804880Y-94240000D01*
X186757261Y-94287619D01*
X186709642Y-94382857D01*
X186709642Y-94478095D01*
X186757261Y-94573333D01*
X186804880Y-94620952D01*
X186900119Y-94668571D01*
X187233452Y-94668571D01*
X185852500Y-95144761D02*
X185947738Y-95192380D01*
X186138214Y-95192380D01*
X186233452Y-95144761D01*
X186281071Y-95049523D01*
X186281071Y-94668571D01*
X186233452Y-94573333D01*
X186138214Y-94525714D01*
X185947738Y-94525714D01*
X185852500Y-94573333D01*
X185804880Y-94668571D01*
X185804880Y-94763809D01*
X186281071Y-94859047D01*
X185376309Y-94525714D02*
X185376309Y-95192380D01*
X185376309Y-94620952D02*
X185328690Y-94573333D01*
X185233452Y-94525714D01*
X185090595Y-94525714D01*
X184995357Y-94573333D01*
X184947738Y-94668571D01*
X184947738Y-95192380D01*
X184471547Y-94525714D02*
X184471547Y-95382857D01*
X184519166Y-95478095D01*
X184614404Y-95525714D01*
X184662023Y-95525714D01*
X184471547Y-94192380D02*
X184519166Y-94240000D01*
X184471547Y-94287619D01*
X184423928Y-94240000D01*
X184471547Y-94192380D01*
X184471547Y-94287619D01*
X183566785Y-95192380D02*
X183566785Y-94668571D01*
X183614404Y-94573333D01*
X183709642Y-94525714D01*
X183900119Y-94525714D01*
X183995357Y-94573333D01*
X183566785Y-95144761D02*
X183662023Y-95192380D01*
X183900119Y-95192380D01*
X183995357Y-95144761D01*
X184042976Y-95049523D01*
X184042976Y-94954285D01*
X183995357Y-94859047D01*
X183900119Y-94811428D01*
X183662023Y-94811428D01*
X183566785Y-94763809D01*
X183090595Y-95192380D02*
X183090595Y-94525714D01*
X183090595Y-94620952D02*
X183042976Y-94573333D01*
X182947738Y-94525714D01*
X182804880Y-94525714D01*
X182709642Y-94573333D01*
X182662023Y-94668571D01*
X182662023Y-95192380D01*
X182662023Y-94668571D02*
X182614404Y-94573333D01*
X182519166Y-94525714D01*
X182376309Y-94525714D01*
X182281071Y-94573333D01*
X182233452Y-94668571D01*
X182233452Y-95192380D01*
X181757261Y-95192380D02*
X181757261Y-94525714D01*
X181757261Y-94192380D02*
X181804880Y-94240000D01*
X181757261Y-94287619D01*
X181709642Y-94240000D01*
X181757261Y-94192380D01*
X181757261Y-94287619D01*
X181281071Y-94525714D02*
X181281071Y-95192380D01*
X181281071Y-94620952D02*
X181233452Y-94573333D01*
X181138214Y-94525714D01*
X180995357Y-94525714D01*
X180900119Y-94573333D01*
X180852500Y-94668571D01*
X180852500Y-95192380D01*
X179614404Y-94668571D02*
X179281071Y-94668571D01*
X179138214Y-95192380D02*
X179614404Y-95192380D01*
X179614404Y-94192380D01*
X179138214Y-94192380D01*
X178709642Y-95097142D02*
X178662023Y-95144761D01*
X178709642Y-95192380D01*
X178757261Y-95144761D01*
X178709642Y-95097142D01*
X178709642Y-95192380D01*
X177519166Y-95144761D02*
X177376309Y-95192380D01*
X177138214Y-95192380D01*
X177042976Y-95144761D01*
X176995357Y-95097142D01*
X176947738Y-95001904D01*
X176947738Y-94906666D01*
X176995357Y-94811428D01*
X177042976Y-94763809D01*
X177138214Y-94716190D01*
X177328690Y-94668571D01*
X177423928Y-94620952D01*
X177471547Y-94573333D01*
X177519166Y-94478095D01*
X177519166Y-94382857D01*
X177471547Y-94287619D01*
X177423928Y-94240000D01*
X177328690Y-94192380D01*
X177090595Y-94192380D01*
X176947738Y-94240000D01*
X176519166Y-95192380D02*
X176519166Y-94525714D01*
X176519166Y-94620952D02*
X176471547Y-94573333D01*
X176376309Y-94525714D01*
X176233452Y-94525714D01*
X176138214Y-94573333D01*
X176090595Y-94668571D01*
X176090595Y-95192380D01*
X176090595Y-94668571D02*
X176042976Y-94573333D01*
X175947738Y-94525714D01*
X175804880Y-94525714D01*
X175709642Y-94573333D01*
X175662023Y-94668571D01*
X175662023Y-95192380D01*
X175185833Y-95192380D02*
X175185833Y-94525714D01*
X175185833Y-94192380D02*
X175233452Y-94240000D01*
X175185833Y-94287619D01*
X175138214Y-94240000D01*
X175185833Y-94192380D01*
X175185833Y-94287619D01*
X174852500Y-94525714D02*
X174471547Y-94525714D01*
X174709642Y-94192380D02*
X174709642Y-95049523D01*
X174662023Y-95144761D01*
X174566785Y-95192380D01*
X174471547Y-95192380D01*
X174138214Y-95192380D02*
X174138214Y-94192380D01*
X173709642Y-95192380D02*
X173709642Y-94668571D01*
X173757261Y-94573333D01*
X173852500Y-94525714D01*
X173995357Y-94525714D01*
X174090595Y-94573333D01*
X174138214Y-94620952D01*
X197281071Y-96318571D02*
X197614404Y-96318571D01*
X197614404Y-96842380D02*
X197614404Y-95842380D01*
X197138214Y-95842380D01*
X196328690Y-96175714D02*
X196328690Y-96842380D01*
X196757261Y-96175714D02*
X196757261Y-96699523D01*
X196709642Y-96794761D01*
X196614404Y-96842380D01*
X196471547Y-96842380D01*
X196376309Y-96794761D01*
X196328690Y-96747142D01*
X195852500Y-96175714D02*
X195852500Y-96842380D01*
X195852500Y-96270952D02*
X195804880Y-96223333D01*
X195709642Y-96175714D01*
X195566785Y-96175714D01*
X195471547Y-96223333D01*
X195423928Y-96318571D01*
X195423928Y-96842380D01*
X194519166Y-96842380D02*
X194519166Y-95842380D01*
X194519166Y-96794761D02*
X194614404Y-96842380D01*
X194804880Y-96842380D01*
X194900119Y-96794761D01*
X194947738Y-96747142D01*
X194995357Y-96651904D01*
X194995357Y-96366190D01*
X194947738Y-96270952D01*
X194900119Y-96223333D01*
X194804880Y-96175714D01*
X194614404Y-96175714D01*
X194519166Y-96223333D01*
X193662023Y-96794761D02*
X193757261Y-96842380D01*
X193947738Y-96842380D01*
X194042976Y-96794761D01*
X194090595Y-96699523D01*
X194090595Y-96318571D01*
X194042976Y-96223333D01*
X193947738Y-96175714D01*
X193757261Y-96175714D01*
X193662023Y-96223333D01*
X193614404Y-96318571D01*
X193614404Y-96413809D01*
X194090595Y-96509047D01*
X192757261Y-96842380D02*
X192757261Y-95842380D01*
X192757261Y-96794761D02*
X192852500Y-96842380D01*
X193042976Y-96842380D01*
X193138214Y-96794761D01*
X193185833Y-96747142D01*
X193233452Y-96651904D01*
X193233452Y-96366190D01*
X193185833Y-96270952D01*
X193138214Y-96223333D01*
X193042976Y-96175714D01*
X192852500Y-96175714D01*
X192757261Y-96223333D01*
X191519166Y-96842380D02*
X191519166Y-95842380D01*
X191519166Y-96223333D02*
X191423928Y-96175714D01*
X191233452Y-96175714D01*
X191138214Y-96223333D01*
X191090595Y-96270952D01*
X191042976Y-96366190D01*
X191042976Y-96651904D01*
X191090595Y-96747142D01*
X191138214Y-96794761D01*
X191233452Y-96842380D01*
X191423928Y-96842380D01*
X191519166Y-96794761D01*
X190709642Y-96175714D02*
X190471547Y-96842380D01*
X190233452Y-96175714D02*
X190471547Y-96842380D01*
X190566785Y-97080476D01*
X190614404Y-97128095D01*
X190709642Y-97175714D01*
X189852500Y-96747142D02*
X189804880Y-96794761D01*
X189852500Y-96842380D01*
X189900119Y-96794761D01*
X189852500Y-96747142D01*
X189852500Y-96842380D01*
X189852500Y-96223333D02*
X189804880Y-96270952D01*
X189852500Y-96318571D01*
X189900119Y-96270952D01*
X189852500Y-96223333D01*
X189852500Y-96318571D01*
X188614404Y-96842380D02*
X188614404Y-95842380D01*
X188042976Y-96842380D01*
X188042976Y-95842380D01*
X187566785Y-96842380D02*
X187566785Y-95842380D01*
X187090595Y-96842380D02*
X187090595Y-95842380D01*
X187090595Y-96318571D02*
X186519166Y-96318571D01*
X186519166Y-96842380D02*
X186519166Y-95842380D01*
X185281071Y-96842380D02*
X185281071Y-95842380D01*
X184900119Y-95842380D01*
X184804880Y-95890000D01*
X184757261Y-95937619D01*
X184709642Y-96032857D01*
X184709642Y-96175714D01*
X184757261Y-96270952D01*
X184804880Y-96318571D01*
X184900119Y-96366190D01*
X185281071Y-96366190D01*
X184376309Y-95842380D02*
X183757261Y-95842380D01*
X184090595Y-96223333D01*
X183947738Y-96223333D01*
X183852500Y-96270952D01*
X183804880Y-96318571D01*
X183757261Y-96413809D01*
X183757261Y-96651904D01*
X183804880Y-96747142D01*
X183852500Y-96794761D01*
X183947738Y-96842380D01*
X184233452Y-96842380D01*
X184328690Y-96794761D01*
X184376309Y-96747142D01*
X183138214Y-95842380D02*
X183042976Y-95842380D01*
X182947738Y-95890000D01*
X182900119Y-95937619D01*
X182852500Y-96032857D01*
X182804880Y-96223333D01*
X182804880Y-96461428D01*
X182852500Y-96651904D01*
X182900119Y-96747142D01*
X182947738Y-96794761D01*
X183042976Y-96842380D01*
X183138214Y-96842380D01*
X183233452Y-96794761D01*
X183281071Y-96747142D01*
X183328690Y-96651904D01*
X183376309Y-96461428D01*
X183376309Y-96223333D01*
X183328690Y-96032857D01*
X183281071Y-95937619D01*
X183233452Y-95890000D01*
X183138214Y-95842380D01*
X182376309Y-96318571D02*
X182042976Y-96318571D01*
X181900119Y-96842380D02*
X182376309Y-96842380D01*
X182376309Y-95842380D01*
X181900119Y-95842380D01*
X181281071Y-96366190D02*
X181281071Y-96842380D01*
X181614404Y-95842380D02*
X181281071Y-96366190D01*
X180947738Y-95842380D01*
X180423928Y-95842380D02*
X180328690Y-95842380D01*
X180233452Y-95890000D01*
X180185833Y-95937619D01*
X180138214Y-96032857D01*
X180090595Y-96223333D01*
X180090595Y-96461428D01*
X180138214Y-96651904D01*
X180185833Y-96747142D01*
X180233452Y-96794761D01*
X180328690Y-96842380D01*
X180423928Y-96842380D01*
X180519166Y-96794761D01*
X180566785Y-96747142D01*
X180614404Y-96651904D01*
X180662023Y-96461428D01*
X180662023Y-96223333D01*
X180614404Y-96032857D01*
X180566785Y-95937619D01*
X180519166Y-95890000D01*
X180423928Y-95842380D01*
X179471547Y-95842380D02*
X179376309Y-95842380D01*
X179281071Y-95890000D01*
X179233452Y-95937619D01*
X179185833Y-96032857D01*
X179138214Y-96223333D01*
X179138214Y-96461428D01*
X179185833Y-96651904D01*
X179233452Y-96747142D01*
X179281071Y-96794761D01*
X179376309Y-96842380D01*
X179471547Y-96842380D01*
X179566785Y-96794761D01*
X179614404Y-96747142D01*
X179662023Y-96651904D01*
X179709642Y-96461428D01*
X179709642Y-96223333D01*
X179662023Y-96032857D01*
X179614404Y-95937619D01*
X179566785Y-95890000D01*
X179471547Y-95842380D01*
X178804880Y-95842380D02*
X178185833Y-95842380D01*
X178519166Y-96223333D01*
X178376309Y-96223333D01*
X178281071Y-96270952D01*
X178233452Y-96318571D01*
X178185833Y-96413809D01*
X178185833Y-96651904D01*
X178233452Y-96747142D01*
X178281071Y-96794761D01*
X178376309Y-96842380D01*
X178662023Y-96842380D01*
X178757261Y-96794761D01*
X178804880Y-96747142D01*
X177233452Y-96842380D02*
X177804880Y-96842380D01*
X177519166Y-96842380D02*
X177519166Y-95842380D01*
X177614404Y-95985238D01*
X177709642Y-96080476D01*
X177804880Y-96128095D01*
X176900119Y-95842380D02*
X176233452Y-95842380D01*
X176662023Y-96842380D01*
X175423928Y-95842380D02*
X175614404Y-95842380D01*
X175709642Y-95890000D01*
X175757261Y-95937619D01*
X175852500Y-96080476D01*
X175900119Y-96270952D01*
X175900119Y-96651904D01*
X175852500Y-96747142D01*
X175804880Y-96794761D01*
X175709642Y-96842380D01*
X175519166Y-96842380D01*
X175423928Y-96794761D01*
X175376309Y-96747142D01*
X175328690Y-96651904D01*
X175328690Y-96413809D01*
X175376309Y-96318571D01*
X175423928Y-96270952D01*
X175519166Y-96223333D01*
X175709642Y-96223333D01*
X175804880Y-96270952D01*
X175852500Y-96318571D01*
X175900119Y-96413809D01*
X197614404Y-98492380D02*
X197614404Y-97492380D01*
X197185833Y-98492380D02*
X197185833Y-97968571D01*
X197233452Y-97873333D01*
X197328690Y-97825714D01*
X197471547Y-97825714D01*
X197566785Y-97873333D01*
X197614404Y-97920952D01*
X196852500Y-97825714D02*
X196471547Y-97825714D01*
X196709642Y-97492380D02*
X196709642Y-98349523D01*
X196662023Y-98444761D01*
X196566785Y-98492380D01*
X196471547Y-98492380D01*
X196281071Y-97825714D02*
X195900119Y-97825714D01*
X196138214Y-97492380D02*
X196138214Y-98349523D01*
X196090595Y-98444761D01*
X195995357Y-98492380D01*
X195900119Y-98492380D01*
X195566785Y-97825714D02*
X195566785Y-98825714D01*
X195566785Y-97873333D02*
X195471547Y-97825714D01*
X195281071Y-97825714D01*
X195185833Y-97873333D01*
X195138214Y-97920952D01*
X195090595Y-98016190D01*
X195090595Y-98301904D01*
X195138214Y-98397142D01*
X195185833Y-98444761D01*
X195281071Y-98492380D01*
X195471547Y-98492380D01*
X195566785Y-98444761D01*
X194709642Y-98444761D02*
X194614404Y-98492380D01*
X194423928Y-98492380D01*
X194328690Y-98444761D01*
X194281071Y-98349523D01*
X194281071Y-98301904D01*
X194328690Y-98206666D01*
X194423928Y-98159047D01*
X194566785Y-98159047D01*
X194662023Y-98111428D01*
X194709642Y-98016190D01*
X194709642Y-97968571D01*
X194662023Y-97873333D01*
X194566785Y-97825714D01*
X194423928Y-97825714D01*
X194328690Y-97873333D01*
X193852500Y-98397142D02*
X193804880Y-98444761D01*
X193852500Y-98492380D01*
X193900119Y-98444761D01*
X193852500Y-98397142D01*
X193852500Y-98492380D01*
X193852500Y-97873333D02*
X193804880Y-97920952D01*
X193852500Y-97968571D01*
X193900119Y-97920952D01*
X193852500Y-97873333D01*
X193852500Y-97968571D01*
X192662023Y-97444761D02*
X193519166Y-98730476D01*
X191614404Y-97444761D02*
X192471547Y-98730476D01*
X190852500Y-97825714D02*
X190852500Y-98635238D01*
X190900119Y-98730476D01*
X190947738Y-98778095D01*
X191042976Y-98825714D01*
X191185833Y-98825714D01*
X191281071Y-98778095D01*
X190852500Y-98444761D02*
X190947738Y-98492380D01*
X191138214Y-98492380D01*
X191233452Y-98444761D01*
X191281071Y-98397142D01*
X191328690Y-98301904D01*
X191328690Y-98016190D01*
X191281071Y-97920952D01*
X191233452Y-97873333D01*
X191138214Y-97825714D01*
X190947738Y-97825714D01*
X190852500Y-97873333D01*
X190376309Y-98492380D02*
X190376309Y-97825714D01*
X190376309Y-97492380D02*
X190423928Y-97540000D01*
X190376309Y-97587619D01*
X190328690Y-97540000D01*
X190376309Y-97492380D01*
X190376309Y-97587619D01*
X190042976Y-97825714D02*
X189662023Y-97825714D01*
X189900119Y-97492380D02*
X189900119Y-98349523D01*
X189852500Y-98444761D01*
X189757261Y-98492380D01*
X189662023Y-98492380D01*
X189328690Y-98492380D02*
X189328690Y-97492380D01*
X188900119Y-98492380D02*
X188900119Y-97968571D01*
X188947738Y-97873333D01*
X189042976Y-97825714D01*
X189185833Y-97825714D01*
X189281071Y-97873333D01*
X189328690Y-97920952D01*
X187995357Y-97825714D02*
X187995357Y-98492380D01*
X188423928Y-97825714D02*
X188423928Y-98349523D01*
X188376309Y-98444761D01*
X188281071Y-98492380D01*
X188138214Y-98492380D01*
X188042976Y-98444761D01*
X187995357Y-98397142D01*
X187519166Y-98492380D02*
X187519166Y-97492380D01*
X187519166Y-97873333D02*
X187423928Y-97825714D01*
X187233452Y-97825714D01*
X187138214Y-97873333D01*
X187090595Y-97920952D01*
X187042976Y-98016190D01*
X187042976Y-98301904D01*
X187090595Y-98397142D01*
X187138214Y-98444761D01*
X187233452Y-98492380D01*
X187423928Y-98492380D01*
X187519166Y-98444761D01*
X186614404Y-98397142D02*
X186566785Y-98444761D01*
X186614404Y-98492380D01*
X186662023Y-98444761D01*
X186614404Y-98397142D01*
X186614404Y-98492380D01*
X185709642Y-98444761D02*
X185804880Y-98492380D01*
X185995357Y-98492380D01*
X186090595Y-98444761D01*
X186138214Y-98397142D01*
X186185833Y-98301904D01*
X186185833Y-98016190D01*
X186138214Y-97920952D01*
X186090595Y-97873333D01*
X185995357Y-97825714D01*
X185804880Y-97825714D01*
X185709642Y-97873333D01*
X185138214Y-98492380D02*
X185233452Y-98444761D01*
X185281071Y-98397142D01*
X185328690Y-98301904D01*
X185328690Y-98016190D01*
X185281071Y-97920952D01*
X185233452Y-97873333D01*
X185138214Y-97825714D01*
X184995357Y-97825714D01*
X184900119Y-97873333D01*
X184852500Y-97920952D01*
X184804880Y-98016190D01*
X184804880Y-98301904D01*
X184852500Y-98397142D01*
X184900119Y-98444761D01*
X184995357Y-98492380D01*
X185138214Y-98492380D01*
X184376309Y-98492380D02*
X184376309Y-97825714D01*
X184376309Y-97920952D02*
X184328690Y-97873333D01*
X184233452Y-97825714D01*
X184090595Y-97825714D01*
X183995357Y-97873333D01*
X183947738Y-97968571D01*
X183947738Y-98492380D01*
X183947738Y-97968571D02*
X183900119Y-97873333D01*
X183804880Y-97825714D01*
X183662023Y-97825714D01*
X183566785Y-97873333D01*
X183519166Y-97968571D01*
X183519166Y-98492380D01*
X182328690Y-97444761D02*
X183185833Y-98730476D01*
X181519166Y-98492380D02*
X181995357Y-98492380D01*
X181995357Y-97492380D01*
X181042976Y-98492380D02*
X181138214Y-98444761D01*
X181185833Y-98349523D01*
X181185833Y-97492380D01*
X180233452Y-98492380D02*
X180233452Y-97968571D01*
X180281071Y-97873333D01*
X180376309Y-97825714D01*
X180566785Y-97825714D01*
X180662023Y-97873333D01*
X180233452Y-98444761D02*
X180328690Y-98492380D01*
X180566785Y-98492380D01*
X180662023Y-98444761D01*
X180709642Y-98349523D01*
X180709642Y-98254285D01*
X180662023Y-98159047D01*
X180566785Y-98111428D01*
X180328690Y-98111428D01*
X180233452Y-98063809D01*
X179757261Y-98492380D02*
X179757261Y-97825714D01*
X179757261Y-97920952D02*
X179709642Y-97873333D01*
X179614404Y-97825714D01*
X179471547Y-97825714D01*
X179376309Y-97873333D01*
X179328690Y-97968571D01*
X179328690Y-98492380D01*
X179328690Y-97968571D02*
X179281071Y-97873333D01*
X179185833Y-97825714D01*
X179042976Y-97825714D01*
X178947738Y-97873333D01*
X178900119Y-97968571D01*
X178900119Y-98492380D01*
X178042976Y-98444761D02*
X178138214Y-98492380D01*
X178328690Y-98492380D01*
X178423928Y-98444761D01*
X178471547Y-98349523D01*
X178471547Y-97968571D01*
X178423928Y-97873333D01*
X178328690Y-97825714D01*
X178138214Y-97825714D01*
X178042976Y-97873333D01*
X177995357Y-97968571D01*
X177995357Y-98063809D01*
X178471547Y-98159047D01*
X177566785Y-98492380D02*
X177566785Y-97825714D01*
X177566785Y-98016190D02*
X177519166Y-97920952D01*
X177471547Y-97873333D01*
X177376309Y-97825714D01*
X177281071Y-97825714D01*
X176804880Y-98492380D02*
X176900119Y-98444761D01*
X176947738Y-98397142D01*
X176995357Y-98301904D01*
X176995357Y-98016190D01*
X176947738Y-97920952D01*
X176900119Y-97873333D01*
X176804880Y-97825714D01*
X176662023Y-97825714D01*
X176566785Y-97873333D01*
X176519166Y-97920952D01*
X176471547Y-98016190D01*
X176471547Y-98301904D01*
X176519166Y-98397142D01*
X176566785Y-98444761D01*
X176662023Y-98492380D01*
X176804880Y-98492380D01*
X175328690Y-97444761D02*
X176185833Y-98730476D01*
X174423928Y-98492380D02*
X174757261Y-98016190D01*
X174995357Y-98492380D02*
X174995357Y-97492380D01*
X174614404Y-97492380D01*
X174519166Y-97540000D01*
X174471547Y-97587619D01*
X174423928Y-97682857D01*
X174423928Y-97825714D01*
X174471547Y-97920952D01*
X174519166Y-97968571D01*
X174614404Y-98016190D01*
X174995357Y-98016190D01*
X173995357Y-98492380D02*
X173995357Y-97492380D01*
X173614404Y-97492380D01*
X173519166Y-97540000D01*
X173471547Y-97587619D01*
X173423928Y-97682857D01*
X173423928Y-97825714D01*
X173471547Y-97920952D01*
X173519166Y-97968571D01*
X173614404Y-98016190D01*
X173995357Y-98016190D01*
X172995357Y-98492380D02*
X172995357Y-97825714D01*
X172995357Y-97492380D02*
X173042976Y-97540000D01*
X172995357Y-97587619D01*
X172947738Y-97540000D01*
X172995357Y-97492380D01*
X172995357Y-97587619D01*
X172757261Y-98587619D02*
X171995357Y-98587619D01*
X171757261Y-98492380D02*
X171757261Y-97492380D01*
X171090595Y-97492380D02*
X170900119Y-97492380D01*
X170804880Y-97540000D01*
X170709642Y-97635238D01*
X170662023Y-97825714D01*
X170662023Y-98159047D01*
X170709642Y-98349523D01*
X170804880Y-98444761D01*
X170900119Y-98492380D01*
X171090595Y-98492380D01*
X171185833Y-98444761D01*
X171281071Y-98349523D01*
X171328690Y-98159047D01*
X171328690Y-97825714D01*
X171281071Y-97635238D01*
X171185833Y-97540000D01*
X171090595Y-97492380D01*
X170471547Y-98587619D02*
X169709642Y-98587619D01*
X169471547Y-98492380D02*
X169471547Y-97492380D01*
X169471547Y-97968571D02*
X168900119Y-97968571D01*
X168900119Y-98492380D02*
X168900119Y-97492380D01*
X167995357Y-98492380D02*
X167995357Y-97968571D01*
X168042976Y-97873333D01*
X168138214Y-97825714D01*
X168328690Y-97825714D01*
X168423928Y-97873333D01*
X167995357Y-98444761D02*
X168090595Y-98492380D01*
X168328690Y-98492380D01*
X168423928Y-98444761D01*
X168471547Y-98349523D01*
X168471547Y-98254285D01*
X168423928Y-98159047D01*
X168328690Y-98111428D01*
X168090595Y-98111428D01*
X167995357Y-98063809D01*
X167662023Y-97825714D02*
X167281071Y-97825714D01*
X167519166Y-97492380D02*
X167519166Y-98349523D01*
X167471547Y-98444761D01*
X167376309Y-98492380D01*
X167281071Y-98492380D01*
X167185833Y-98587619D02*
X166423928Y-98587619D01*
X166281071Y-97825714D02*
X166042976Y-98492380D01*
X165804880Y-97825714D01*
X164900119Y-98492380D02*
X165471547Y-98492380D01*
X165185833Y-98492380D02*
X165185833Y-97492380D01*
X165281071Y-97635238D01*
X165376309Y-97730476D01*
X165471547Y-97778095D01*
M02*
